<?xml version="1.0" encoding="UTF-8" standalone="no"?>
<!DOCTYPE svg PUBLIC "-//W3C//DTD SVG 1.1//EN"
 "http://www.w3.org/Graphics/SVG/1.1/DTD/svg11.dtd">
<!-- Generated by graphviz version 2.40.1 (20161225.0304)
 -->
<!-- Title: G Pages: 1 -->
<svg width="3236pt" height="678pt"
 viewBox="0.00 0.00 3235.50 678.00" xmlns="http://www.w3.org/2000/svg" xmlns:xlink="http://www.w3.org/1999/xlink">
<g id="graph0" class="graph" transform="scale(1 1) rotate(0) translate(4 674)">
<title>G</title>
<polygon fill="#ffffff" stroke="transparent" points="-4,4 -4,-674 3231.5,-674 3231.5,4 -4,4"/>
<!-- n1 -->
<g id="node1" class="node">
<title>n1</title>
<g id="a_node1"><a xlink:href="http://ib.usp.br/activities/processing" xlink:title="ib_usp:activities/processing">
<polygon fill="#9fb1fc" stroke="#0000ff" points="1850.5,-244 1634.5,-244 1634.5,-208 1850.5,-208 1850.5,-244"/>
<text text-anchor="middle" x="1742.5" y="-222.3" font-family="Times,serif" font-size="14.00" fill="#000000">ib_usp:activities/processing</text>
</a>
</g>
</g>
<!-- n3 -->
<g id="node5" class="node">
<title>n3</title>
<g id="a_node5"><a xlink:href="http://poli.usp.br/datascience/algol/10" xlink:title="poli:datascience/algol/10">
<ellipse fill="#fffc87" stroke="#808080" cx="1466.5" cy="-335" rx="126.1777" ry="18"/>
<text text-anchor="middle" x="1466.5" y="-331.3" font-family="Times,serif" font-size="14.00" fill="#000000">poli:datascience/algol/10</text>
</a>
</g>
</g>
<!-- n1&#45;&gt;n3 -->
<g id="edge17" class="edge">
<title>n1&#45;&gt;n3</title>
<path fill="none" stroke="#8b0000" d="M1694.6982,-244.0452C1670.6028,-253.2057 1640.9549,-264.575 1614.5,-275 1582.0546,-287.7856 1545.7638,-302.4917 1517.2389,-314.1446"/>
<polygon fill="#8b0000" stroke="#8b0000" points="1515.8108,-310.9472 1507.8798,-317.9722 1518.4605,-317.4263 1515.8108,-310.9472"/>
<text text-anchor="middle" x="1626.5" y="-278" font-family="Times,serif" font-size="10.00" fill="#ff0000">used</text>
</g>
<!-- n4 -->
<g id="node7" class="node">
<title>n4</title>
<g id="a_node7"><a xlink:href="http://poli.usp.br/datasets/30" xlink:title="poli:datasets/30">
<ellipse fill="#fffc87" stroke="#808080" cx="1214.5" cy="-335" rx="85.2851" ry="18"/>
<text text-anchor="middle" x="1214.5" y="-331.3" font-family="Times,serif" font-size="14.00" fill="#000000">poli:datasets/30</text>
</a>
</g>
</g>
<!-- n1&#45;&gt;n4 -->
<g id="edge13" class="edge">
<title>n1&#45;&gt;n4</title>
<path fill="none" stroke="#8b0000" d="M1678.4679,-244.0406C1661.0429,-248.616 1642.1161,-253.2824 1624.5,-257 1495.4552,-284.2326 1460.5161,-276.632 1331.5,-304 1312.9418,-307.9367 1292.9218,-312.9523 1274.7792,-317.7961"/>
<polygon fill="#8b0000" stroke="#8b0000" points="1273.6552,-314.4742 1264.9143,-320.4615 1275.4811,-321.2319 1273.6552,-314.4742"/>
<text text-anchor="middle" x="1530.5" y="-278" font-family="Times,serif" font-size="10.00" fill="#ff0000">used</text>
</g>
<!-- n6 -->
<g id="node11" class="node">
<title>n6</title>
<g id="a_node11"><a xlink:href="http://bioprov.org/input_params/validateRanges" xlink:title="bioprov:input_params/validateRanges">
<ellipse fill="#fffc87" stroke="#808080" cx="2190.5" cy="-335" rx="186.5669" ry="18"/>
<text text-anchor="middle" x="2190.5" y="-331.3" font-family="Times,serif" font-size="14.00" fill="#000000">bioprov:input_params/validateRanges</text>
</a>
</g>
</g>
<!-- n1&#45;&gt;n6 -->
<g id="edge19" class="edge">
<title>n1&#45;&gt;n6</title>
<path fill="none" stroke="#8b0000" d="M1809.2398,-244.0232C1825.651,-248.3612 1843.1922,-252.9189 1859.5,-257 1943.6663,-278.0628 2040.2762,-300.6469 2107.308,-316.0648"/>
<polygon fill="#8b0000" stroke="#8b0000" points="2106.8618,-319.5535 2117.3916,-318.3814 2108.4292,-312.7312 2106.8618,-319.5535"/>
<text text-anchor="middle" x="1990.5" y="-278" font-family="Times,serif" font-size="10.00" fill="#ff0000">used</text>
</g>
<!-- n7 -->
<g id="node13" class="node">
<title>n7</title>
<g id="a_node13"><a xlink:href="http://tools.com/software/xyz" xlink:title="tools.com:software/xyz">
<ellipse fill="#fffc87" stroke="#808080" cx="2987.5" cy="-335" rx="117.7793" ry="18"/>
<text text-anchor="middle" x="2987.5" y="-331.3" font-family="Times,serif" font-size="14.00" fill="#000000">tools.com:software/xyz</text>
</a>
</g>
</g>
<!-- n1&#45;&gt;n7 -->
<g id="edge15" class="edge">
<title>n1&#45;&gt;n7</title>
<path fill="none" stroke="#8b0000" d="M1800.9054,-244.0781C1819.4635,-249.1176 1840.1856,-254.0228 1859.5,-257 2079.8096,-290.9591 2640.8975,-271.9992 2861.5,-304 2881.6208,-306.9187 2903.2149,-311.6325 2922.7429,-316.5128"/>
<polygon fill="#8b0000" stroke="#8b0000" points="2921.8913,-319.9076 2932.4466,-318.9928 2923.6246,-313.1255 2921.8913,-319.9076"/>
<text text-anchor="middle" x="2578.5" y="-278" font-family="Times,serif" font-size="10.00" fill="#ff0000">used</text>
</g>
<!-- n8 -->
<g id="node15" class="node">
<title>n8</title>
<g id="a_node15"><a xlink:href="http://bioprov.org/input_params/acceptErrors" xlink:title="bioprov:input_params/acceptErrors">
<ellipse fill="#fffc87" stroke="#808080" cx="1809.5" cy="-335" rx="176.5689" ry="18"/>
<text text-anchor="middle" x="1809.5" y="-331.3" font-family="Times,serif" font-size="14.00" fill="#000000">bioprov:input_params/acceptErrors</text>
</a>
</g>
</g>
<!-- n1&#45;&gt;n8 -->
<g id="edge14" class="edge">
<title>n1&#45;&gt;n8</title>
<path fill="none" stroke="#8b0000" d="M1753.8656,-244.4904C1764.6145,-261.9774 1780.8665,-288.4171 1793.0337,-308.2116"/>
<polygon fill="#8b0000" stroke="#8b0000" points="1790.0838,-310.0963 1798.3022,-316.7827 1796.0473,-306.4306 1790.0838,-310.0963"/>
<text text-anchor="middle" x="1790.5" y="-278" font-family="Times,serif" font-size="10.00" fill="#ff0000">used</text>
</g>
<!-- b1 -->
<g id="node25" class="node">
<title>b1</title>
<ellipse fill="#c0c0c0" stroke="#c0c0c0" cx="1612.5" cy="-335" rx="1.8" ry="1.8"/>
</g>
<!-- n1&#45;&gt;b1 -->
<g id="edge20" class="edge">
<title>n1&#45;&gt;b1</title>
<path fill="none" stroke="#fed37f" d="M1701.9656,-244.0796C1676.3017,-257.3672 1644.1746,-277.6769 1623.5,-304 1616.163,-313.3415 1613.4869,-327.9679 1612.7413,-333.1244"/>
<text text-anchor="middle" x="1699.5" y="-278" font-family="Times,serif" font-size="10.00" fill="#000000">wasAssociatedWith</text>
</g>
<!-- ann1 -->
<g id="node2" class="node">
<title>ann1</title>
<polygon fill="none" stroke="#c0c0c0" points="1911.5,-148 1567.5,-148 1567.5,-99 1917.5,-99 1917.5,-142 1911.5,-148"/>
<polyline fill="none" stroke="#c0c0c0" points="1911.5,-148 1911.5,-142 "/>
<polyline fill="none" stroke="#c0c0c0" points="1917.5,-142 1911.5,-142 "/>
<g id="a_node2_0"><a xlink:href="http://purl.org/dc/terms/created" xlink:title="&lt;TABLE&gt;">
<text text-anchor="start" x="1577.5" y="-133.5" font-family="Times,serif" font-size="10.00" fill="#000000">dcterms:created</text>
</a>
</g>
<text text-anchor="start" x="1660.5" y="-133.5" font-family="Times,serif" font-size="10.00" fill="#000000">2022&#45;03&#45;03 20:51:52</text>
<g id="a_node2_1"><a xlink:href="http://purl.org/dc/terms/title" xlink:title="&lt;TABLE&gt;">
<text text-anchor="start" x="1577.5" y="-120.5" font-family="Times,serif" font-size="10.00" fill="#000000">dcterms:title</text>
</a>
</g>
<text text-anchor="start" x="1660.5" y="-120.5" font-family="Times,serif" font-size="10.00" fill="#000000">Environment Data Processing using Software Tool</text>
<g id="a_node2_2"><a xlink:href="http://purl.org/dc/terms/type" xlink:title="&lt;TABLE&gt;">
<text text-anchor="start" x="1577.5" y="-107.5" font-family="Times,serif" font-size="10.00" fill="#000000">dcterms:type</text>
</a>
</g>
<text text-anchor="start" x="1660.5" y="-107.5" font-family="Times,serif" font-size="10.00" fill="#000000">DataProcessing</text>
</g>
<!-- ann1&#45;&gt;n1 -->
<g id="edge1" class="edge">
<title>ann1&#45;&gt;n1</title>
<path fill="none" stroke="#c0c0c0" stroke-dasharray="5,2" d="M1742.5,-148.0513C1742.5,-166.4114 1742.5,-191.1139 1742.5,-207.748"/>
</g>
<!-- n2 -->
<g id="node3" class="node">
<title>n2</title>
<g id="a_node3"><a xlink:href="http://ib.usp.br/ecologia" xlink:title="ib_usp:ecologia">
<polygon fill="#fed37f" stroke="#000000" points="2725.5567,-449.5623 2623.5,-462 2521.4433,-449.5623 2521.5385,-429.4377 2725.4615,-429.4377 2725.5567,-449.5623"/>
<text text-anchor="middle" x="2623.5" y="-440.3" font-family="Times,serif" font-size="14.00" fill="#000000">ib_usp:ecologia</text>
</a>
</g>
</g>
<!-- ann2 -->
<g id="node4" class="node">
<title>ann2</title>
<polygon fill="none" stroke="#c0c0c0" points="2846,-366 2395,-366 2395,-304 2852,-304 2852,-360 2846,-366"/>
<polyline fill="none" stroke="#c0c0c0" points="2846,-366 2846,-360 "/>
<polyline fill="none" stroke="#c0c0c0" points="2852,-360 2846,-360 "/>
<g id="a_node4_3"><a xlink:href="http://purl.org/dc/terms/created" xlink:title="&lt;TABLE&gt;">
<text text-anchor="start" x="2405.5" y="-352" font-family="Times,serif" font-size="10.00" fill="#000000">dcterms:created</text>
</a>
</g>
<text text-anchor="start" x="2505.5" y="-352" font-family="Times,serif" font-size="10.00" fill="#000000">2022&#45;03&#45;03 20:51:32</text>
<g id="a_node4_4"><a xlink:href="http://purl.org/dc/terms/description" xlink:title="&lt;TABLE&gt;">
<text text-anchor="start" x="2405.5" y="-339" font-family="Times,serif" font-size="10.00" fill="#000000">dcterms:description</text>
</a>
</g>
<text text-anchor="start" x="2505.5" y="-339" font-family="Times,serif" font-size="10.00" fill="#000000">Ecology Department &#45; Bioscience Instituty of University of Sao Paulo</text>
<g id="a_node4_5"><a xlink:href="http://xmlns.com/foaf/0.1/homepage" xlink:title="&lt;TABLE&gt;">
<text text-anchor="start" x="2405.5" y="-326" font-family="Times,serif" font-size="10.00" fill="#000000">foaf:homepage</text>
</a>
</g>
<text text-anchor="start" x="2505.5" y="-326" font-family="Times,serif" font-size="10.00" fill="#000000">http://ib.usp.br/ecologia</text>
<g id="a_node4_6"><a xlink:href="http://xmlns.com/foaf/0.1/name" xlink:title="&lt;TABLE&gt;">
<text text-anchor="start" x="2405.5" y="-313" font-family="Times,serif" font-size="10.00" fill="#000000">foaf:name</text>
</a>
</g>
<text text-anchor="start" x="2505.5" y="-313" font-family="Times,serif" font-size="10.00" fill="#000000">Departamento de Ecologia do Instituto de Biociencias da USP</text>
</g>
<!-- ann2&#45;&gt;n2 -->
<g id="edge2" class="edge">
<title>ann2&#45;&gt;n2</title>
<path fill="none" stroke="#c0c0c0" stroke-dasharray="5,2" d="M2623.5,-366.235C2623.5,-386.9949 2623.5,-413.2992 2623.5,-429.3767"/>
</g>
<!-- ann3 -->
<g id="node6" class="node">
<title>ann3</title>
<polygon fill="none" stroke="#c0c0c0" points="1610,-250.5 1317,-250.5 1317,-201.5 1616,-201.5 1616,-244.5 1610,-250.5"/>
<polyline fill="none" stroke="#c0c0c0" points="1610,-250.5 1610,-244.5 "/>
<polyline fill="none" stroke="#c0c0c0" points="1616,-244.5 1610,-244.5 "/>
<g id="a_node6_7"><a xlink:href="http://purl.org/dc/terms/created" xlink:title="&lt;TABLE&gt;">
<text text-anchor="start" x="1327.5" y="-236" font-family="Times,serif" font-size="10.00" fill="#000000">dcterms:created</text>
</a>
</g>
<text text-anchor="start" x="1410.5" y="-236" font-family="Times,serif" font-size="10.00" fill="#000000">2022&#45;03&#45;03 20:51:45</text>
<g id="a_node6_8"><a xlink:href="http://purl.org/dc/terms/source" xlink:title="&lt;TABLE&gt;">
<text text-anchor="start" x="1327.5" y="-223" font-family="Times,serif" font-size="10.00" fill="#000000">dcterms:source</text>
</a>
</g>
<text text-anchor="start" x="1410.5" y="-223" font-family="Times,serif" font-size="10.00" fill="#000000">http://github.com/poli&#45;usp/environAlgol</text>
<g id="a_node6_9"><a xlink:href="http://purl.org/dc/terms/title" xlink:title="&lt;TABLE&gt;">
<text text-anchor="start" x="1327.5" y="-210" font-family="Times,serif" font-size="10.00" fill="#000000">dcterms:title</text>
</a>
</g>
<text text-anchor="start" x="1410.5" y="-210" font-family="Times,serif" font-size="10.00" fill="#000000">Algorithm for environmental processing</text>
</g>
<!-- ann3&#45;&gt;n3 -->
<g id="edge3" class="edge">
<title>ann3&#45;&gt;n3</title>
<path fill="none" stroke="#c0c0c0" stroke-dasharray="5,2" d="M1466.5,-250.7338C1466.5,-270.8335 1466.5,-298.7251 1466.5,-316.8172"/>
</g>
<!-- n10 -->
<g id="node19" class="node">
<title>n10</title>
<g id="a_node19"><a xlink:href="http://usp.br/poli" xlink:title="usp:poli">
<polygon fill="#fed37f" stroke="#000000" points="1199.2928,-657.5623 1140.5,-670 1081.7072,-657.5623 1081.7621,-637.4377 1199.2379,-637.4377 1199.2928,-657.5623"/>
<text text-anchor="middle" x="1140.5" y="-648.3" font-family="Times,serif" font-size="14.00" fill="#000000">usp:poli</text>
</a>
</g>
</g>
<!-- n4&#45;&gt;n10 -->
<g id="edge24" class="edge">
<title>n4&#45;&gt;n10</title>
<path fill="none" stroke="#fed37f" d="M1213.3141,-353.2177C1211.0202,-384.4225 1205.0543,-449.962 1192.5,-504 1180.6048,-555.2012 1172.4747,-566.6039 1154.5,-616 1153.0955,-619.8598 1151.5616,-623.9334 1150.0407,-627.8976"/>
<polygon fill="#fed37f" stroke="#fed37f" points="1146.7303,-626.7535 1146.3678,-637.3421 1153.2544,-629.2907 1146.7303,-626.7535"/>
<text text-anchor="middle" x="1236.5" y="-496" font-family="Times,serif" font-size="10.00" fill="#000000">wasAttributedTo</text>
</g>
<!-- n12 -->
<g id="node23" class="node">
<title>n12</title>
<g id="a_node23"><a xlink:href="http://poli.usp.br/activities/capture" xlink:title="poli:activities/capture">
<polygon fill="#9fb1fc" stroke="#0000ff" points="1182,-462 1009,-462 1009,-426 1182,-426 1182,-462"/>
<text text-anchor="middle" x="1095.5" y="-440.3" font-family="Times,serif" font-size="14.00" fill="#000000">poli:activities/capture</text>
</a>
</g>
</g>
<!-- n4&#45;&gt;n12 -->
<g id="edge26" class="edge">
<title>n4&#45;&gt;n12</title>
<path fill="none" stroke="#006400" d="M1166.3687,-349.8565C1148.2999,-357.5302 1128.9131,-368.5977 1115.5,-384 1107.7403,-392.9105 1102.9703,-404.9315 1100.0477,-415.8737"/>
<polygon fill="#006400" stroke="#006400" points="1096.5729,-415.3708 1097.7743,-425.8973 1103.3995,-416.9192 1096.5729,-415.3708"/>
<text text-anchor="middle" x="1158" y="-387" font-family="Times,serif" font-size="10.00" fill="#006400">wasGeneratedBy</text>
</g>
<!-- ann4 -->
<g id="node8" class="node">
<title>ann4</title>
<polygon fill="none" stroke="#c0c0c0" points="1293,-257 1016,-257 1016,-195 1299,-195 1299,-251 1293,-257"/>
<polyline fill="none" stroke="#c0c0c0" points="1293,-257 1293,-251 "/>
<polyline fill="none" stroke="#c0c0c0" points="1299,-251 1293,-251 "/>
<g id="a_node8_10"><a xlink:href="http://purl.org/dc/terms/created" xlink:title="&lt;TABLE&gt;">
<text text-anchor="start" x="1026.5" y="-243" font-family="Times,serif" font-size="10.00" fill="#000000">dcterms:created</text>
</a>
</g>
<text text-anchor="start" x="1109.5" y="-243" font-family="Times,serif" font-size="10.00" fill="#000000">2022&#45;03&#45;03 20:51:23</text>
<g id="a_node8_11"><a xlink:href="http://purl.org/dc/terms/source" xlink:title="&lt;TABLE&gt;">
<text text-anchor="start" x="1026.5" y="-230" font-family="Times,serif" font-size="10.00" fill="#000000">dcterms:source</text>
</a>
</g>
<text text-anchor="start" x="1109.5" y="-230" font-family="Times,serif" font-size="10.00" fill="#000000">http://poli.usp.br/datasets/30</text>
<g id="a_node8_12"><a xlink:href="http://purl.org/dc/terms/title" xlink:title="&lt;TABLE&gt;">
<text text-anchor="start" x="1026.5" y="-217" font-family="Times,serif" font-size="10.00" fill="#000000">dcterms:title</text>
</a>
</g>
<text text-anchor="start" x="1109.5" y="-217" font-family="Times,serif" font-size="10.00" fill="#000000">Environmental Monitoring Raw Data</text>
<g id="a_node8_13"><a xlink:href="http://purl.org/dc/terms/type" xlink:title="&lt;TABLE&gt;">
<text text-anchor="start" x="1026.5" y="-204" font-family="Times,serif" font-size="10.00" fill="#000000">dcterms:type</text>
</a>
</g>
<text text-anchor="start" x="1109.5" y="-204" font-family="Times,serif" font-size="10.00" fill="#000000">Raw Dataset</text>
</g>
<!-- ann4&#45;&gt;n4 -->
<g id="edge4" class="edge">
<title>ann4&#45;&gt;n4</title>
<path fill="none" stroke="#c0c0c0" stroke-dasharray="5,2" d="M1173.8339,-257.235C1183.9663,-276.6109 1196.6243,-300.8166 1205.1026,-317.0295"/>
</g>
<!-- n5 -->
<g id="node9" class="node">
<title>n5</title>
<g id="a_node9"><a xlink:href="http://sensor.com/environmentalsensor/env200" xlink:title="sensor.com:environmentalsensor/env200">
<ellipse fill="#fffc87" stroke="#808080" cx="599.5" cy="-559.5" rx="200.6645" ry="18"/>
<text text-anchor="middle" x="599.5" y="-555.8" font-family="Times,serif" font-size="14.00" fill="#000000">sensor.com:environmentalsensor/env200</text>
</a>
</g>
</g>
<!-- ann5 -->
<g id="node10" class="node">
<title>ann5</title>
<polygon fill="none" stroke="#c0c0c0" points="615.5,-475 289.5,-475 289.5,-413 621.5,-413 621.5,-469 615.5,-475"/>
<polyline fill="none" stroke="#c0c0c0" points="615.5,-475 615.5,-469 "/>
<polyline fill="none" stroke="#c0c0c0" points="621.5,-469 615.5,-469 "/>
<g id="a_node10_14"><a xlink:href="http://purl.org/dc/terms/created" xlink:title="&lt;TABLE&gt;">
<text text-anchor="start" x="299.5" y="-461" font-family="Times,serif" font-size="10.00" fill="#000000">dcterms:created</text>
</a>
</g>
<text text-anchor="start" x="382.5" y="-461" font-family="Times,serif" font-size="10.00" fill="#000000">2022&#45;03&#45;03 20:51:17</text>
<g id="a_node10_15"><a xlink:href="http://purl.org/dc/terms/source" xlink:title="&lt;TABLE&gt;">
<text text-anchor="start" x="299.5" y="-448" font-family="Times,serif" font-size="10.00" fill="#000000">dcterms:source</text>
</a>
</g>
<text text-anchor="start" x="382.5" y="-448" font-family="Times,serif" font-size="10.00" fill="#000000">http://sensor.com/environmentalsensor/env200</text>
<g id="a_node10_16"><a xlink:href="http://purl.org/dc/terms/title" xlink:title="&lt;TABLE&gt;">
<text text-anchor="start" x="299.5" y="-435" font-family="Times,serif" font-size="10.00" fill="#000000">dcterms:title</text>
</a>
</g>
<text text-anchor="start" x="382.5" y="-435" font-family="Times,serif" font-size="10.00" fill="#000000">Environmental Sensor Model ENV 200</text>
<g id="a_node10_17"><a xlink:href="http://purl.org/dc/terms/type" xlink:title="&lt;TABLE&gt;">
<text text-anchor="start" x="299.5" y="-422" font-family="Times,serif" font-size="10.00" fill="#000000">dcterms:type</text>
</a>
</g>
<text text-anchor="start" x="382.5" y="-422" font-family="Times,serif" font-size="10.00" fill="#000000">Sensor</text>
</g>
<!-- ann5&#45;&gt;n5 -->
<g id="edge5" class="edge">
<title>ann5&#45;&gt;n5</title>
<path fill="none" stroke="#c0c0c0" stroke-dasharray="5,2" d="M494.4685,-475.256C520.9558,-496.501 555.0576,-523.8535 577.0976,-541.5314"/>
</g>
<!-- ann6 -->
<g id="node12" class="node">
<title>ann6</title>
<polygon fill="none" stroke="#c0c0c0" points="2654.5,-257 2262.5,-257 2262.5,-195 2660.5,-195 2660.5,-251 2654.5,-257"/>
<polyline fill="none" stroke="#c0c0c0" points="2654.5,-257 2654.5,-251 "/>
<polyline fill="none" stroke="#c0c0c0" points="2660.5,-251 2654.5,-251 "/>
<g id="a_node12_18"><a xlink:href="http://purl.org/dc/terms/created" xlink:title="&lt;TABLE&gt;">
<text text-anchor="start" x="2272.5" y="-243" font-family="Times,serif" font-size="10.00" fill="#000000">dcterms:created</text>
</a>
</g>
<text text-anchor="start" x="2372.5" y="-243" font-family="Times,serif" font-size="10.00" fill="#000000">2022&#45;03&#45;03 20:51:42</text>
<g id="a_node12_19"><a xlink:href="http://purl.org/dc/terms/description" xlink:title="&lt;TABLE&gt;">
<text text-anchor="start" x="2272.5" y="-230" font-family="Times,serif" font-size="10.00" fill="#000000">dcterms:description</text>
</a>
</g>
<text text-anchor="start" x="2372.5" y="-230" font-family="Times,serif" font-size="10.00" fill="#000000">Set wether the validation of data ranges are considered.</text>
<g id="a_node12_20"><a xlink:href="http://purl.org/dc/terms/type" xlink:title="&lt;TABLE&gt;">
<text text-anchor="start" x="2272.5" y="-217" font-family="Times,serif" font-size="10.00" fill="#000000">dcterms:type</text>
</a>
</g>
<text text-anchor="start" x="2372.5" y="-217" font-family="Times,serif" font-size="10.00" fill="#000000">InputParams</text>
<g id="a_node12_21"><a xlink:href="http://www.w3.org/1999/02/22-rdf-syntax-ns#value" xlink:title="&lt;TABLE&gt;">
<text text-anchor="start" x="2272.5" y="-204" font-family="Times,serif" font-size="10.00" fill="#000000">rdf:value</text>
</a>
</g>
<text text-anchor="start" x="2372.5" y="-204" font-family="Times,serif" font-size="10.00" fill="#000000">TRUE</text>
</g>
<!-- ann6&#45;&gt;n6 -->
<g id="edge6" class="edge">
<title>ann6&#45;&gt;n6</title>
<path fill="none" stroke="#c0c0c0" stroke-dasharray="5,2" d="M2384.2049,-257.0892C2335.5503,-276.6587 2274.5338,-301.2004 2234.1249,-317.4535"/>
</g>
<!-- ann7 -->
<g id="node14" class="node">
<title>ann7</title>
<polygon fill="none" stroke="#c0c0c0" points="3083,-250.5 2886,-250.5 2886,-201.5 3089,-201.5 3089,-244.5 3083,-250.5"/>
<polyline fill="none" stroke="#c0c0c0" points="3083,-250.5 3083,-244.5 "/>
<polyline fill="none" stroke="#c0c0c0" points="3089,-244.5 3083,-244.5 "/>
<g id="a_node14_22"><a xlink:href="http://purl.org/dc/terms/created" xlink:title="&lt;TABLE&gt;">
<text text-anchor="start" x="2896.5" y="-236" font-family="Times,serif" font-size="10.00" fill="#000000">dcterms:created</text>
</a>
</g>
<text text-anchor="start" x="2979.5" y="-236" font-family="Times,serif" font-size="10.00" fill="#000000">2022&#45;03&#45;03 20:51:35</text>
<g id="a_node14_23"><a xlink:href="http://purl.org/dc/terms/title" xlink:title="&lt;TABLE&gt;">
<text text-anchor="start" x="2896.5" y="-223" font-family="Times,serif" font-size="10.00" fill="#000000">dcterms:title</text>
</a>
</g>
<text text-anchor="start" x="2979.5" y="-223" font-family="Times,serif" font-size="10.00" fill="#000000">Software Tool XYZ</text>
<g id="a_node14_24"><a xlink:href="http://purl.org/dc/terms/type" xlink:title="&lt;TABLE&gt;">
<text text-anchor="start" x="2896.5" y="-210" font-family="Times,serif" font-size="10.00" fill="#000000">dcterms:type</text>
</a>
</g>
<text text-anchor="start" x="2979.5" y="-210" font-family="Times,serif" font-size="10.00" fill="#000000">SoftwareTool</text>
</g>
<!-- ann7&#45;&gt;n7 -->
<g id="edge7" class="edge">
<title>ann7&#45;&gt;n7</title>
<path fill="none" stroke="#c0c0c0" stroke-dasharray="5,2" d="M2987.5,-250.7338C2987.5,-270.8335 2987.5,-298.7251 2987.5,-316.8172"/>
</g>
<!-- ann8 -->
<g id="node16" class="node">
<title>ann8</title>
<polygon fill="none" stroke="#c0c0c0" points="2238,-257 1869,-257 1869,-195 2244,-195 2244,-251 2238,-257"/>
<polyline fill="none" stroke="#c0c0c0" points="2238,-257 2238,-251 "/>
<polyline fill="none" stroke="#c0c0c0" points="2244,-251 2238,-251 "/>
<g id="a_node16_25"><a xlink:href="http://purl.org/dc/terms/created" xlink:title="&lt;TABLE&gt;">
<text text-anchor="start" x="1879.5" y="-243" font-family="Times,serif" font-size="10.00" fill="#000000">dcterms:created</text>
</a>
</g>
<text text-anchor="start" x="1979.5" y="-243" font-family="Times,serif" font-size="10.00" fill="#000000">2022&#45;03&#45;03 20:51:38</text>
<g id="a_node16_26"><a xlink:href="http://purl.org/dc/terms/description" xlink:title="&lt;TABLE&gt;">
<text text-anchor="start" x="1879.5" y="-230" font-family="Times,serif" font-size="10.00" fill="#000000">dcterms:description</text>
</a>
</g>
<text text-anchor="start" x="1979.5" y="-230" font-family="Times,serif" font-size="10.00" fill="#000000">Set whether the errors are discarded or maintained</text>
<g id="a_node16_27"><a xlink:href="http://purl.org/dc/terms/type" xlink:title="&lt;TABLE&gt;">
<text text-anchor="start" x="1879.5" y="-217" font-family="Times,serif" font-size="10.00" fill="#000000">dcterms:type</text>
</a>
</g>
<text text-anchor="start" x="1979.5" y="-217" font-family="Times,serif" font-size="10.00" fill="#000000">InputParams</text>
<g id="a_node16_28"><a xlink:href="http://www.w3.org/1999/02/22-rdf-syntax-ns#value" xlink:title="&lt;TABLE&gt;">
<text text-anchor="start" x="1879.5" y="-204" font-family="Times,serif" font-size="10.00" fill="#000000">rdf:value</text>
</a>
</g>
<text text-anchor="start" x="1979.5" y="-204" font-family="Times,serif" font-size="10.00" fill="#000000">FALSE</text>
</g>
<!-- ann8&#45;&gt;n8 -->
<g id="edge8" class="edge">
<title>ann8&#45;&gt;n8</title>
<path fill="none" stroke="#c0c0c0" stroke-dasharray="5,2" d="M1986.0503,-257.0892C1941.7045,-276.6587 1886.0917,-301.2004 1849.2614,-317.4535"/>
</g>
<!-- n9 -->
<g id="node17" class="node">
<title>n9</title>
<g id="a_node17"><a xlink:href="http://ib.usp.br/data_products/150" xlink:title="ib_usp:data_products/150">
<ellipse fill="#fffc87" stroke="#808080" cx="2599.5" cy="-123.5" rx="131.077" ry="18"/>
<text text-anchor="middle" x="2599.5" y="-119.8" font-family="Times,serif" font-size="14.00" fill="#000000">ib_usp:data_products/150</text>
</a>
</g>
</g>
<!-- n9&#45;&gt;n1 -->
<g id="edge27" class="edge">
<title>n9&#45;&gt;n1</title>
<path fill="none" stroke="#006400" d="M2475.2538,-129.3223C2327.5473,-137.6656 2074.0368,-156.4783 1859.5,-195 1844.3152,-197.7265 1828.2171,-201.4389 1812.9784,-205.3473"/>
<polygon fill="#006400" stroke="#006400" points="1811.8921,-202.0138 1803.1068,-207.9357 1813.6675,-208.7849 1811.8921,-202.0138"/>
<text text-anchor="middle" x="2084" y="-169" font-family="Times,serif" font-size="10.00" fill="#006400">wasGeneratedBy</text>
</g>
<!-- n9&#45;&gt;n2 -->
<g id="edge25" class="edge">
<title>n9&#45;&gt;n2</title>
<path fill="none" stroke="#fed37f" d="M2712.8919,-132.6157C2851.6506,-144.8539 3071.5926,-168.1847 3098.5,-195 3152.5673,-248.8822 3164.0602,-307.9452 3114.5,-366 3090.1711,-394.4989 2872.9192,-420.2251 2735.6728,-433.8267"/>
<polygon fill="#fed37f" stroke="#fed37f" points="2735.1329,-430.3628 2725.5236,-434.8249 2735.8182,-437.3292 2735.1329,-430.3628"/>
<text text-anchor="middle" x="3186.5" y="-278" font-family="Times,serif" font-size="10.00" fill="#000000">wasAttributedTo</text>
</g>
<!-- ann9 -->
<g id="node18" class="node">
<title>ann9</title>
<polygon fill="none" stroke="#c0c0c0" points="2748,-62 2445,-62 2445,0 2754,0 2754,-56 2748,-62"/>
<polyline fill="none" stroke="#c0c0c0" points="2748,-62 2748,-56 "/>
<polyline fill="none" stroke="#c0c0c0" points="2754,-56 2748,-56 "/>
<g id="a_node18_29"><a xlink:href="http://purl.org/dc/terms/created" xlink:title="&lt;TABLE&gt;">
<text text-anchor="start" x="2455.5" y="-48" font-family="Times,serif" font-size="10.00" fill="#000000">dcterms:created</text>
</a>
</g>
<text text-anchor="start" x="2538.5" y="-48" font-family="Times,serif" font-size="10.00" fill="#000000">2022&#45;03&#45;03 20:51:48</text>
<g id="a_node18_30"><a xlink:href="http://purl.org/dc/terms/source" xlink:title="&lt;TABLE&gt;">
<text text-anchor="start" x="2455.5" y="-35" font-family="Times,serif" font-size="10.00" fill="#000000">dcterms:source</text>
</a>
</g>
<text text-anchor="start" x="2538.5" y="-35" font-family="Times,serif" font-size="10.00" fill="#000000">http://ib.usp.br/data_products/150</text>
<g id="a_node18_31"><a xlink:href="http://purl.org/dc/terms/title" xlink:title="&lt;TABLE&gt;">
<text text-anchor="start" x="2455.5" y="-22" font-family="Times,serif" font-size="10.00" fill="#000000">dcterms:title</text>
</a>
</g>
<text text-anchor="start" x="2538.5" y="-22" font-family="Times,serif" font-size="10.00" fill="#000000">Environmental Monitoring Published Data</text>
<g id="a_node18_32"><a xlink:href="http://purl.org/dc/terms/type" xlink:title="&lt;TABLE&gt;">
<text text-anchor="start" x="2455.5" y="-9" font-family="Times,serif" font-size="10.00" fill="#000000">dcterms:type</text>
</a>
</g>
<text text-anchor="start" x="2538.5" y="-9" font-family="Times,serif" font-size="10.00" fill="#000000">Processed Dataset</text>
</g>
<!-- ann9&#45;&gt;n9 -->
<g id="edge9" class="edge">
<title>ann9&#45;&gt;n9</title>
<path fill="none" stroke="#c0c0c0" stroke-dasharray="5,2" d="M2599.5,-62.0585C2599.5,-76.4393 2599.5,-93.0245 2599.5,-105.3362"/>
</g>
<!-- ann10 -->
<g id="node20" class="node">
<title>ann10</title>
<polygon fill="none" stroke="#c0c0c0" points="375,-597 0,-597 0,-522 381,-522 381,-591 375,-597"/>
<polyline fill="none" stroke="#c0c0c0" points="375,-597 375,-591 "/>
<polyline fill="none" stroke="#c0c0c0" points="381,-591 375,-591 "/>
<g id="a_node20_33"><a xlink:href="http://purl.org/dc/terms/created" xlink:title="&lt;TABLE&gt;">
<text text-anchor="start" x="10.5" y="-582.5" font-family="Times,serif" font-size="10.00" fill="#000000">dcterms:created</text>
</a>
</g>
<text text-anchor="start" x="110.5" y="-582.5" font-family="Times,serif" font-size="10.00" fill="#000000">2022&#45;03&#45;03 20:51:13</text>
<g id="a_node20_34"><a xlink:href="http://purl.org/dc/terms/description" xlink:title="&lt;TABLE&gt;">
<text text-anchor="start" x="10.5" y="-569.5" font-family="Times,serif" font-size="10.00" fill="#000000">dcterms:description</text>
</a>
</g>
<text text-anchor="start" x="110.5" y="-569.5" font-family="Times,serif" font-size="10.00" fill="#000000">Engineering Departament of University of Sao Paulo.</text>
<g id="a_node20_35"><a xlink:href="http://purl.org/dc/terms/type" xlink:title="&lt;TABLE&gt;">
<text text-anchor="start" x="10.5" y="-556.5" font-family="Times,serif" font-size="10.00" fill="#000000">dcterms:type</text>
</a>
</g>
<text text-anchor="start" x="110.5" y="-556.5" font-family="Times,serif" font-size="10.00" fill="#000000">Institution</text>
<g id="a_node20_36"><a xlink:href="http://xmlns.com/foaf/0.1/homepage" xlink:title="&lt;TABLE&gt;">
<text text-anchor="start" x="10.5" y="-543.5" font-family="Times,serif" font-size="10.00" fill="#000000">foaf:homepage</text>
</a>
</g>
<text text-anchor="start" x="110.5" y="-543.5" font-family="Times,serif" font-size="10.00" fill="#000000">http://poli.usp.br/</text>
<g id="a_node20_37"><a xlink:href="http://xmlns.com/foaf/0.1/name" xlink:title="&lt;TABLE&gt;">
<text text-anchor="start" x="10.5" y="-530.5" font-family="Times,serif" font-size="10.00" fill="#000000">foaf:name</text>
</a>
</g>
<text text-anchor="start" x="110.5" y="-530.5" font-family="Times,serif" font-size="10.00" fill="#000000">Escola Politecnica da USP</text>
</g>
<!-- ann10&#45;&gt;n10 -->
<g id="edge10" class="edge">
<title>ann10&#45;&gt;n10</title>
<path fill="none" stroke="#c0c0c0" stroke-dasharray="5,2" d="M381.0771,-595.8684C383.9021,-596.2587 386.7111,-596.6363 389.5,-597 646.1741,-630.4738 955.0578,-645.0691 1081.8455,-649.9644"/>
</g>
<!-- n11 -->
<g id="node21" class="node">
<title>n11</title>
<g id="a_node21"><a xlink:href="http://bioprov.org/input_params/interval" xlink:title="bioprov:input_params/interval">
<ellipse fill="#fffc87" stroke="#808080" cx="969.5" cy="-559.5" rx="151.3732" ry="18"/>
<text text-anchor="middle" x="969.5" y="-555.8" font-family="Times,serif" font-size="14.00" fill="#000000">bioprov:input_params/interval</text>
</a>
</g>
</g>
<!-- ann11 -->
<g id="node22" class="node">
<title>ann11</title>
<polygon fill="none" stroke="#c0c0c0" points="985,-475 640,-475 640,-413 991,-413 991,-469 985,-475"/>
<polyline fill="none" stroke="#c0c0c0" points="985,-475 985,-469 "/>
<polyline fill="none" stroke="#c0c0c0" points="991,-469 985,-469 "/>
<g id="a_node22_38"><a xlink:href="http://purl.org/dc/terms/created" xlink:title="&lt;TABLE&gt;">
<text text-anchor="start" x="650.5" y="-461" font-family="Times,serif" font-size="10.00" fill="#000000">dcterms:created</text>
</a>
</g>
<text text-anchor="start" x="750.5" y="-461" font-family="Times,serif" font-size="10.00" fill="#000000">2022&#45;03&#45;03 20:51:20</text>
<g id="a_node22_39"><a xlink:href="http://purl.org/dc/terms/description" xlink:title="&lt;TABLE&gt;">
<text text-anchor="start" x="650.5" y="-448" font-family="Times,serif" font-size="10.00" fill="#000000">dcterms:description</text>
</a>
</g>
<text text-anchor="start" x="750.5" y="-448" font-family="Times,serif" font-size="10.00" fill="#000000">Parameter of data capture interval, in minutes.</text>
<g id="a_node22_40"><a xlink:href="http://purl.org/dc/terms/type" xlink:title="&lt;TABLE&gt;">
<text text-anchor="start" x="650.5" y="-435" font-family="Times,serif" font-size="10.00" fill="#000000">dcterms:type</text>
</a>
</g>
<text text-anchor="start" x="750.5" y="-435" font-family="Times,serif" font-size="10.00" fill="#000000">InputParams</text>
<g id="a_node22_41"><a xlink:href="http://www.w3.org/1999/02/22-rdf-syntax-ns#value" xlink:title="&lt;TABLE&gt;">
<text text-anchor="start" x="650.5" y="-422" font-family="Times,serif" font-size="10.00" fill="#000000">rdf:value</text>
</a>
</g>
<text text-anchor="start" x="750.5" y="-422" font-family="Times,serif" font-size="10.00" fill="#000000">60</text>
</g>
<!-- ann11&#45;&gt;n11 -->
<g id="edge11" class="edge">
<title>ann11&#45;&gt;n11</title>
<path fill="none" stroke="#c0c0c0" stroke-dasharray="5,2" d="M857.1746,-475.256C885.5013,-496.501 921.9713,-523.8535 945.5418,-541.5314"/>
</g>
<!-- n12&#45;&gt;n5 -->
<g id="edge18" class="edge">
<title>n12&#45;&gt;n5</title>
<path fill="none" stroke="#8b0000" d="M1042.9773,-462.0503C1028.9392,-466.575 1013.7164,-471.2141 999.5,-475 898.2088,-501.9747 780.6648,-525.9483 699.3299,-541.4061"/>
<polygon fill="#8b0000" stroke="#8b0000" points="698.2716,-538.0442 689.0967,-543.3424 699.573,-544.9221 698.2716,-538.0442"/>
<text text-anchor="middle" x="936.5" y="-496" font-family="Times,serif" font-size="10.00" fill="#ff0000">used</text>
</g>
<!-- n12&#45;&gt;n11 -->
<g id="edge16" class="edge">
<title>n12&#45;&gt;n11</title>
<path fill="none" stroke="#8b0000" d="M1075.8125,-462.0469C1054.5455,-481.5417 1020.5155,-512.7358 996.7007,-534.566"/>
<polygon fill="#8b0000" stroke="#8b0000" points="994.0558,-532.2425 989.0493,-541.5799 998.7859,-537.4026 994.0558,-532.2425"/>
<text text-anchor="middle" x="1052.5" y="-496" font-family="Times,serif" font-size="10.00" fill="#ff0000">used</text>
</g>
<!-- b2 -->
<g id="node26" class="node">
<title>b2</title>
<ellipse fill="#c0c0c0" stroke="#c0c0c0" cx="1140.5" cy="-559.5" rx="1.8" ry="1.8"/>
</g>
<!-- n12&#45;&gt;b2 -->
<g id="edge22" class="edge">
<title>n12&#45;&gt;b2</title>
<path fill="none" stroke="#fed37f" d="M1091.2796,-462.1067C1089.3591,-474.7462 1088.9504,-491.5205 1096.5,-504 1105.1475,-518.2944 1119.0159,-508.9925 1129.5,-522 1138.5263,-533.1989 1140.1465,-551.5668 1140.4368,-557.5499"/>
<text text-anchor="middle" x="1144.5" y="-496" font-family="Times,serif" font-size="10.00" fill="#000000">wasAssociatedWith</text>
</g>
<!-- ann12 -->
<g id="node24" class="node">
<title>ann12</title>
<polygon fill="none" stroke="#c0c0c0" points="1105.5,-359.5 819.5,-359.5 819.5,-310.5 1111.5,-310.5 1111.5,-353.5 1105.5,-359.5"/>
<polyline fill="none" stroke="#c0c0c0" points="1105.5,-359.5 1105.5,-353.5 "/>
<polyline fill="none" stroke="#c0c0c0" points="1111.5,-353.5 1105.5,-353.5 "/>
<g id="a_node24_42"><a xlink:href="http://purl.org/dc/terms/created" xlink:title="&lt;TABLE&gt;">
<text text-anchor="start" x="829.5" y="-345" font-family="Times,serif" font-size="10.00" fill="#000000">dcterms:created</text>
</a>
</g>
<text text-anchor="start" x="912.5" y="-345" font-family="Times,serif" font-size="10.00" fill="#000000">2022&#45;03&#45;03 20:51:27</text>
<g id="a_node24_43"><a xlink:href="http://purl.org/dc/terms/title" xlink:title="&lt;TABLE&gt;">
<text text-anchor="start" x="829.5" y="-332" font-family="Times,serif" font-size="10.00" fill="#000000">dcterms:title</text>
</a>
</g>
<text text-anchor="start" x="912.5" y="-332" font-family="Times,serif" font-size="10.00" fill="#000000">Environment Data Capture by Sensors</text>
<g id="a_node24_44"><a xlink:href="http://purl.org/dc/terms/type" xlink:title="&lt;TABLE&gt;">
<text text-anchor="start" x="829.5" y="-319" font-family="Times,serif" font-size="10.00" fill="#000000">dcterms:type</text>
</a>
</g>
<text text-anchor="start" x="912.5" y="-319" font-family="Times,serif" font-size="10.00" fill="#000000">DataCapturing</text>
</g>
<!-- ann12&#45;&gt;n12 -->
<g id="edge12" class="edge">
<title>ann12&#45;&gt;n12</title>
<path fill="none" stroke="#c0c0c0" stroke-dasharray="5,2" d="M994.999,-359.7338C1018.9712,-379.8335 1052.2363,-407.7251 1073.8141,-425.8172"/>
</g>
<!-- b1&#45;&gt;n2 -->
<g id="edge21" class="edge">
<title>b1&#45;&gt;n2</title>
<path fill="none" stroke="#fed37f" d="M1612.5207,-337.0989C1612.7026,-342.8259 1614.0715,-358.7752 1623.5,-366 1692.6471,-418.985 2264.6672,-436.7947 2511.1764,-442.0461"/>
<polygon fill="#fed37f" stroke="#fed37f" points="2511.1662,-445.5465 2521.2375,-442.2572 2511.3132,-438.5481 2511.1662,-445.5465"/>
</g>
<!-- b2&#45;&gt;n10 -->
<g id="edge23" class="edge">
<title>b2&#45;&gt;n10</title>
<path fill="none" stroke="#fed37f" d="M1140.5,-561.432C1140.5,-569.7564 1140.5,-603.2157 1140.5,-627.0378"/>
<polygon fill="#fed37f" stroke="#fed37f" points="1137.0001,-627.1799 1140.5,-637.18 1144.0001,-627.18 1137.0001,-627.1799"/>
</g>
</g>
</svg>
