<?xml version="1.0" encoding="UTF-8" standalone="no"?>
<!DOCTYPE svg PUBLIC "-//W3C//DTD SVG 1.1//EN"
 "http://www.w3.org/Graphics/SVG/1.1/DTD/svg11.dtd">
<!-- Generated by graphviz version 2.40.1 (20161225.0304)
 -->
<!-- Title: G Pages: 1 -->
<svg width="2752pt" height="678pt"
 viewBox="0.00 0.00 2751.50 678.00" xmlns="http://www.w3.org/2000/svg" xmlns:xlink="http://www.w3.org/1999/xlink">
<g id="graph0" class="graph" transform="scale(1 1) rotate(0) translate(4 674)">
<title>G</title>
<polygon fill="#ffffff" stroke="transparent" points="-4,4 -4,-674 2747.5,-674 2747.5,4 -4,4"/>
<!-- n1 -->
<g id="node1" class="node">
<title>n1</title>
<g id="a_node1"><a xlink:href="http://ib.usp.br/ecologia" xlink:title="ib_usp:ecologia">
<polygon fill="#fed37f" stroke="#000000" points="587.5567,-449.5623 485.5,-462 383.4433,-449.5623 383.5385,-429.4377 587.4615,-429.4377 587.5567,-449.5623"/>
<text text-anchor="middle" x="485.5" y="-440.3" font-family="Times,serif" font-size="14.00" fill="#000000">ib_usp:ecologia</text>
</a>
</g>
</g>
<!-- ann1 -->
<g id="node2" class="node">
<title>ann1</title>
<polygon fill="none" stroke="#c0c0c0" points="451,-366 0,-366 0,-304 457,-304 457,-360 451,-366"/>
<polyline fill="none" stroke="#c0c0c0" points="451,-366 451,-360 "/>
<polyline fill="none" stroke="#c0c0c0" points="457,-360 451,-360 "/>
<g id="a_node2_0"><a xlink:href="http://purl.org/dc/terms/created" xlink:title="&lt;TABLE&gt;">
<text text-anchor="start" x="10.5" y="-352" font-family="Times,serif" font-size="10.00" fill="#000000">dcterms:created</text>
</a>
</g>
<text text-anchor="start" x="110.5" y="-352" font-family="Times,serif" font-size="10.00" fill="#000000">2021&#45;02&#45;23 07:37:10</text>
<g id="a_node2_1"><a xlink:href="http://purl.org/dc/terms/description" xlink:title="&lt;TABLE&gt;">
<text text-anchor="start" x="10.5" y="-339" font-family="Times,serif" font-size="10.00" fill="#000000">dcterms:description</text>
</a>
</g>
<text text-anchor="start" x="110.5" y="-339" font-family="Times,serif" font-size="10.00" fill="#000000">Ecology Department &#45; Bioscience Instituty of University of Sao Paulo</text>
<g id="a_node2_2"><a xlink:href="http://xmlns.com/foaf/0.1/homepage" xlink:title="&lt;TABLE&gt;">
<text text-anchor="start" x="10.5" y="-326" font-family="Times,serif" font-size="10.00" fill="#000000">foaf:homepage</text>
</a>
</g>
<text text-anchor="start" x="110.5" y="-326" font-family="Times,serif" font-size="10.00" fill="#000000">http://ib.usp.br/ecologia</text>
<g id="a_node2_3"><a xlink:href="http://xmlns.com/foaf/0.1/name" xlink:title="&lt;TABLE&gt;">
<text text-anchor="start" x="10.5" y="-313" font-family="Times,serif" font-size="10.00" fill="#000000">foaf:name</text>
</a>
</g>
<text text-anchor="start" x="110.5" y="-313" font-family="Times,serif" font-size="10.00" fill="#000000">Departamento de Ecologia do Instituto de Biociencias da USP</text>
</g>
<!-- ann1&#45;&gt;n1 -->
<g id="edge1" class="edge">
<title>ann1&#45;&gt;n1</title>
<path fill="none" stroke="#c0c0c0" stroke-dasharray="5,2" d="M301.8019,-366.0892C350.762,-386.8543 412.9214,-413.2176 450.9264,-429.3365"/>
</g>
<!-- n2 -->
<g id="node3" class="node">
<title>n2</title>
<g id="a_node3"><a xlink:href="http://ib.usp.br/activities/processing" xlink:title="ib_usp:activities/processing">
<polygon fill="#9fb1fc" stroke="#0000ff" points="1856.5,-244 1640.5,-244 1640.5,-208 1856.5,-208 1856.5,-244"/>
<text text-anchor="middle" x="1748.5" y="-222.3" font-family="Times,serif" font-size="14.00" fill="#000000">ib_usp:activities/processing</text>
</a>
</g>
</g>
<!-- n3 -->
<g id="node5" class="node">
<title>n3</title>
<g id="a_node5"><a xlink:href="http://bioprov.org/input_params/validateRanges" xlink:title="bioprov:input_params/validateRanges">
<ellipse fill="#fffc87" stroke="#808080" cx="747.5" cy="-335" rx="186.5669" ry="18"/>
<text text-anchor="middle" x="747.5" y="-331.3" font-family="Times,serif" font-size="14.00" fill="#000000">bioprov:input_params/validateRanges</text>
</a>
</g>
</g>
<!-- n2&#45;&gt;n3 -->
<g id="edge16" class="edge">
<title>n2&#45;&gt;n3</title>
<path fill="none" stroke="#8b0000" d="M1689.1557,-244.0754C1670.8276,-249.0197 1650.4711,-253.872 1631.5,-257 1515.0235,-276.205 1484.2629,-266.7843 1366.5,-275 1186.4767,-287.5592 1140.9158,-284.6071 961.5,-304 926.3411,-307.8003 888.0808,-313.0013 853.7621,-318.0576"/>
<polygon fill="#8b0000" stroke="#8b0000" points="853.0982,-314.6177 843.7211,-319.5493 854.1269,-321.5418 853.0982,-314.6177"/>
<text text-anchor="middle" x="1378.5" y="-278" font-family="Times,serif" font-size="10.00" fill="#ff0000">used</text>
</g>
<!-- n5 -->
<g id="node9" class="node">
<title>n5</title>
<g id="a_node9"><a xlink:href="http://bioprov.org/input_params/acceptErrors" xlink:title="bioprov:input_params/acceptErrors">
<ellipse fill="#fffc87" stroke="#808080" cx="1434.5" cy="-335" rx="176.5689" ry="18"/>
<text text-anchor="middle" x="1434.5" y="-331.3" font-family="Times,serif" font-size="14.00" fill="#000000">bioprov:input_params/acceptErrors</text>
</a>
</g>
</g>
<!-- n2&#45;&gt;n5 -->
<g id="edge19" class="edge">
<title>n2&#45;&gt;n5</title>
<path fill="none" stroke="#8b0000" d="M1696.2968,-244.1215C1640.5442,-263.4751 1552.3434,-294.0926 1493.9547,-314.3613"/>
<polygon fill="#8b0000" stroke="#8b0000" points="1492.7903,-311.0605 1484.4911,-317.6464 1495.0859,-317.6734 1492.7903,-311.0605"/>
<text text-anchor="middle" x="1612.5" y="-278" font-family="Times,serif" font-size="10.00" fill="#ff0000">used</text>
</g>
<!-- n10 -->
<g id="node19" class="node">
<title>n10</title>
<g id="a_node19"><a xlink:href="http://poli.usp.br/datascience/algol/10" xlink:title="poli:datascience/algol/10">
<ellipse fill="#fffc87" stroke="#808080" cx="1096.5" cy="-335" rx="126.1777" ry="18"/>
<text text-anchor="middle" x="1096.5" y="-331.3" font-family="Times,serif" font-size="14.00" fill="#000000">poli:datascience/algol/10</text>
</a>
</g>
</g>
<!-- n2&#45;&gt;n10 -->
<g id="edge18" class="edge">
<title>n2&#45;&gt;n10</title>
<path fill="none" stroke="#8b0000" d="M1686.9296,-244.004C1669.1564,-248.74 1649.6571,-253.4976 1631.5,-257 1463.1051,-289.4827 1417.7634,-276.3983 1248.5,-304 1224.5439,-307.9065 1198.6164,-312.9046 1175.0748,-317.7415"/>
<polygon fill="#8b0000" stroke="#8b0000" points="1174.2252,-314.3431 1165.1443,-319.8009 1175.6467,-321.1972 1174.2252,-314.3431"/>
<text text-anchor="middle" x="1525.5" y="-278" font-family="Times,serif" font-size="10.00" fill="#ff0000">used</text>
</g>
<!-- n11 -->
<g id="node21" class="node">
<title>n11</title>
<g id="a_node21"><a xlink:href="http://tools.com/software/xyz" xlink:title="tools.com:software/xyz">
<ellipse fill="#fffc87" stroke="#808080" cx="1768.5" cy="-335" rx="117.7793" ry="18"/>
<text text-anchor="middle" x="1768.5" y="-331.3" font-family="Times,serif" font-size="14.00" fill="#000000">tools.com:software/xyz</text>
</a>
</g>
</g>
<!-- n2&#45;&gt;n11 -->
<g id="edge15" class="edge">
<title>n2&#45;&gt;n11</title>
<path fill="none" stroke="#8b0000" d="M1751.8927,-244.4904C1755.0291,-261.5835 1759.735,-287.2307 1763.3375,-306.8642"/>
<polygon fill="#8b0000" stroke="#8b0000" points="1759.91,-307.5786 1765.1574,-316.7827 1766.7951,-306.3152 1759.91,-307.5786"/>
<text text-anchor="middle" x="1770.5" y="-278" font-family="Times,serif" font-size="10.00" fill="#ff0000">used</text>
</g>
<!-- n12 -->
<g id="node23" class="node">
<title>n12</title>
<g id="a_node23"><a xlink:href="http://poli.usp.br/datasets/30" xlink:title="poli:datasets/30">
<ellipse fill="#fffc87" stroke="#808080" cx="2299.5" cy="-335" rx="85.2851" ry="18"/>
<text text-anchor="middle" x="2299.5" y="-331.3" font-family="Times,serif" font-size="14.00" fill="#000000">poli:datasets/30</text>
</a>
</g>
</g>
<!-- n2&#45;&gt;n12 -->
<g id="edge13" class="edge">
<title>n2&#45;&gt;n12</title>
<path fill="none" stroke="#8b0000" d="M1811.5594,-244.0497C1829.2367,-248.704 1848.5338,-253.4079 1866.5,-257 2015.6558,-286.8219 2057.3342,-269.5954 2205.5,-304 2219.3735,-307.2215 2234.1168,-311.6064 2247.7124,-316.0638"/>
<polygon fill="#8b0000" stroke="#8b0000" points="2246.7865,-319.4448 2257.3805,-319.3067 2249.0126,-312.8082 2246.7865,-319.4448"/>
<text text-anchor="middle" x="2119.5" y="-278" font-family="Times,serif" font-size="10.00" fill="#ff0000">used</text>
</g>
<!-- b1 -->
<g id="node25" class="node">
<title>b1</title>
<ellipse fill="#c0c0c0" stroke="#c0c0c0" cx="1631.5" cy="-335" rx="1.8" ry="1.8"/>
</g>
<!-- n2&#45;&gt;b1 -->
<g id="edge20" class="edge">
<title>n2&#45;&gt;b1</title>
<path fill="none" stroke="#fed37f" d="M1702.9823,-244.1158C1687.2616,-251.9346 1670.3801,-262.2509 1657.5,-275 1639.7494,-292.57 1633.306,-324.2531 1631.8448,-332.8165"/>
<text text-anchor="middle" x="1705.5" y="-278" font-family="Times,serif" font-size="10.00" fill="#000000">wasAssociatedWith</text>
</g>
<!-- ann2 -->
<g id="node4" class="node">
<title>ann2</title>
<polygon fill="none" stroke="#c0c0c0" points="1917.5,-148 1573.5,-148 1573.5,-99 1923.5,-99 1923.5,-142 1917.5,-148"/>
<polyline fill="none" stroke="#c0c0c0" points="1917.5,-148 1917.5,-142 "/>
<polyline fill="none" stroke="#c0c0c0" points="1923.5,-142 1917.5,-142 "/>
<g id="a_node4_4"><a xlink:href="http://purl.org/dc/terms/created" xlink:title="&lt;TABLE&gt;">
<text text-anchor="start" x="1583.5" y="-133.5" font-family="Times,serif" font-size="10.00" fill="#000000">dcterms:created</text>
</a>
</g>
<text text-anchor="start" x="1666.5" y="-133.5" font-family="Times,serif" font-size="10.00" fill="#000000">2021&#45;02&#45;23 07:37:11</text>
<g id="a_node4_5"><a xlink:href="http://purl.org/dc/terms/title" xlink:title="&lt;TABLE&gt;">
<text text-anchor="start" x="1583.5" y="-120.5" font-family="Times,serif" font-size="10.00" fill="#000000">dcterms:title</text>
</a>
</g>
<text text-anchor="start" x="1666.5" y="-120.5" font-family="Times,serif" font-size="10.00" fill="#000000">Environment Data Processing using Software Tool</text>
<g id="a_node4_6"><a xlink:href="http://purl.org/dc/terms/type" xlink:title="&lt;TABLE&gt;">
<text text-anchor="start" x="1583.5" y="-107.5" font-family="Times,serif" font-size="10.00" fill="#000000">dcterms:type</text>
</a>
</g>
<text text-anchor="start" x="1666.5" y="-107.5" font-family="Times,serif" font-size="10.00" fill="#000000">DataProcessing</text>
</g>
<!-- ann2&#45;&gt;n2 -->
<g id="edge2" class="edge">
<title>ann2&#45;&gt;n2</title>
<path fill="none" stroke="#c0c0c0" stroke-dasharray="5,2" d="M1748.5,-148.0513C1748.5,-166.4114 1748.5,-191.1139 1748.5,-207.748"/>
</g>
<!-- ann3 -->
<g id="node6" class="node">
<title>ann3</title>
<polygon fill="none" stroke="#c0c0c0" points="905.5,-257 513.5,-257 513.5,-195 911.5,-195 911.5,-251 905.5,-257"/>
<polyline fill="none" stroke="#c0c0c0" points="905.5,-257 905.5,-251 "/>
<polyline fill="none" stroke="#c0c0c0" points="911.5,-251 905.5,-251 "/>
<g id="a_node6_7"><a xlink:href="http://purl.org/dc/terms/created" xlink:title="&lt;TABLE&gt;">
<text text-anchor="start" x="523.5" y="-243" font-family="Times,serif" font-size="10.00" fill="#000000">dcterms:created</text>
</a>
</g>
<text text-anchor="start" x="623.5" y="-243" font-family="Times,serif" font-size="10.00" fill="#000000">2021&#45;02&#45;23 07:37:11</text>
<g id="a_node6_8"><a xlink:href="http://purl.org/dc/terms/description" xlink:title="&lt;TABLE&gt;">
<text text-anchor="start" x="523.5" y="-230" font-family="Times,serif" font-size="10.00" fill="#000000">dcterms:description</text>
</a>
</g>
<text text-anchor="start" x="623.5" y="-230" font-family="Times,serif" font-size="10.00" fill="#000000">Set wether the validation of data ranges are considered.</text>
<g id="a_node6_9"><a xlink:href="http://purl.org/dc/terms/type" xlink:title="&lt;TABLE&gt;">
<text text-anchor="start" x="523.5" y="-217" font-family="Times,serif" font-size="10.00" fill="#000000">dcterms:type</text>
</a>
</g>
<text text-anchor="start" x="623.5" y="-217" font-family="Times,serif" font-size="10.00" fill="#000000">InputParams</text>
<g id="a_node6_10"><a xlink:href="http://www.w3.org/1999/02/22-rdf-syntax-ns#value" xlink:title="&lt;TABLE&gt;">
<text text-anchor="start" x="523.5" y="-204" font-family="Times,serif" font-size="10.00" fill="#000000">rdf:value</text>
</a>
</g>
<text text-anchor="start" x="623.5" y="-204" font-family="Times,serif" font-size="10.00" fill="#000000">TRUE</text>
</g>
<!-- ann3&#45;&gt;n3 -->
<g id="edge3" class="edge">
<title>ann3&#45;&gt;n3</title>
<path fill="none" stroke="#c0c0c0" stroke-dasharray="5,2" d="M722.5296,-257.235C728.7108,-276.4851 736.4228,-300.5024 741.6279,-316.7127"/>
</g>
<!-- n4 -->
<g id="node7" class="node">
<title>n4</title>
<g id="a_node7"><a xlink:href="http://ib.usp.br/data_products/150" xlink:title="ib_usp:data_products/150">
<ellipse fill="#fffc87" stroke="#808080" cx="955.5" cy="-123.5" rx="131.077" ry="18"/>
<text text-anchor="middle" x="955.5" y="-119.8" font-family="Times,serif" font-size="14.00" fill="#000000">ib_usp:data_products/150</text>
</a>
</g>
</g>
<!-- n4&#45;&gt;n1 -->
<g id="edge25" class="edge">
<title>n4&#45;&gt;n1</title>
<path fill="none" stroke="#fed37f" d="M846.9544,-133.6725C720.984,-146.5523 527.4735,-170.0842 504.5,-195 474.9503,-227.048 480.1006,-362.3915 483.6692,-418.9735"/>
<polygon fill="#fed37f" stroke="#fed37f" points="480.1926,-419.4413 484.3511,-429.1859 487.177,-418.9749 480.1926,-419.4413"/>
<text text-anchor="middle" x="524.5" y="-278" font-family="Times,serif" font-size="10.00" fill="#000000">wasAttributedTo</text>
</g>
<!-- n4&#45;&gt;n2 -->
<g id="edge27" class="edge">
<title>n4&#45;&gt;n2</title>
<path fill="none" stroke="#006400" d="M1076.2758,-130.6576C1212.1367,-140.0081 1438.9814,-159.5314 1631.5,-195 1646.5875,-197.7796 1662.5853,-201.4951 1677.747,-205.3866"/>
<polygon fill="#006400" stroke="#006400" points="1677.0112,-208.8119 1687.5718,-207.9612 1678.7857,-202.0405 1677.0112,-208.8119"/>
<text text-anchor="middle" x="1564" y="-169" font-family="Times,serif" font-size="10.00" fill="#006400">wasGeneratedBy</text>
</g>
<!-- ann4 -->
<g id="node8" class="node">
<title>ann4</title>
<polygon fill="none" stroke="#c0c0c0" points="1104,-62 801,-62 801,0 1110,0 1110,-56 1104,-62"/>
<polyline fill="none" stroke="#c0c0c0" points="1104,-62 1104,-56 "/>
<polyline fill="none" stroke="#c0c0c0" points="1110,-56 1104,-56 "/>
<g id="a_node8_11"><a xlink:href="http://purl.org/dc/terms/created" xlink:title="&lt;TABLE&gt;">
<text text-anchor="start" x="811.5" y="-48" font-family="Times,serif" font-size="10.00" fill="#000000">dcterms:created</text>
</a>
</g>
<text text-anchor="start" x="894.5" y="-48" font-family="Times,serif" font-size="10.00" fill="#000000">2021&#45;02&#45;23 07:37:11</text>
<g id="a_node8_12"><a xlink:href="http://purl.org/dc/terms/source" xlink:title="&lt;TABLE&gt;">
<text text-anchor="start" x="811.5" y="-35" font-family="Times,serif" font-size="10.00" fill="#000000">dcterms:source</text>
</a>
</g>
<text text-anchor="start" x="894.5" y="-35" font-family="Times,serif" font-size="10.00" fill="#000000">http://ib.usp.br/data_products/150</text>
<g id="a_node8_13"><a xlink:href="http://purl.org/dc/terms/title" xlink:title="&lt;TABLE&gt;">
<text text-anchor="start" x="811.5" y="-22" font-family="Times,serif" font-size="10.00" fill="#000000">dcterms:title</text>
</a>
</g>
<text text-anchor="start" x="894.5" y="-22" font-family="Times,serif" font-size="10.00" fill="#000000">Environmental Monitoring Published Data</text>
<g id="a_node8_14"><a xlink:href="http://purl.org/dc/terms/type" xlink:title="&lt;TABLE&gt;">
<text text-anchor="start" x="811.5" y="-9" font-family="Times,serif" font-size="10.00" fill="#000000">dcterms:type</text>
</a>
</g>
<text text-anchor="start" x="894.5" y="-9" font-family="Times,serif" font-size="10.00" fill="#000000">Processed Dataset</text>
</g>
<!-- ann4&#45;&gt;n4 -->
<g id="edge4" class="edge">
<title>ann4&#45;&gt;n4</title>
<path fill="none" stroke="#c0c0c0" stroke-dasharray="5,2" d="M955.5,-62.0585C955.5,-76.4393 955.5,-93.0245 955.5,-105.3362"/>
</g>
<!-- ann5 -->
<g id="node10" class="node">
<title>ann5</title>
<polygon fill="none" stroke="#c0c0c0" points="1616,-257 1247,-257 1247,-195 1622,-195 1622,-251 1616,-257"/>
<polyline fill="none" stroke="#c0c0c0" points="1616,-257 1616,-251 "/>
<polyline fill="none" stroke="#c0c0c0" points="1622,-251 1616,-251 "/>
<g id="a_node10_15"><a xlink:href="http://purl.org/dc/terms/created" xlink:title="&lt;TABLE&gt;">
<text text-anchor="start" x="1257.5" y="-243" font-family="Times,serif" font-size="10.00" fill="#000000">dcterms:created</text>
</a>
</g>
<text text-anchor="start" x="1357.5" y="-243" font-family="Times,serif" font-size="10.00" fill="#000000">2021&#45;02&#45;23 07:37:11</text>
<g id="a_node10_16"><a xlink:href="http://purl.org/dc/terms/description" xlink:title="&lt;TABLE&gt;">
<text text-anchor="start" x="1257.5" y="-230" font-family="Times,serif" font-size="10.00" fill="#000000">dcterms:description</text>
</a>
</g>
<text text-anchor="start" x="1357.5" y="-230" font-family="Times,serif" font-size="10.00" fill="#000000">Set whether the errors are discarded or maintained</text>
<g id="a_node10_17"><a xlink:href="http://purl.org/dc/terms/type" xlink:title="&lt;TABLE&gt;">
<text text-anchor="start" x="1257.5" y="-217" font-family="Times,serif" font-size="10.00" fill="#000000">dcterms:type</text>
</a>
</g>
<text text-anchor="start" x="1357.5" y="-217" font-family="Times,serif" font-size="10.00" fill="#000000">InputParams</text>
<g id="a_node10_18"><a xlink:href="http://www.w3.org/1999/02/22-rdf-syntax-ns#value" xlink:title="&lt;TABLE&gt;">
<text text-anchor="start" x="1257.5" y="-204" font-family="Times,serif" font-size="10.00" fill="#000000">rdf:value</text>
</a>
</g>
<text text-anchor="start" x="1357.5" y="-204" font-family="Times,serif" font-size="10.00" fill="#000000">FALSE</text>
</g>
<!-- ann5&#45;&gt;n5 -->
<g id="edge5" class="edge">
<title>ann5&#45;&gt;n5</title>
<path fill="none" stroke="#c0c0c0" stroke-dasharray="5,2" d="M1434.5,-257.235C1434.5,-276.4851 1434.5,-300.5024 1434.5,-316.7127"/>
</g>
<!-- n6 -->
<g id="node11" class="node">
<title>n6</title>
<g id="a_node11"><a xlink:href="http://poli.usp.br/activities/capture" xlink:title="poli:activities/capture">
<polygon fill="#9fb1fc" stroke="#0000ff" points="2137,-462 1964,-462 1964,-426 2137,-426 2137,-462"/>
<text text-anchor="middle" x="2050.5" y="-440.3" font-family="Times,serif" font-size="14.00" fill="#000000">poli:activities/capture</text>
</a>
</g>
</g>
<!-- n7 -->
<g id="node13" class="node">
<title>n7</title>
<g id="a_node13"><a xlink:href="http://sensor.com/environmentalsensor/env200" xlink:title="sensor.com:environmentalsensor/env200">
<ellipse fill="#fffc87" stroke="#808080" cx="1671.5" cy="-559.5" rx="200.6645" ry="18"/>
<text text-anchor="middle" x="1671.5" y="-555.8" font-family="Times,serif" font-size="14.00" fill="#000000">sensor.com:environmentalsensor/env200</text>
</a>
</g>
</g>
<!-- n6&#45;&gt;n7 -->
<g id="edge17" class="edge">
<title>n6&#45;&gt;n7</title>
<path fill="none" stroke="#8b0000" d="M1991.2813,-462.0469C1922.6819,-482.9525 1809.9349,-517.312 1738.2751,-539.1503"/>
<polygon fill="#8b0000" stroke="#8b0000" points="1736.9905,-535.8828 1728.4452,-542.146 1739.0312,-542.5788 1736.9905,-535.8828"/>
<text text-anchor="middle" x="1895.5" y="-496" font-family="Times,serif" font-size="10.00" fill="#ff0000">used</text>
</g>
<!-- n8 -->
<g id="node15" class="node">
<title>n8</title>
<g id="a_node15"><a xlink:href="http://bioprov.org/input_params/interval" xlink:title="bioprov:input_params/interval">
<ellipse fill="#fffc87" stroke="#808080" cx="2462.5" cy="-559.5" rx="151.3732" ry="18"/>
<text text-anchor="middle" x="2462.5" y="-555.8" font-family="Times,serif" font-size="14.00" fill="#000000">bioprov:input_params/interval</text>
</a>
</g>
</g>
<!-- n6&#45;&gt;n8 -->
<g id="edge14" class="edge">
<title>n6&#45;&gt;n8</title>
<path fill="none" stroke="#8b0000" d="M2114.875,-462.0469C2190.6205,-483.2813 2315.8795,-518.3964 2393.5536,-540.1716"/>
<polygon fill="#8b0000" stroke="#8b0000" points="2392.6776,-543.5609 2403.2512,-542.8902 2394.5672,-536.8207 2392.6776,-543.5609"/>
<text text-anchor="middle" x="2268.5" y="-496" font-family="Times,serif" font-size="10.00" fill="#ff0000">used</text>
</g>
<!-- b2 -->
<g id="node26" class="node">
<title>b2</title>
<ellipse fill="#c0c0c0" stroke="#c0c0c0" cx="1892.5" cy="-559.5" rx="1.8" ry="1.8"/>
</g>
<!-- n6&#45;&gt;b2 -->
<g id="edge22" class="edge">
<title>n6&#45;&gt;b2</title>
<path fill="none" stroke="#fed37f" d="M1993.0761,-462.0897C1962.4769,-474.4532 1926.5069,-493.7894 1903.5,-522 1894.4094,-533.1467 1892.8314,-551.5489 1892.5575,-557.5453"/>
<text text-anchor="middle" x="1980.5" y="-496" font-family="Times,serif" font-size="10.00" fill="#000000">wasAssociatedWith</text>
</g>
<!-- ann6 -->
<g id="node12" class="node">
<title>ann6</title>
<polygon fill="none" stroke="#c0c0c0" points="2190.5,-359.5 1904.5,-359.5 1904.5,-310.5 2196.5,-310.5 2196.5,-353.5 2190.5,-359.5"/>
<polyline fill="none" stroke="#c0c0c0" points="2190.5,-359.5 2190.5,-353.5 "/>
<polyline fill="none" stroke="#c0c0c0" points="2196.5,-353.5 2190.5,-353.5 "/>
<g id="a_node12_19"><a xlink:href="http://purl.org/dc/terms/created" xlink:title="&lt;TABLE&gt;">
<text text-anchor="start" x="1914.5" y="-345" font-family="Times,serif" font-size="10.00" fill="#000000">dcterms:created</text>
</a>
</g>
<text text-anchor="start" x="1997.5" y="-345" font-family="Times,serif" font-size="10.00" fill="#000000">2021&#45;02&#45;23 07:37:10</text>
<g id="a_node12_20"><a xlink:href="http://purl.org/dc/terms/title" xlink:title="&lt;TABLE&gt;">
<text text-anchor="start" x="1914.5" y="-332" font-family="Times,serif" font-size="10.00" fill="#000000">dcterms:title</text>
</a>
</g>
<text text-anchor="start" x="1997.5" y="-332" font-family="Times,serif" font-size="10.00" fill="#000000">Environment Data Capture by Sensors</text>
<g id="a_node12_21"><a xlink:href="http://purl.org/dc/terms/type" xlink:title="&lt;TABLE&gt;">
<text text-anchor="start" x="1914.5" y="-319" font-family="Times,serif" font-size="10.00" fill="#000000">dcterms:type</text>
</a>
</g>
<text text-anchor="start" x="1997.5" y="-319" font-family="Times,serif" font-size="10.00" fill="#000000">DataCapturing</text>
</g>
<!-- ann6&#45;&gt;n6 -->
<g id="edge6" class="edge">
<title>ann6&#45;&gt;n6</title>
<path fill="none" stroke="#c0c0c0" stroke-dasharray="5,2" d="M2050.5,-359.7338C2050.5,-379.8335 2050.5,-407.7251 2050.5,-425.8172"/>
</g>
<!-- ann7 -->
<g id="node14" class="node">
<title>ann7</title>
<polygon fill="none" stroke="#c0c0c0" points="1831.5,-475 1505.5,-475 1505.5,-413 1837.5,-413 1837.5,-469 1831.5,-475"/>
<polyline fill="none" stroke="#c0c0c0" points="1831.5,-475 1831.5,-469 "/>
<polyline fill="none" stroke="#c0c0c0" points="1837.5,-469 1831.5,-469 "/>
<g id="a_node14_22"><a xlink:href="http://purl.org/dc/terms/created" xlink:title="&lt;TABLE&gt;">
<text text-anchor="start" x="1515.5" y="-461" font-family="Times,serif" font-size="10.00" fill="#000000">dcterms:created</text>
</a>
</g>
<text text-anchor="start" x="1598.5" y="-461" font-family="Times,serif" font-size="10.00" fill="#000000">2021&#45;02&#45;23 07:37:10</text>
<g id="a_node14_23"><a xlink:href="http://purl.org/dc/terms/source" xlink:title="&lt;TABLE&gt;">
<text text-anchor="start" x="1515.5" y="-448" font-family="Times,serif" font-size="10.00" fill="#000000">dcterms:source</text>
</a>
</g>
<text text-anchor="start" x="1598.5" y="-448" font-family="Times,serif" font-size="10.00" fill="#000000">http://sensor.com/environmentalsensor/env200</text>
<g id="a_node14_24"><a xlink:href="http://purl.org/dc/terms/title" xlink:title="&lt;TABLE&gt;">
<text text-anchor="start" x="1515.5" y="-435" font-family="Times,serif" font-size="10.00" fill="#000000">dcterms:title</text>
</a>
</g>
<text text-anchor="start" x="1598.5" y="-435" font-family="Times,serif" font-size="10.00" fill="#000000">Environmental Sensor Model ENV 200</text>
<g id="a_node14_25"><a xlink:href="http://purl.org/dc/terms/type" xlink:title="&lt;TABLE&gt;">
<text text-anchor="start" x="1515.5" y="-422" font-family="Times,serif" font-size="10.00" fill="#000000">dcterms:type</text>
</a>
</g>
<text text-anchor="start" x="1598.5" y="-422" font-family="Times,serif" font-size="10.00" fill="#000000">Sensor</text>
</g>
<!-- ann7&#45;&gt;n7 -->
<g id="edge7" class="edge">
<title>ann7&#45;&gt;n7</title>
<path fill="none" stroke="#c0c0c0" stroke-dasharray="5,2" d="M1671.5,-475.256C1671.5,-496.3674 1671.5,-523.5097 1671.5,-541.1967"/>
</g>
<!-- ann8 -->
<g id="node16" class="node">
<title>ann8</title>
<polygon fill="none" stroke="#c0c0c0" points="2607,-475 2262,-475 2262,-413 2613,-413 2613,-469 2607,-475"/>
<polyline fill="none" stroke="#c0c0c0" points="2607,-475 2607,-469 "/>
<polyline fill="none" stroke="#c0c0c0" points="2613,-469 2607,-469 "/>
<g id="a_node16_26"><a xlink:href="http://purl.org/dc/terms/created" xlink:title="&lt;TABLE&gt;">
<text text-anchor="start" x="2272.5" y="-461" font-family="Times,serif" font-size="10.00" fill="#000000">dcterms:created</text>
</a>
</g>
<text text-anchor="start" x="2372.5" y="-461" font-family="Times,serif" font-size="10.00" fill="#000000">2021&#45;02&#45;23 07:37:10</text>
<g id="a_node16_27"><a xlink:href="http://purl.org/dc/terms/description" xlink:title="&lt;TABLE&gt;">
<text text-anchor="start" x="2272.5" y="-448" font-family="Times,serif" font-size="10.00" fill="#000000">dcterms:description</text>
</a>
</g>
<text text-anchor="start" x="2372.5" y="-448" font-family="Times,serif" font-size="10.00" fill="#000000">Parameter of data capture interval, in minutes.</text>
<g id="a_node16_28"><a xlink:href="http://purl.org/dc/terms/type" xlink:title="&lt;TABLE&gt;">
<text text-anchor="start" x="2272.5" y="-435" font-family="Times,serif" font-size="10.00" fill="#000000">dcterms:type</text>
</a>
</g>
<text text-anchor="start" x="2372.5" y="-435" font-family="Times,serif" font-size="10.00" fill="#000000">InputParams</text>
<g id="a_node16_29"><a xlink:href="http://www.w3.org/1999/02/22-rdf-syntax-ns#value" xlink:title="&lt;TABLE&gt;">
<text text-anchor="start" x="2272.5" y="-422" font-family="Times,serif" font-size="10.00" fill="#000000">rdf:value</text>
</a>
</g>
<text text-anchor="start" x="2372.5" y="-422" font-family="Times,serif" font-size="10.00" fill="#000000">60</text>
</g>
<!-- ann8&#45;&gt;n8 -->
<g id="edge8" class="edge">
<title>ann8&#45;&gt;n8</title>
<path fill="none" stroke="#c0c0c0" stroke-dasharray="5,2" d="M2444.2654,-475.256C2448.8349,-496.3674 2454.7099,-523.5097 2458.5382,-541.1967"/>
</g>
<!-- n9 -->
<g id="node17" class="node">
<title>n9</title>
<g id="a_node17"><a xlink:href="http://usp.br/poli" xlink:title="usp:poli">
<polygon fill="#fed37f" stroke="#000000" points="2161.2928,-657.5623 2102.5,-670 2043.7072,-657.5623 2043.7621,-637.4377 2161.2379,-637.4377 2161.2928,-657.5623"/>
<text text-anchor="middle" x="2102.5" y="-648.3" font-family="Times,serif" font-size="14.00" fill="#000000">usp:poli</text>
</a>
</g>
</g>
<!-- ann9 -->
<g id="node18" class="node">
<title>ann9</title>
<polygon fill="none" stroke="#c0c0c0" points="2287,-597 1912,-597 1912,-522 2293,-522 2293,-591 2287,-597"/>
<polyline fill="none" stroke="#c0c0c0" points="2287,-597 2287,-591 "/>
<polyline fill="none" stroke="#c0c0c0" points="2293,-591 2287,-591 "/>
<g id="a_node18_30"><a xlink:href="http://purl.org/dc/terms/created" xlink:title="&lt;TABLE&gt;">
<text text-anchor="start" x="1922.5" y="-582.5" font-family="Times,serif" font-size="10.00" fill="#000000">dcterms:created</text>
</a>
</g>
<text text-anchor="start" x="2022.5" y="-582.5" font-family="Times,serif" font-size="10.00" fill="#000000">2021&#45;02&#45;23 07:37:10</text>
<g id="a_node18_31"><a xlink:href="http://purl.org/dc/terms/description" xlink:title="&lt;TABLE&gt;">
<text text-anchor="start" x="1922.5" y="-569.5" font-family="Times,serif" font-size="10.00" fill="#000000">dcterms:description</text>
</a>
</g>
<text text-anchor="start" x="2022.5" y="-569.5" font-family="Times,serif" font-size="10.00" fill="#000000">Engineering Departament of University of Sao Paulo.</text>
<g id="a_node18_32"><a xlink:href="http://purl.org/dc/terms/type" xlink:title="&lt;TABLE&gt;">
<text text-anchor="start" x="1922.5" y="-556.5" font-family="Times,serif" font-size="10.00" fill="#000000">dcterms:type</text>
</a>
</g>
<text text-anchor="start" x="2022.5" y="-556.5" font-family="Times,serif" font-size="10.00" fill="#000000">Institution</text>
<g id="a_node18_33"><a xlink:href="http://xmlns.com/foaf/0.1/homepage" xlink:title="&lt;TABLE&gt;">
<text text-anchor="start" x="1922.5" y="-543.5" font-family="Times,serif" font-size="10.00" fill="#000000">foaf:homepage</text>
</a>
</g>
<text text-anchor="start" x="2022.5" y="-543.5" font-family="Times,serif" font-size="10.00" fill="#000000">http://poli.usp.br/</text>
<g id="a_node18_34"><a xlink:href="http://xmlns.com/foaf/0.1/name" xlink:title="&lt;TABLE&gt;">
<text text-anchor="start" x="1922.5" y="-530.5" font-family="Times,serif" font-size="10.00" fill="#000000">foaf:name</text>
</a>
</g>
<text text-anchor="start" x="2022.5" y="-530.5" font-family="Times,serif" font-size="10.00" fill="#000000">Escola Politecnica da USP</text>
</g>
<!-- ann9&#45;&gt;n9 -->
<g id="edge9" class="edge">
<title>ann9&#45;&gt;n9</title>
<path fill="none" stroke="#c0c0c0" stroke-dasharray="5,2" d="M2102.5,-597.1233C2102.5,-611.1283 2102.5,-626.2274 2102.5,-637.0355"/>
</g>
<!-- ann10 -->
<g id="node20" class="node">
<title>ann10</title>
<polygon fill="none" stroke="#c0c0c0" points="1223,-250.5 930,-250.5 930,-201.5 1229,-201.5 1229,-244.5 1223,-250.5"/>
<polyline fill="none" stroke="#c0c0c0" points="1223,-250.5 1223,-244.5 "/>
<polyline fill="none" stroke="#c0c0c0" points="1229,-244.5 1223,-244.5 "/>
<g id="a_node20_35"><a xlink:href="http://purl.org/dc/terms/created" xlink:title="&lt;TABLE&gt;">
<text text-anchor="start" x="940.5" y="-236" font-family="Times,serif" font-size="10.00" fill="#000000">dcterms:created</text>
</a>
</g>
<text text-anchor="start" x="1023.5" y="-236" font-family="Times,serif" font-size="10.00" fill="#000000">2021&#45;02&#45;23 07:37:11</text>
<g id="a_node20_36"><a xlink:href="http://purl.org/dc/terms/source" xlink:title="&lt;TABLE&gt;">
<text text-anchor="start" x="940.5" y="-223" font-family="Times,serif" font-size="10.00" fill="#000000">dcterms:source</text>
</a>
</g>
<text text-anchor="start" x="1023.5" y="-223" font-family="Times,serif" font-size="10.00" fill="#000000">http://github.com/poli&#45;usp/environAlgol</text>
<g id="a_node20_37"><a xlink:href="http://purl.org/dc/terms/title" xlink:title="&lt;TABLE&gt;">
<text text-anchor="start" x="940.5" y="-210" font-family="Times,serif" font-size="10.00" fill="#000000">dcterms:title</text>
</a>
</g>
<text text-anchor="start" x="1023.5" y="-210" font-family="Times,serif" font-size="10.00" fill="#000000">Algorithm for environmental processing</text>
</g>
<!-- ann10&#45;&gt;n10 -->
<g id="edge10" class="edge">
<title>ann10&#45;&gt;n10</title>
<path fill="none" stroke="#c0c0c0" stroke-dasharray="5,2" d="M1083.3576,-250.7338C1086.4924,-270.8335 1090.8424,-298.7251 1093.6642,-316.8172"/>
</g>
<!-- ann11 -->
<g id="node22" class="node">
<title>ann11</title>
<polygon fill="none" stroke="#c0c0c0" points="2072,-250.5 1875,-250.5 1875,-201.5 2078,-201.5 2078,-244.5 2072,-250.5"/>
<polyline fill="none" stroke="#c0c0c0" points="2072,-250.5 2072,-244.5 "/>
<polyline fill="none" stroke="#c0c0c0" points="2078,-244.5 2072,-244.5 "/>
<g id="a_node22_38"><a xlink:href="http://purl.org/dc/terms/created" xlink:title="&lt;TABLE&gt;">
<text text-anchor="start" x="1885.5" y="-236" font-family="Times,serif" font-size="10.00" fill="#000000">dcterms:created</text>
</a>
</g>
<text text-anchor="start" x="1968.5" y="-236" font-family="Times,serif" font-size="10.00" fill="#000000">2021&#45;02&#45;23 07:37:11</text>
<g id="a_node22_39"><a xlink:href="http://purl.org/dc/terms/title" xlink:title="&lt;TABLE&gt;">
<text text-anchor="start" x="1885.5" y="-223" font-family="Times,serif" font-size="10.00" fill="#000000">dcterms:title</text>
</a>
</g>
<text text-anchor="start" x="1968.5" y="-223" font-family="Times,serif" font-size="10.00" fill="#000000">Software Tool XYZ</text>
<g id="a_node22_40"><a xlink:href="http://purl.org/dc/terms/type" xlink:title="&lt;TABLE&gt;">
<text text-anchor="start" x="1885.5" y="-210" font-family="Times,serif" font-size="10.00" fill="#000000">dcterms:type</text>
</a>
</g>
<text text-anchor="start" x="1968.5" y="-210" font-family="Times,serif" font-size="10.00" fill="#000000">SoftwareTool</text>
</g>
<!-- ann11&#45;&gt;n11 -->
<g id="edge11" class="edge">
<title>ann11&#45;&gt;n11</title>
<path fill="none" stroke="#c0c0c0" stroke-dasharray="5,2" d="M1951.4739,-250.5905C1938.3212,-262.5032 1921.442,-276.2934 1904.5,-286 1880.1108,-299.9733 1851.0309,-311.0989 1826.0329,-319.1939"/>
</g>
<!-- n12&#45;&gt;n6 -->
<g id="edge26" class="edge">
<title>n12&#45;&gt;n6</title>
<path fill="none" stroke="#006400" d="M2262.2222,-351.3184C2219.3592,-370.0817 2148.7773,-400.979 2101.0063,-421.8908"/>
<polygon fill="#006400" stroke="#006400" points="2099.5283,-418.7171 2091.7712,-425.9335 2102.3355,-425.1296 2099.5283,-418.7171"/>
<text text-anchor="middle" x="2224" y="-387" font-family="Times,serif" font-size="10.00" fill="#006400">wasGeneratedBy</text>
</g>
<!-- n12&#45;&gt;n9 -->
<g id="edge24" class="edge">
<title>n12&#45;&gt;n9</title>
<path fill="none" stroke="#fed37f" d="M2376.7532,-342.7701C2462.4015,-353.1671 2592.4806,-374.8684 2622.5,-413 2673.0854,-477.2551 2677.2,-536.2093 2622.5,-597 2592.8727,-629.9262 2306.1946,-644.6149 2171.6183,-649.7366"/>
<polygon fill="#fed37f" stroke="#fed37f" points="2171.2797,-646.2467 2161.4173,-650.1176 2171.541,-653.2418 2171.2797,-646.2467"/>
<text text-anchor="middle" x="2702.5" y="-496" font-family="Times,serif" font-size="10.00" fill="#000000">wasAttributedTo</text>
</g>
<!-- ann12 -->
<g id="node24" class="node">
<title>ann12</title>
<polygon fill="none" stroke="#c0c0c0" points="2435,-257 2158,-257 2158,-195 2441,-195 2441,-251 2435,-257"/>
<polyline fill="none" stroke="#c0c0c0" points="2435,-257 2435,-251 "/>
<polyline fill="none" stroke="#c0c0c0" points="2441,-251 2435,-251 "/>
<g id="a_node24_41"><a xlink:href="http://purl.org/dc/terms/created" xlink:title="&lt;TABLE&gt;">
<text text-anchor="start" x="2168.5" y="-243" font-family="Times,serif" font-size="10.00" fill="#000000">dcterms:created</text>
</a>
</g>
<text text-anchor="start" x="2251.5" y="-243" font-family="Times,serif" font-size="10.00" fill="#000000">2021&#45;02&#45;23 07:37:10</text>
<g id="a_node24_42"><a xlink:href="http://purl.org/dc/terms/source" xlink:title="&lt;TABLE&gt;">
<text text-anchor="start" x="2168.5" y="-230" font-family="Times,serif" font-size="10.00" fill="#000000">dcterms:source</text>
</a>
</g>
<text text-anchor="start" x="2251.5" y="-230" font-family="Times,serif" font-size="10.00" fill="#000000">http://poli.usp.br/datasets/30</text>
<g id="a_node24_43"><a xlink:href="http://purl.org/dc/terms/title" xlink:title="&lt;TABLE&gt;">
<text text-anchor="start" x="2168.5" y="-217" font-family="Times,serif" font-size="10.00" fill="#000000">dcterms:title</text>
</a>
</g>
<text text-anchor="start" x="2251.5" y="-217" font-family="Times,serif" font-size="10.00" fill="#000000">Environmental Monitoring Raw Data</text>
<g id="a_node24_44"><a xlink:href="http://purl.org/dc/terms/type" xlink:title="&lt;TABLE&gt;">
<text text-anchor="start" x="2168.5" y="-204" font-family="Times,serif" font-size="10.00" fill="#000000">dcterms:type</text>
</a>
</g>
<text text-anchor="start" x="2251.5" y="-204" font-family="Times,serif" font-size="10.00" fill="#000000">Raw Dataset</text>
</g>
<!-- ann12&#45;&gt;n12 -->
<g id="edge12" class="edge">
<title>ann12&#45;&gt;n12</title>
<path fill="none" stroke="#c0c0c0" stroke-dasharray="5,2" d="M2299.5,-257.235C2299.5,-276.4851 2299.5,-300.5024 2299.5,-316.7127"/>
</g>
<!-- b1&#45;&gt;n1 -->
<g id="edge21" class="edge">
<title>b1&#45;&gt;n1</title>
<path fill="none" stroke="#fed37f" d="M1631.4828,-337.1035C1631.3099,-342.8422 1629.9618,-358.8188 1620.5,-366 1540.3576,-426.8255 868.7828,-440.2386 598.008,-443.1801"/>
<polygon fill="#fed37f" stroke="#fed37f" points="597.726,-439.6827 587.7636,-443.2884 597.8001,-446.6824 597.726,-439.6827"/>
</g>
<!-- b2&#45;&gt;n9 -->
<g id="edge23" class="edge">
<title>b2&#45;&gt;n9</title>
<path fill="none" stroke="#fed37f" d="M1892.4547,-561.5483C1892.4328,-567.8142 1893.2498,-586.9093 1903.5,-597 1922.0799,-615.2909 1983.8066,-630.5547 2033.6417,-640.3251"/>
<polygon fill="#fed37f" stroke="#fed37f" points="2033.274,-643.8183 2043.7544,-642.2654 2034.5931,-636.9437 2033.274,-643.8183"/>
</g>
</g>
</svg>
