<?xml version="1.0" encoding="UTF-8" standalone="no"?>
<!DOCTYPE svg PUBLIC "-//W3C//DTD SVG 1.1//EN"
 "http://www.w3.org/Graphics/SVG/1.1/DTD/svg11.dtd">
<!-- Generated by graphviz version 2.44.2~dev.20201107.0410 (20201107.0410)
 -->
<!-- Title: G Pages: 1 -->
<svg width="2530pt" height="678pt"
 viewBox="0.00 0.00 2530.29 678.00" xmlns="http://www.w3.org/2000/svg" xmlns:xlink="http://www.w3.org/1999/xlink">
<g id="graph0" class="graph" transform="scale(1 1) rotate(0) translate(4 674)">
<title>G</title>
<polygon fill="white" stroke="transparent" points="-4,4 -4,-674 2526.29,-674 2526.29,4 -4,4"/>
<!-- n1 -->
<g id="node1" class="node">
<title>n1</title>
<g id="a_node1"><a xlink:href="http://bioprov.org/input_params/validateRanges" xlink:title="bioprov:input_params/validateRanges">
<ellipse fill="#fffc87" stroke="#808080" cx="1092.29" cy="-335" rx="147.57" ry="18"/>
<text text-anchor="middle" x="1092.29" y="-331.3" font-family="Times New Roman,serif" font-size="14.00">bioprov:input_params/validateRanges</text>
</a>
</g>
</g>
<!-- ann1 -->
<g id="node2" class="node">
<title>ann1</title>
<polygon fill="none" stroke="gray" points="1191.79,-257 874.79,-257 874.79,-195 1197.79,-195 1197.79,-251 1191.79,-257"/>
<polyline fill="none" stroke="gray" points="1191.79,-257 1191.79,-251 "/>
<polyline fill="none" stroke="gray" points="1197.79,-251 1191.79,-251 "/>
<g id="a_node2_0"><a xlink:href="http://purl.org/dc/terms/created" xlink:title="&lt;TABLE&gt;">
<text text-anchor="start" x="885.29" y="-243" font-family="Times New Roman,serif" font-size="10.00">dcterms:created</text>
</a>
</g>
<text text-anchor="start" x="966.29" y="-243" font-family="Times New Roman,serif" font-size="10.00">2021&#45;02&#45;21 16:26:32</text>
<g id="a_node2_1"><a xlink:href="http://purl.org/dc/terms/description" xlink:title="&lt;TABLE&gt;">
<text text-anchor="start" x="885.29" y="-230" font-family="Times New Roman,serif" font-size="10.00">dcterms:description</text>
</a>
</g>
<text text-anchor="start" x="966.29" y="-230" font-family="Times New Roman,serif" font-size="10.00">Set wether the validation of data ranges are considered.</text>
<g id="a_node2_2"><a xlink:href="http://purl.org/dc/terms/type" xlink:title="&lt;TABLE&gt;">
<text text-anchor="start" x="885.29" y="-217" font-family="Times New Roman,serif" font-size="10.00">dcterms:type</text>
</a>
</g>
<text text-anchor="start" x="966.29" y="-217" font-family="Times New Roman,serif" font-size="10.00">InputParams</text>
<g id="a_node2_3"><a xlink:href="http://www.w3.org/1999/02/22-rdf-syntax-ns#value" xlink:title="&lt;TABLE&gt;">
<text text-anchor="start" x="885.29" y="-204" font-family="Times New Roman,serif" font-size="10.00">rdf:value</text>
</a>
</g>
<text text-anchor="start" x="966.29" y="-204" font-family="Times New Roman,serif" font-size="10.00">TRUE</text>
</g>
<!-- ann1&#45;&gt;n1 -->
<g id="edge1" class="edge">
<title>ann1:&#45;&gt;n1:</title>
<path fill="none" stroke="gray" stroke-dasharray="5,2" d="M1052.03,-257.09C1062.13,-276.38 1074.87,-300.72 1083.28,-316.79"/>
</g>
<!-- n2 -->
<g id="node3" class="node">
<title>n2</title>
<g id="a_node3"><a xlink:href="http://tools.com/software/xyz" xlink:title="tools.com:software/xyz">
<ellipse fill="#fffc87" stroke="#808080" cx="1963.29" cy="-335" rx="95.58" ry="18"/>
<text text-anchor="middle" x="1963.29" y="-331.3" font-family="Times New Roman,serif" font-size="14.00">tools.com:software/xyz</text>
</a>
</g>
</g>
<!-- ann2 -->
<g id="node4" class="node">
<title>ann2</title>
<polygon fill="none" stroke="gray" points="2149.29,-250.5 1991.29,-250.5 1991.29,-201.5 2155.29,-201.5 2155.29,-244.5 2149.29,-250.5"/>
<polyline fill="none" stroke="gray" points="2149.29,-250.5 2149.29,-244.5 "/>
<polyline fill="none" stroke="gray" points="2155.29,-244.5 2149.29,-244.5 "/>
<g id="a_node4_4"><a xlink:href="http://purl.org/dc/terms/created" xlink:title="&lt;TABLE&gt;">
<text text-anchor="start" x="2001.29" y="-236" font-family="Times New Roman,serif" font-size="10.00">dcterms:created</text>
</a>
</g>
<text text-anchor="start" x="2067.29" y="-236" font-family="Times New Roman,serif" font-size="10.00">2021&#45;02&#45;21 16:26:22</text>
<g id="a_node4_5"><a xlink:href="http://purl.org/dc/terms/title" xlink:title="&lt;TABLE&gt;">
<text text-anchor="start" x="2001.29" y="-223" font-family="Times New Roman,serif" font-size="10.00">dcterms:title</text>
</a>
</g>
<text text-anchor="start" x="2067.29" y="-223" font-family="Times New Roman,serif" font-size="10.00">Software Tool XYZ</text>
<g id="a_node4_6"><a xlink:href="http://purl.org/dc/terms/type" xlink:title="&lt;TABLE&gt;">
<text text-anchor="start" x="2001.29" y="-210" font-family="Times New Roman,serif" font-size="10.00">dcterms:type</text>
</a>
</g>
<text text-anchor="start" x="2067.29" y="-210" font-family="Times New Roman,serif" font-size="10.00">SoftwareTool</text>
</g>
<!-- ann2&#45;&gt;n2 -->
<g id="edge2" class="edge">
<title>ann2:&#45;&gt;n2:</title>
<path fill="none" stroke="gray" stroke-dasharray="5,2" d="M2048.87,-250.75C2028.24,-270.82 1999.18,-299.08 1980.8,-316.97"/>
</g>
<!-- n3 -->
<g id="node5" class="node">
<title>n3</title>
<g id="a_node5"><a xlink:href="http://poli.usp.br/datascience/algol/10" xlink:title="poli:datascience/algol/10">
<ellipse fill="#fffc87" stroke="#808080" cx="1406.29" cy="-335" rx="98.58" ry="18"/>
<text text-anchor="middle" x="1406.29" y="-331.3" font-family="Times New Roman,serif" font-size="14.00">poli:datascience/algol/10</text>
</a>
</g>
</g>
<!-- ann3 -->
<g id="node6" class="node">
<title>ann3</title>
<polygon fill="none" stroke="gray" points="1458.79,-250.5 1215.79,-250.5 1215.79,-201.5 1464.79,-201.5 1464.79,-244.5 1458.79,-250.5"/>
<polyline fill="none" stroke="gray" points="1458.79,-250.5 1458.79,-244.5 "/>
<polyline fill="none" stroke="gray" points="1464.79,-244.5 1458.79,-244.5 "/>
<g id="a_node6_7"><a xlink:href="http://purl.org/dc/terms/created" xlink:title="&lt;TABLE&gt;">
<text text-anchor="start" x="1226.29" y="-236" font-family="Times New Roman,serif" font-size="10.00">dcterms:created</text>
</a>
</g>
<text text-anchor="start" x="1292.29" y="-236" font-family="Times New Roman,serif" font-size="10.00">2021&#45;02&#45;21 16:26:35</text>
<g id="a_node6_8"><a xlink:href="http://purl.org/dc/terms/source" xlink:title="&lt;TABLE&gt;">
<text text-anchor="start" x="1226.29" y="-223" font-family="Times New Roman,serif" font-size="10.00">dcterms:source</text>
</a>
</g>
<text text-anchor="start" x="1292.29" y="-223" font-family="Times New Roman,serif" font-size="10.00">http://github.com/poli&#45;usp/environAlgol</text>
<g id="a_node6_9"><a xlink:href="http://purl.org/dc/terms/title" xlink:title="&lt;TABLE&gt;">
<text text-anchor="start" x="1226.29" y="-210" font-family="Times New Roman,serif" font-size="10.00">dcterms:title</text>
</a>
</g>
<text text-anchor="start" x="1292.29" y="-210" font-family="Times New Roman,serif" font-size="10.00">Algorithm for environmental processing</text>
</g>
<!-- ann3&#45;&gt;n3 -->
<g id="edge3" class="edge">
<title>ann3:&#45;&gt;n3:</title>
<path fill="none" stroke="gray" stroke-dasharray="5,2" d="M1349.49,-250.68C1354.2,-261.74 1360.39,-274.9 1367.29,-286 1374.08,-296.95 1383.08,-308.18 1390.72,-317.02"/>
</g>
<!-- n4 -->
<g id="node7" class="node">
<title>n4</title>
<g id="a_node7"><a xlink:href="http://poli.usp.br/datasets/30" xlink:title="poli:datasets/30">
<ellipse fill="#fffc87" stroke="#808080" cx="761.29" cy="-335" rx="66.89" ry="18"/>
<text text-anchor="middle" x="761.29" y="-331.3" font-family="Times New Roman,serif" font-size="14.00">poli:datasets/30</text>
</a>
</g>
</g>
<!-- n6 -->
<g id="node11" class="node">
<title>n6</title>
<g id="a_node11"><a xlink:href="http://poli.usp.br/activities/capture" xlink:title="poli:activities/capture">
<polygon fill="#9fb1fc" stroke="#0000ff" points="441.29,-462 307.29,-462 307.29,-426 441.29,-426 441.29,-462"/>
<text text-anchor="middle" x="374.29" y="-440.3" font-family="Times New Roman,serif" font-size="14.00">poli:activities/capture</text>
</a>
</g>
</g>
<!-- n4&#45;&gt;n6 -->
<g id="edge26" class="edge">
<title>n4:&#45;&gt;n6:</title>
<path fill="none" stroke="darkgreen" d="M709.79,-346.54C647.63,-359.78 540.23,-384.26 450.29,-413 441.75,-415.73 432.79,-418.94 424.14,-422.23"/>
<polygon fill="darkgreen" stroke="darkgreen" points="422.61,-419.07 414.55,-425.95 425.14,-425.6 422.61,-419.07"/>
<text text-anchor="middle" x="577.29" y="-387" font-family="Times New Roman,serif" font-size="10.00" fill="darkgreen">wasGeneratedBy</text>
</g>
<!-- n7 -->
<g id="node13" class="node">
<title>n7</title>
<g id="a_node13"><a xlink:href="http://usp.br/poli" xlink:title="usp:poli">
<polygon fill="#fed37f" stroke="black" points="818.3,-657.56 769.29,-670 720.27,-657.56 720.32,-637.44 818.25,-637.44 818.3,-657.56"/>
<text text-anchor="middle" x="769.29" y="-648.3" font-family="Times New Roman,serif" font-size="14.00">usp:poli</text>
</a>
</g>
</g>
<!-- n4&#45;&gt;n7 -->
<g id="edge24" class="edge">
<title>n4:&#45;&gt;n7:</title>
<path fill="none" stroke="#fed37f" d="M785,-352.07C824.87,-380.7 903.95,-444.84 934.29,-522 946.48,-553.02 953.85,-570.01 934.29,-597 910.35,-630.01 865.64,-643.21 828.79,-648.32"/>
<polygon fill="#fed37f" stroke="#fed37f" points="828.13,-644.88 818.63,-649.56 828.98,-651.83 828.13,-644.88"/>
<text text-anchor="middle" x="961.29" y="-496" font-family="Times New Roman,serif" font-size="10.00">wasAttributedTo</text>
</g>
<!-- ann4 -->
<g id="node8" class="node">
<title>ann4</title>
<polygon fill="none" stroke="gray" points="850.79,-257 623.79,-257 623.79,-195 856.79,-195 856.79,-251 850.79,-257"/>
<polyline fill="none" stroke="gray" points="850.79,-257 850.79,-251 "/>
<polyline fill="none" stroke="gray" points="856.79,-251 850.79,-251 "/>
<g id="a_node8_10"><a xlink:href="http://purl.org/dc/terms/created" xlink:title="&lt;TABLE&gt;">
<text text-anchor="start" x="634.29" y="-243" font-family="Times New Roman,serif" font-size="10.00">dcterms:created</text>
</a>
</g>
<text text-anchor="start" x="700.29" y="-243" font-family="Times New Roman,serif" font-size="10.00">2021&#45;02&#45;21 16:26:08</text>
<g id="a_node8_11"><a xlink:href="http://purl.org/dc/terms/source" xlink:title="&lt;TABLE&gt;">
<text text-anchor="start" x="634.29" y="-230" font-family="Times New Roman,serif" font-size="10.00">dcterms:source</text>
</a>
</g>
<text text-anchor="start" x="700.29" y="-230" font-family="Times New Roman,serif" font-size="10.00">http://poli.usp.br/datasets/30</text>
<g id="a_node8_12"><a xlink:href="http://purl.org/dc/terms/title" xlink:title="&lt;TABLE&gt;">
<text text-anchor="start" x="634.29" y="-217" font-family="Times New Roman,serif" font-size="10.00">dcterms:title</text>
</a>
</g>
<text text-anchor="start" x="700.29" y="-217" font-family="Times New Roman,serif" font-size="10.00">Environmental Monitoring Raw Data</text>
<g id="a_node8_13"><a xlink:href="http://purl.org/dc/terms/type" xlink:title="&lt;TABLE&gt;">
<text text-anchor="start" x="634.29" y="-204" font-family="Times New Roman,serif" font-size="10.00">dcterms:type</text>
</a>
</g>
<text text-anchor="start" x="700.29" y="-204" font-family="Times New Roman,serif" font-size="10.00">Raw Dataset</text>
</g>
<!-- ann4&#45;&gt;n4 -->
<g id="edge4" class="edge">
<title>ann4:&#45;&gt;n4:</title>
<path fill="none" stroke="gray" stroke-dasharray="5,2" d="M746.19,-257.09C749.98,-276.38 754.75,-300.72 757.91,-316.79"/>
</g>
<!-- n5 -->
<g id="node9" class="node">
<title>n5</title>
<g id="a_node9"><a xlink:href="http://bioprov.org/input_params/acceptErrors" xlink:title="bioprov:input_params/acceptErrors">
<ellipse fill="#fffc87" stroke="#808080" cx="1710.29" cy="-335" rx="139.98" ry="18"/>
<text text-anchor="middle" x="1710.29" y="-331.3" font-family="Times New Roman,serif" font-size="14.00">bioprov:input_params/acceptErrors</text>
</a>
</g>
</g>
<!-- ann5 -->
<g id="node10" class="node">
<title>ann5</title>
<polygon fill="none" stroke="gray" points="1966.79,-257 1671.79,-257 1671.79,-195 1972.79,-195 1972.79,-251 1966.79,-257"/>
<polyline fill="none" stroke="gray" points="1966.79,-257 1966.79,-251 "/>
<polyline fill="none" stroke="gray" points="1972.79,-251 1966.79,-251 "/>
<g id="a_node10_14"><a xlink:href="http://purl.org/dc/terms/created" xlink:title="&lt;TABLE&gt;">
<text text-anchor="start" x="1682.29" y="-243" font-family="Times New Roman,serif" font-size="10.00">dcterms:created</text>
</a>
</g>
<text text-anchor="start" x="1763.29" y="-243" font-family="Times New Roman,serif" font-size="10.00">2021&#45;02&#45;21 16:26:28</text>
<g id="a_node10_15"><a xlink:href="http://purl.org/dc/terms/description" xlink:title="&lt;TABLE&gt;">
<text text-anchor="start" x="1682.29" y="-230" font-family="Times New Roman,serif" font-size="10.00">dcterms:description</text>
</a>
</g>
<text text-anchor="start" x="1763.29" y="-230" font-family="Times New Roman,serif" font-size="10.00">Set whether the errors are discarded or maintained</text>
<g id="a_node10_16"><a xlink:href="http://purl.org/dc/terms/type" xlink:title="&lt;TABLE&gt;">
<text text-anchor="start" x="1682.29" y="-217" font-family="Times New Roman,serif" font-size="10.00">dcterms:type</text>
</a>
</g>
<text text-anchor="start" x="1763.29" y="-217" font-family="Times New Roman,serif" font-size="10.00">InputParams</text>
<g id="a_node10_17"><a xlink:href="http://www.w3.org/1999/02/22-rdf-syntax-ns#value" xlink:title="&lt;TABLE&gt;">
<text text-anchor="start" x="1682.29" y="-204" font-family="Times New Roman,serif" font-size="10.00">rdf:value</text>
</a>
</g>
<text text-anchor="start" x="1763.29" y="-204" font-family="Times New Roman,serif" font-size="10.00">FALSE</text>
</g>
<!-- ann5&#45;&gt;n5 -->
<g id="edge5" class="edge">
<title>ann5:&#45;&gt;n5:</title>
<path fill="none" stroke="gray" stroke-dasharray="5,2" d="M1790.79,-257.09C1770.47,-276.5 1744.8,-301.03 1727.98,-317.1"/>
</g>
<!-- n10 -->
<g id="node19" class="node">
<title>n10</title>
<g id="a_node19"><a xlink:href="http://sensor.com/environmentalsensor/env200" xlink:title="sensor.com:environmentalsensor/env200">
<ellipse fill="#fffc87" stroke="#808080" cx="157.29" cy="-559.5" rx="157.07" ry="18"/>
<text text-anchor="middle" x="157.29" y="-555.8" font-family="Times New Roman,serif" font-size="14.00">sensor.com:environmentalsensor/env200</text>
</a>
</g>
</g>
<!-- n6&#45;&gt;n10 -->
<g id="edge16" class="edge">
<title>n6:&#45;&gt;n10:</title>
<path fill="none" stroke="#8b0000" d="M341.33,-462.24C302.97,-482.3 239.6,-515.45 198.15,-537.13"/>
<polygon fill="#8b0000" stroke="#8b0000" points="196.38,-534.1 189.14,-541.84 199.62,-540.31 196.38,-534.1"/>
<text text-anchor="middle" x="289.29" y="-496" font-family="Times New Roman,serif" font-size="10.00" fill="red">used</text>
</g>
<!-- n11 -->
<g id="node21" class="node">
<title>n11</title>
<g id="a_node21"><a xlink:href="http://bioprov.org/input_params/interval" xlink:title="bioprov:input_params/interval">
<ellipse fill="#fffc87" stroke="#808080" cx="476.29" cy="-559.5" rx="118.88" ry="18"/>
<text text-anchor="middle" x="476.29" y="-555.8" font-family="Times New Roman,serif" font-size="14.00">bioprov:input_params/interval</text>
</a>
</g>
</g>
<!-- n6&#45;&gt;n11 -->
<g id="edge18" class="edge">
<title>n6:&#45;&gt;n11:</title>
<path fill="none" stroke="#8b0000" d="M406.29,-462.06C419.28,-470.14 433.69,-480.73 444.29,-493 454.07,-504.34 461.65,-519.19 466.97,-531.89"/>
<polygon fill="#8b0000" stroke="#8b0000" points="463.83,-533.48 470.75,-541.5 470.35,-530.91 463.83,-533.48"/>
<text text-anchor="middle" x="462.29" y="-496" font-family="Times New Roman,serif" font-size="10.00" fill="red">used</text>
</g>
<!-- b1 -->
<g id="node25" class="node">
<title>b1</title>
<ellipse fill="gray" stroke="gray" cx="337.29" cy="-559.5" rx="1.8" ry="1.8"/>
</g>
<!-- n6&#45;&gt;b1 -->
<g id="edge20" class="edge">
<title>n6:&#45;&gt;b1:</title>
<path fill="none" stroke="#fed37f" d="M368.34,-462.07C362.96,-477.64 354.9,-501.3 348.29,-522 343.78,-536.12 338.74,-553.48 337.55,-557.59"/>
<text text-anchor="middle" x="399.29" y="-496" font-family="Times New Roman,serif" font-size="10.00">wasAssociatedWith</text>
</g>
<!-- ann6 -->
<g id="node12" class="node">
<title>ann6</title>
<polygon fill="none" stroke="gray" points="488.29,-359.5 254.29,-359.5 254.29,-310.5 494.29,-310.5 494.29,-353.5 488.29,-359.5"/>
<polyline fill="none" stroke="gray" points="488.29,-359.5 488.29,-353.5 "/>
<polyline fill="none" stroke="gray" points="494.29,-353.5 488.29,-353.5 "/>
<g id="a_node12_18"><a xlink:href="http://purl.org/dc/terms/created" xlink:title="&lt;TABLE&gt;">
<text text-anchor="start" x="264.29" y="-345" font-family="Times New Roman,serif" font-size="10.00">dcterms:created</text>
</a>
</g>
<text text-anchor="start" x="330.29" y="-345" font-family="Times New Roman,serif" font-size="10.00">2021&#45;02&#45;21 16:26:12</text>
<g id="a_node12_19"><a xlink:href="http://purl.org/dc/terms/title" xlink:title="&lt;TABLE&gt;">
<text text-anchor="start" x="264.29" y="-332" font-family="Times New Roman,serif" font-size="10.00">dcterms:title</text>
</a>
</g>
<text text-anchor="start" x="330.29" y="-332" font-family="Times New Roman,serif" font-size="10.00">Environment Data Capture by Sensors</text>
<g id="a_node12_20"><a xlink:href="http://purl.org/dc/terms/type" xlink:title="&lt;TABLE&gt;">
<text text-anchor="start" x="264.29" y="-319" font-family="Times New Roman,serif" font-size="10.00">dcterms:type</text>
</a>
</g>
<text text-anchor="start" x="330.29" y="-319" font-family="Times New Roman,serif" font-size="10.00">DataCapturing</text>
</g>
<!-- ann6&#45;&gt;n6 -->
<g id="edge6" class="edge">
<title>ann6:&#45;&gt;n6:</title>
<path fill="none" stroke="gray" stroke-dasharray="5,2" d="M374.29,-359.75C374.29,-379.82 374.29,-408.08 374.29,-425.97"/>
</g>
<!-- ann7 -->
<g id="node14" class="node">
<title>ann7</title>
<polygon fill="none" stroke="gray" points="919.29,-597 613.29,-597 613.29,-522 925.29,-522 925.29,-591 919.29,-597"/>
<polyline fill="none" stroke="gray" points="919.29,-597 919.29,-591 "/>
<polyline fill="none" stroke="gray" points="925.29,-591 919.29,-591 "/>
<g id="a_node14_21"><a xlink:href="http://purl.org/dc/terms/created" xlink:title="&lt;TABLE&gt;">
<text text-anchor="start" x="623.29" y="-582.5" font-family="Times New Roman,serif" font-size="10.00">dcterms:created</text>
</a>
</g>
<text text-anchor="start" x="704.29" y="-582.5" font-family="Times New Roman,serif" font-size="10.00">2021&#45;02&#45;21 16:25:53</text>
<g id="a_node14_22"><a xlink:href="http://purl.org/dc/terms/description" xlink:title="&lt;TABLE&gt;">
<text text-anchor="start" x="623.29" y="-569.5" font-family="Times New Roman,serif" font-size="10.00">dcterms:description</text>
</a>
</g>
<text text-anchor="start" x="704.29" y="-569.5" font-family="Times New Roman,serif" font-size="10.00">Engineering Departament of University of Sao Paulo.</text>
<g id="a_node14_23"><a xlink:href="http://purl.org/dc/terms/type" xlink:title="&lt;TABLE&gt;">
<text text-anchor="start" x="623.29" y="-556.5" font-family="Times New Roman,serif" font-size="10.00">dcterms:type</text>
</a>
</g>
<text text-anchor="start" x="704.29" y="-556.5" font-family="Times New Roman,serif" font-size="10.00">Institution</text>
<g id="a_node14_24"><a xlink:href="http://xmlns.com/foaf/0.1/homepage" xlink:title="&lt;TABLE&gt;">
<text text-anchor="start" x="623.29" y="-543.5" font-family="Times New Roman,serif" font-size="10.00">foaf:homepage</text>
</a>
</g>
<text text-anchor="start" x="704.29" y="-543.5" font-family="Times New Roman,serif" font-size="10.00">http://poli.usp.br/</text>
<g id="a_node14_25"><a xlink:href="http://xmlns.com/foaf/0.1/name" xlink:title="&lt;TABLE&gt;">
<text text-anchor="start" x="623.29" y="-530.5" font-family="Times New Roman,serif" font-size="10.00">foaf:name</text>
</a>
</g>
<text text-anchor="start" x="704.29" y="-530.5" font-family="Times New Roman,serif" font-size="10.00">Escola Politecnica da USP</text>
</g>
<!-- ann7&#45;&gt;n7 -->
<g id="edge7" class="edge">
<title>ann7:&#45;&gt;n7:</title>
<path fill="none" stroke="gray" stroke-dasharray="5,2" d="M769.29,-597.05C769.29,-611.18 769.29,-626.48 769.29,-637.17"/>
</g>
<!-- n8 -->
<g id="node15" class="node">
<title>n8</title>
<g id="a_node15"><a xlink:href="http://ib.usp.br/data_products/150" xlink:title="ib_usp:data_products/150">
<ellipse fill="#fffc87" stroke="#808080" cx="2168.29" cy="-123.5" rx="105.88" ry="18"/>
<text text-anchor="middle" x="2168.29" y="-119.8" font-family="Times New Roman,serif" font-size="14.00">ib_usp:data_products/150</text>
</a>
</g>
</g>
<!-- n9 -->
<g id="node17" class="node">
<title>n9</title>
<g id="a_node17"><a xlink:href="http://ib.usp.br/ecologia" xlink:title="ib_usp:ecologia">
<polygon fill="#fed37f" stroke="black" points="2349.89,-449.56 2266.29,-462 2182.68,-449.56 2182.76,-429.44 2349.81,-429.44 2349.89,-449.56"/>
<text text-anchor="middle" x="2266.29" y="-440.3" font-family="Times New Roman,serif" font-size="14.00">ib_usp:ecologia</text>
</a>
</g>
</g>
<!-- n8&#45;&gt;n9 -->
<g id="edge25" class="edge">
<title>n8:&#45;&gt;n9:</title>
<path fill="none" stroke="#fed37f" d="M2221.73,-139.13C2291.94,-161.55 2412.39,-211.83 2464.29,-304 2477.81,-328.01 2479.84,-343.26 2464.29,-366 2440.58,-400.66 2398.79,-419.72 2359.7,-430.2"/>
<polygon fill="#fed37f" stroke="#fed37f" points="2358.68,-426.85 2349.84,-432.68 2360.39,-433.64 2358.68,-426.85"/>
<text text-anchor="middle" x="2487.29" y="-278" font-family="Times New Roman,serif" font-size="10.00">wasAttributedTo</text>
</g>
<!-- n12 -->
<g id="node23" class="node">
<title>n12</title>
<g id="a_node23"><a xlink:href="http://ib.usp.br/activities/processing" xlink:title="ib_usp:activities/processing">
<polygon fill="#9fb1fc" stroke="#0000ff" points="1653.29,-244 1483.29,-244 1483.29,-208 1653.29,-208 1653.29,-244"/>
<text text-anchor="middle" x="1568.29" y="-222.3" font-family="Times New Roman,serif" font-size="14.00">ib_usp:activities/processing</text>
</a>
</g>
</g>
<!-- n8&#45;&gt;n12 -->
<g id="edge27" class="edge">
<title>n8:&#45;&gt;n12:</title>
<path fill="none" stroke="darkgreen" d="M2076.69,-132.64C1974.87,-142.76 1805.97,-162.75 1663.29,-195 1651.42,-197.68 1638.91,-201.15 1627,-204.78"/>
<polygon fill="darkgreen" stroke="darkgreen" points="1625.67,-201.53 1617.16,-207.85 1627.75,-208.21 1625.67,-201.53"/>
<text text-anchor="middle" x="1848.29" y="-169" font-family="Times New Roman,serif" font-size="10.00" fill="darkgreen">wasGeneratedBy</text>
</g>
<!-- ann8 -->
<g id="node16" class="node">
<title>ann8</title>
<polygon fill="none" stroke="gray" points="2289.79,-62 2040.79,-62 2040.79,0 2295.79,0 2295.79,-56 2289.79,-62"/>
<polyline fill="none" stroke="gray" points="2289.79,-62 2289.79,-56 "/>
<polyline fill="none" stroke="gray" points="2295.79,-56 2289.79,-56 "/>
<g id="a_node16_26"><a xlink:href="http://purl.org/dc/terms/created" xlink:title="&lt;TABLE&gt;">
<text text-anchor="start" x="2051.29" y="-48" font-family="Times New Roman,serif" font-size="10.00">dcterms:created</text>
</a>
</g>
<text text-anchor="start" x="2117.29" y="-48" font-family="Times New Roman,serif" font-size="10.00">2021&#45;02&#45;21 16:26:39</text>
<g id="a_node16_27"><a xlink:href="http://purl.org/dc/terms/source" xlink:title="&lt;TABLE&gt;">
<text text-anchor="start" x="2051.29" y="-35" font-family="Times New Roman,serif" font-size="10.00">dcterms:source</text>
</a>
</g>
<text text-anchor="start" x="2117.29" y="-35" font-family="Times New Roman,serif" font-size="10.00">http://ib.usp.br/data_products/150</text>
<g id="a_node16_28"><a xlink:href="http://purl.org/dc/terms/title" xlink:title="&lt;TABLE&gt;">
<text text-anchor="start" x="2051.29" y="-22" font-family="Times New Roman,serif" font-size="10.00">dcterms:title</text>
</a>
</g>
<text text-anchor="start" x="2117.29" y="-22" font-family="Times New Roman,serif" font-size="10.00">Environmental Monitoring Published Data</text>
<g id="a_node16_29"><a xlink:href="http://purl.org/dc/terms/type" xlink:title="&lt;TABLE&gt;">
<text text-anchor="start" x="2051.29" y="-9" font-family="Times New Roman,serif" font-size="10.00">dcterms:type</text>
</a>
</g>
<text text-anchor="start" x="2117.29" y="-9" font-family="Times New Roman,serif" font-size="10.00">Processed Dataset</text>
</g>
<!-- ann8&#45;&gt;n8 -->
<g id="edge8" class="edge">
<title>ann8:&#45;&gt;n8:</title>
<path fill="none" stroke="gray" stroke-dasharray="5,2" d="M2168.29,-62.14C2168.29,-76.53 2168.29,-93.24 2168.29,-105.42"/>
</g>
<!-- ann9 -->
<g id="node18" class="node">
<title>ann9</title>
<polygon fill="none" stroke="gray" points="2449.29,-366 2077.29,-366 2077.29,-304 2455.29,-304 2455.29,-360 2449.29,-366"/>
<polyline fill="none" stroke="gray" points="2449.29,-366 2449.29,-360 "/>
<polyline fill="none" stroke="gray" points="2455.29,-360 2449.29,-360 "/>
<g id="a_node18_30"><a xlink:href="http://purl.org/dc/terms/created" xlink:title="&lt;TABLE&gt;">
<text text-anchor="start" x="2087.29" y="-352" font-family="Times New Roman,serif" font-size="10.00">dcterms:created</text>
</a>
</g>
<text text-anchor="start" x="2168.29" y="-352" font-family="Times New Roman,serif" font-size="10.00">2021&#45;02&#45;21 16:26:19</text>
<g id="a_node18_31"><a xlink:href="http://purl.org/dc/terms/description" xlink:title="&lt;TABLE&gt;">
<text text-anchor="start" x="2087.29" y="-339" font-family="Times New Roman,serif" font-size="10.00">dcterms:description</text>
</a>
</g>
<text text-anchor="start" x="2168.29" y="-339" font-family="Times New Roman,serif" font-size="10.00">Ecology Department &#45; Bioscience Instituty of University of Sao Paulo</text>
<g id="a_node18_32"><a xlink:href="http://xmlns.com/foaf/0.1/homepage" xlink:title="&lt;TABLE&gt;">
<text text-anchor="start" x="2087.29" y="-326" font-family="Times New Roman,serif" font-size="10.00">foaf:homepage</text>
</a>
</g>
<text text-anchor="start" x="2168.29" y="-326" font-family="Times New Roman,serif" font-size="10.00">http://ib.usp.br/ecologia</text>
<g id="a_node18_33"><a xlink:href="http://xmlns.com/foaf/0.1/name" xlink:title="&lt;TABLE&gt;">
<text text-anchor="start" x="2087.29" y="-313" font-family="Times New Roman,serif" font-size="10.00">foaf:name</text>
</a>
</g>
<text text-anchor="start" x="2168.29" y="-313" font-family="Times New Roman,serif" font-size="10.00">Departamento de Ecologia do Instituto de Biociencias da USP</text>
</g>
<!-- ann9&#45;&gt;n9 -->
<g id="edge9" class="edge">
<title>ann9:&#45;&gt;n9:</title>
<path fill="none" stroke="gray" stroke-dasharray="5,2" d="M2266.29,-366.09C2266.29,-386.86 2266.29,-413.49 2266.29,-429.35"/>
</g>
<!-- ann10 -->
<g id="node20" class="node">
<title>ann10</title>
<polygon fill="none" stroke="gray" points="283.29,-475 13.29,-475 13.29,-413 289.29,-413 289.29,-469 283.29,-475"/>
<polyline fill="none" stroke="gray" points="283.29,-475 283.29,-469 "/>
<polyline fill="none" stroke="gray" points="289.29,-469 283.29,-469 "/>
<g id="a_node20_34"><a xlink:href="http://purl.org/dc/terms/created" xlink:title="&lt;TABLE&gt;">
<text text-anchor="start" x="23.29" y="-461" font-family="Times New Roman,serif" font-size="10.00">dcterms:created</text>
</a>
</g>
<text text-anchor="start" x="89.29" y="-461" font-family="Times New Roman,serif" font-size="10.00">2021&#45;02&#45;21 16:26:00</text>
<g id="a_node20_35"><a xlink:href="http://purl.org/dc/terms/source" xlink:title="&lt;TABLE&gt;">
<text text-anchor="start" x="23.29" y="-448" font-family="Times New Roman,serif" font-size="10.00">dcterms:source</text>
</a>
</g>
<text text-anchor="start" x="89.29" y="-448" font-family="Times New Roman,serif" font-size="10.00">http://sensor.com/environmentalsensor/env200</text>
<g id="a_node20_36"><a xlink:href="http://purl.org/dc/terms/title" xlink:title="&lt;TABLE&gt;">
<text text-anchor="start" x="23.29" y="-435" font-family="Times New Roman,serif" font-size="10.00">dcterms:title</text>
</a>
</g>
<text text-anchor="start" x="89.29" y="-435" font-family="Times New Roman,serif" font-size="10.00">Environmental Sensor Model ENV 200</text>
<g id="a_node20_37"><a xlink:href="http://purl.org/dc/terms/type" xlink:title="&lt;TABLE&gt;">
<text text-anchor="start" x="23.29" y="-422" font-family="Times New Roman,serif" font-size="10.00">dcterms:type</text>
</a>
</g>
<text text-anchor="start" x="89.29" y="-422" font-family="Times New Roman,serif" font-size="10.00">Sensor</text>
</g>
<!-- ann10&#45;&gt;n10 -->
<g id="edge10" class="edge">
<title>ann10:&#45;&gt;n10:</title>
<path fill="none" stroke="gray" stroke-dasharray="5,2" d="M152.88,-475.12C154,-496.26 155.45,-523.79 156.38,-541.31"/>
</g>
<!-- ann11 -->
<g id="node22" class="node">
<title>ann11</title>
<polygon fill="none" stroke="gray" points="736.79,-475 459.79,-475 459.79,-413 742.79,-413 742.79,-469 736.79,-475"/>
<polyline fill="none" stroke="gray" points="736.79,-475 736.79,-469 "/>
<polyline fill="none" stroke="gray" points="742.79,-469 736.79,-469 "/>
<g id="a_node22_38"><a xlink:href="http://purl.org/dc/terms/created" xlink:title="&lt;TABLE&gt;">
<text text-anchor="start" x="470.29" y="-461" font-family="Times New Roman,serif" font-size="10.00">dcterms:created</text>
</a>
</g>
<text text-anchor="start" x="551.29" y="-461" font-family="Times New Roman,serif" font-size="10.00">2021&#45;02&#45;21 16:26:04</text>
<g id="a_node22_39"><a xlink:href="http://purl.org/dc/terms/description" xlink:title="&lt;TABLE&gt;">
<text text-anchor="start" x="470.29" y="-448" font-family="Times New Roman,serif" font-size="10.00">dcterms:description</text>
</a>
</g>
<text text-anchor="start" x="551.29" y="-448" font-family="Times New Roman,serif" font-size="10.00">Parameter of data capture interval, in minutes.</text>
<g id="a_node22_40"><a xlink:href="http://purl.org/dc/terms/type" xlink:title="&lt;TABLE&gt;">
<text text-anchor="start" x="470.29" y="-435" font-family="Times New Roman,serif" font-size="10.00">dcterms:type</text>
</a>
</g>
<text text-anchor="start" x="551.29" y="-435" font-family="Times New Roman,serif" font-size="10.00">InputParams</text>
<g id="a_node22_41"><a xlink:href="http://www.w3.org/1999/02/22-rdf-syntax-ns#value" xlink:title="&lt;TABLE&gt;">
<text text-anchor="start" x="470.29" y="-422" font-family="Times New Roman,serif" font-size="10.00">rdf:value</text>
</a>
</g>
<text text-anchor="start" x="551.29" y="-422" font-family="Times New Roman,serif" font-size="10.00">60</text>
</g>
<!-- ann11&#45;&gt;n11 -->
<g id="edge11" class="edge">
<title>ann11:&#45;&gt;n11:</title>
<path fill="none" stroke="gray" stroke-dasharray="5,2" d="M568.12,-475.12C544.68,-496.4 514.13,-524.13 494.86,-541.64"/>
</g>
<!-- n12&#45;&gt;n1 -->
<g id="edge15" class="edge">
<title>n12:&#45;&gt;n1:</title>
<path fill="none" stroke="#8b0000" d="M1530.5,-244.01C1499.57,-257.3 1454.37,-275.24 1413.29,-286 1407.85,-287.42 1284.67,-305.69 1192.52,-319.27"/>
<polygon fill="#8b0000" stroke="#8b0000" points="1191.96,-315.82 1182.58,-320.74 1192.98,-322.74 1191.96,-315.82"/>
<text text-anchor="middle" x="1458.29" y="-278" font-family="Times New Roman,serif" font-size="10.00" fill="red">used</text>
</g>
<!-- n12&#45;&gt;n2 -->
<g id="edge14" class="edge">
<title>n12:&#45;&gt;n2:</title>
<path fill="none" stroke="#8b0000" d="M1619.86,-244.01C1633.89,-248.44 1649.12,-253.07 1663.29,-257 1749.61,-280.95 1772.67,-281.14 1859.29,-304 1873.97,-307.88 1889.76,-312.3 1904.48,-316.53"/>
<polygon fill="#8b0000" stroke="#8b0000" points="1903.9,-320.01 1914.47,-319.42 1905.84,-313.28 1903.9,-320.01"/>
<text text-anchor="middle" x="1794.29" y="-278" font-family="Times New Roman,serif" font-size="10.00" fill="red">used</text>
</g>
<!-- n12&#45;&gt;n3 -->
<g id="edge19" class="edge">
<title>n12:&#45;&gt;n3:</title>
<path fill="none" stroke="#8b0000" d="M1546.65,-244.24C1531.04,-256.4 1509.29,-272.81 1489.29,-286 1475.26,-295.24 1459.4,-304.66 1445.33,-312.67"/>
<polygon fill="#8b0000" stroke="#8b0000" points="1443.37,-309.76 1436.38,-317.72 1446.81,-315.86 1443.37,-309.76"/>
<text text-anchor="middle" x="1515.29" y="-278" font-family="Times New Roman,serif" font-size="10.00" fill="red">used</text>
</g>
<!-- n12&#45;&gt;n4 -->
<g id="edge17" class="edge">
<title>n12:&#45;&gt;n4:</title>
<path fill="none" stroke="#8b0000" d="M1521.46,-244.02C1506.28,-248.94 1489.23,-253.83 1473.29,-257 1237.88,-303.86 1173.32,-273.14 935.29,-304 898.23,-308.8 857.02,-315.83 824,-321.88"/>
<polygon fill="#8b0000" stroke="#8b0000" points="823.23,-318.47 814.03,-323.72 824.5,-325.35 823.23,-318.47"/>
<text text-anchor="middle" x="1371.29" y="-278" font-family="Times New Roman,serif" font-size="10.00" fill="red">used</text>
</g>
<!-- n12&#45;&gt;n5 -->
<g id="edge13" class="edge">
<title>n12:&#45;&gt;n5:</title>
<path fill="none" stroke="#8b0000" d="M1599.18,-244.15C1613.89,-252.78 1631.46,-263.77 1646.29,-275 1660.32,-285.63 1674.83,-298.8 1686.48,-310"/>
<polygon fill="#8b0000" stroke="#8b0000" points="1684.09,-312.55 1693.69,-317.03 1688.98,-307.54 1684.09,-312.55"/>
<text text-anchor="middle" x="1668.29" y="-278" font-family="Times New Roman,serif" font-size="10.00" fill="red">used</text>
</g>
<!-- b2 -->
<g id="node26" class="node">
<title>b2</title>
<ellipse fill="gray" stroke="gray" cx="1550.29" cy="-335" rx="1.8" ry="1.8"/>
</g>
<!-- n12&#45;&gt;b2 -->
<g id="edge22" class="edge">
<title>n12:&#45;&gt;b2:</title>
<path fill="none" stroke="#fed37f" d="M1565.39,-244.19C1560.7,-272.07 1551.82,-324.87 1550.46,-332.95"/>
<text text-anchor="middle" x="1601.29" y="-278" font-family="Times New Roman,serif" font-size="10.00">wasAssociatedWith</text>
</g>
<!-- ann12 -->
<g id="node24" class="node">
<title>ann12</title>
<polygon fill="none" stroke="gray" points="1706.29,-148 1424.29,-148 1424.29,-99 1712.29,-99 1712.29,-142 1706.29,-148"/>
<polyline fill="none" stroke="gray" points="1706.29,-148 1706.29,-142 "/>
<polyline fill="none" stroke="gray" points="1712.29,-142 1706.29,-142 "/>
<g id="a_node24_42"><a xlink:href="http://purl.org/dc/terms/created" xlink:title="&lt;TABLE&gt;">
<text text-anchor="start" x="1434.29" y="-133.5" font-family="Times New Roman,serif" font-size="10.00">dcterms:created</text>
</a>
</g>
<text text-anchor="start" x="1500.29" y="-133.5" font-family="Times New Roman,serif" font-size="10.00">2021&#45;02&#45;21 16:26:42</text>
<g id="a_node24_43"><a xlink:href="http://purl.org/dc/terms/title" xlink:title="&lt;TABLE&gt;">
<text text-anchor="start" x="1434.29" y="-120.5" font-family="Times New Roman,serif" font-size="10.00">dcterms:title</text>
</a>
</g>
<text text-anchor="start" x="1500.29" y="-120.5" font-family="Times New Roman,serif" font-size="10.00">Environment Data Processing using Software Tool</text>
<g id="a_node24_44"><a xlink:href="http://purl.org/dc/terms/type" xlink:title="&lt;TABLE&gt;">
<text text-anchor="start" x="1434.29" y="-107.5" font-family="Times New Roman,serif" font-size="10.00">dcterms:type</text>
</a>
</g>
<text text-anchor="start" x="1500.29" y="-107.5" font-family="Times New Roman,serif" font-size="10.00">DataProcessing</text>
</g>
<!-- ann12&#45;&gt;n12 -->
<g id="edge12" class="edge">
<title>ann12:&#45;&gt;n12:</title>
<path fill="none" stroke="gray" stroke-dasharray="5,2" d="M1568.29,-148.06C1568.29,-166.4 1568.29,-191.41 1568.29,-207.87"/>
</g>
<!-- b1&#45;&gt;n7 -->
<g id="edge21" class="edge">
<title>b1:&#45;&gt;n7:</title>
<path fill="none" stroke="#fed37f" d="M337.23,-561.62C337.04,-566.66 336.97,-587.42 348.29,-597 401.63,-642.19 607.16,-650.06 709.99,-651.1"/>
<polygon fill="#fed37f" stroke="#fed37f" points="710.18,-654.6 720.21,-651.19 710.24,-647.6 710.18,-654.6"/>
</g>
<!-- b2&#45;&gt;n9 -->
<g id="edge23" class="edge">
<title>b2:&#45;&gt;n9:</title>
<path fill="none" stroke="#fed37f" d="M1550.3,-336.93C1550.42,-341.12 1551.5,-358.34 1561.29,-366 1608.48,-402.94 1991.66,-428.23 2172.48,-438.22"/>
<polygon fill="#fed37f" stroke="#fed37f" points="2172.34,-441.72 2182.51,-438.77 2172.72,-434.73 2172.34,-441.72"/>
</g>
</g>
</svg>
