<?xml version="1.0" encoding="UTF-8" standalone="no"?>
<!DOCTYPE svg PUBLIC "-//W3C//DTD SVG 1.1//EN"
 "http://www.w3.org/Graphics/SVG/1.1/DTD/svg11.dtd">
<!-- Generated by graphviz version 2.40.1 (20161225.0304)
 -->
<!-- Title: G Pages: 1 -->
<svg width="3236pt" height="678pt"
 viewBox="0.00 0.00 3235.50 678.00" xmlns="http://www.w3.org/2000/svg" xmlns:xlink="http://www.w3.org/1999/xlink">
<g id="graph0" class="graph" transform="scale(1 1) rotate(0) translate(4 674)">
<title>G</title>
<polygon fill="#ffffff" stroke="transparent" points="-4,4 -4,-674 3231.5,-674 3231.5,4 -4,4"/>
<!-- n1 -->
<g id="node1" class="node">
<title>n1</title>
<g id="a_node1"><a xlink:href="http://bioprov.org/input_params/validateRanges" xlink:title="bioprov:input_params/validateRanges">
<ellipse fill="#fffc87" stroke="#808080" cx="1522.5" cy="-335" rx="186.5669" ry="18"/>
<text text-anchor="middle" x="1522.5" y="-331.3" font-family="Times,serif" font-size="14.00" fill="#000000">bioprov:input_params/validateRanges</text>
</a>
</g>
</g>
<!-- ann1 -->
<g id="node2" class="node">
<title>ann1</title>
<polygon fill="none" stroke="#c0c0c0" points="1715.5,-257 1323.5,-257 1323.5,-195 1721.5,-195 1721.5,-251 1715.5,-257"/>
<polyline fill="none" stroke="#c0c0c0" points="1715.5,-257 1715.5,-251 "/>
<polyline fill="none" stroke="#c0c0c0" points="1721.5,-251 1715.5,-251 "/>
<g id="a_node2_0"><a xlink:href="http://purl.org/dc/terms/created" xlink:title="&lt;TABLE&gt;">
<text text-anchor="start" x="1333.5" y="-243" font-family="Times,serif" font-size="10.00" fill="#000000">dcterms:created</text>
</a>
</g>
<text text-anchor="start" x="1433.5" y="-243" font-family="Times,serif" font-size="10.00" fill="#000000">2021&#45;02&#45;22 21:33:29</text>
<g id="a_node2_1"><a xlink:href="http://purl.org/dc/terms/description" xlink:title="&lt;TABLE&gt;">
<text text-anchor="start" x="1333.5" y="-230" font-family="Times,serif" font-size="10.00" fill="#000000">dcterms:description</text>
</a>
</g>
<text text-anchor="start" x="1433.5" y="-230" font-family="Times,serif" font-size="10.00" fill="#000000">Set wether the validation of data ranges are considered.</text>
<g id="a_node2_2"><a xlink:href="http://purl.org/dc/terms/type" xlink:title="&lt;TABLE&gt;">
<text text-anchor="start" x="1333.5" y="-217" font-family="Times,serif" font-size="10.00" fill="#000000">dcterms:type</text>
</a>
</g>
<text text-anchor="start" x="1433.5" y="-217" font-family="Times,serif" font-size="10.00" fill="#000000">InputParams</text>
<g id="a_node2_3"><a xlink:href="http://www.w3.org/1999/02/22-rdf-syntax-ns#value" xlink:title="&lt;TABLE&gt;">
<text text-anchor="start" x="1333.5" y="-204" font-family="Times,serif" font-size="10.00" fill="#000000">rdf:value</text>
</a>
</g>
<text text-anchor="start" x="1433.5" y="-204" font-family="Times,serif" font-size="10.00" fill="#000000">TRUE</text>
</g>
<!-- ann1&#45;&gt;n1 -->
<g id="edge1" class="edge">
<title>ann1&#45;&gt;n1</title>
<path fill="none" stroke="#c0c0c0" stroke-dasharray="5,2" d="M1522.5,-257.235C1522.5,-276.4851 1522.5,-300.5024 1522.5,-316.7127"/>
</g>
<!-- n2 -->
<g id="node3" class="node">
<title>n2</title>
<g id="a_node3"><a xlink:href="http://poli.usp.br/datasets/30" xlink:title="poli:datasets/30">
<ellipse fill="#fffc87" stroke="#808080" cx="1214.5" cy="-335" rx="85.2851" ry="18"/>
<text text-anchor="middle" x="1214.5" y="-331.3" font-family="Times,serif" font-size="14.00" fill="#000000">poli:datasets/30</text>
</a>
</g>
</g>
<!-- n7 -->
<g id="node13" class="node">
<title>n7</title>
<g id="a_node13"><a xlink:href="http://usp.br/poli" xlink:title="usp:poli">
<polygon fill="#fed37f" stroke="#000000" points="1199.2928,-657.5623 1140.5,-670 1081.7072,-657.5623 1081.7621,-637.4377 1199.2379,-637.4377 1199.2928,-657.5623"/>
<text text-anchor="middle" x="1140.5" y="-648.3" font-family="Times,serif" font-size="14.00" fill="#000000">usp:poli</text>
</a>
</g>
</g>
<!-- n2&#45;&gt;n7 -->
<g id="edge24" class="edge">
<title>n2&#45;&gt;n7</title>
<path fill="none" stroke="#fed37f" d="M1213.3141,-353.2177C1211.0202,-384.4225 1205.0543,-449.962 1192.5,-504 1180.6048,-555.2012 1172.4747,-566.6039 1154.5,-616 1153.0955,-619.8598 1151.5616,-623.9334 1150.0407,-627.8976"/>
<polygon fill="#fed37f" stroke="#fed37f" points="1146.7303,-626.7535 1146.3678,-637.3421 1153.2544,-629.2907 1146.7303,-626.7535"/>
<text text-anchor="middle" x="1236.5" y="-496" font-family="Times,serif" font-size="10.00" fill="#000000">wasAttributedTo</text>
</g>
<!-- n9 -->
<g id="node17" class="node">
<title>n9</title>
<g id="a_node17"><a xlink:href="http://poli.usp.br/activities/capture" xlink:title="poli:activities/capture">
<polygon fill="#9fb1fc" stroke="#0000ff" points="1182,-462 1009,-462 1009,-426 1182,-426 1182,-462"/>
<text text-anchor="middle" x="1095.5" y="-440.3" font-family="Times,serif" font-size="14.00" fill="#000000">poli:activities/capture</text>
</a>
</g>
</g>
<!-- n2&#45;&gt;n9 -->
<g id="edge26" class="edge">
<title>n2&#45;&gt;n9</title>
<path fill="none" stroke="#006400" d="M1166.3687,-349.8565C1148.2999,-357.5302 1128.9131,-368.5977 1115.5,-384 1107.7403,-392.9105 1102.9703,-404.9315 1100.0477,-415.8737"/>
<polygon fill="#006400" stroke="#006400" points="1096.5729,-415.3708 1097.7743,-425.8973 1103.3995,-416.9192 1096.5729,-415.3708"/>
<text text-anchor="middle" x="1158" y="-387" font-family="Times,serif" font-size="10.00" fill="#006400">wasGeneratedBy</text>
</g>
<!-- ann2 -->
<g id="node4" class="node">
<title>ann2</title>
<polygon fill="none" stroke="#c0c0c0" points="1299,-257 1022,-257 1022,-195 1305,-195 1305,-251 1299,-257"/>
<polyline fill="none" stroke="#c0c0c0" points="1299,-257 1299,-251 "/>
<polyline fill="none" stroke="#c0c0c0" points="1305,-251 1299,-251 "/>
<g id="a_node4_4"><a xlink:href="http://purl.org/dc/terms/created" xlink:title="&lt;TABLE&gt;">
<text text-anchor="start" x="1032.5" y="-243" font-family="Times,serif" font-size="10.00" fill="#000000">dcterms:created</text>
</a>
</g>
<text text-anchor="start" x="1115.5" y="-243" font-family="Times,serif" font-size="10.00" fill="#000000">2021&#45;02&#45;22 21:33:29</text>
<g id="a_node4_5"><a xlink:href="http://purl.org/dc/terms/source" xlink:title="&lt;TABLE&gt;">
<text text-anchor="start" x="1032.5" y="-230" font-family="Times,serif" font-size="10.00" fill="#000000">dcterms:source</text>
</a>
</g>
<text text-anchor="start" x="1115.5" y="-230" font-family="Times,serif" font-size="10.00" fill="#000000">http://poli.usp.br/datasets/30</text>
<g id="a_node4_6"><a xlink:href="http://purl.org/dc/terms/title" xlink:title="&lt;TABLE&gt;">
<text text-anchor="start" x="1032.5" y="-217" font-family="Times,serif" font-size="10.00" fill="#000000">dcterms:title</text>
</a>
</g>
<text text-anchor="start" x="1115.5" y="-217" font-family="Times,serif" font-size="10.00" fill="#000000">Environmental Monitoring Raw Data</text>
<g id="a_node4_7"><a xlink:href="http://purl.org/dc/terms/type" xlink:title="&lt;TABLE&gt;">
<text text-anchor="start" x="1032.5" y="-204" font-family="Times,serif" font-size="10.00" fill="#000000">dcterms:type</text>
</a>
</g>
<text text-anchor="start" x="1115.5" y="-204" font-family="Times,serif" font-size="10.00" fill="#000000">Raw Dataset</text>
</g>
<!-- ann2&#45;&gt;n2 -->
<g id="edge2" class="edge">
<title>ann2&#45;&gt;n2</title>
<path fill="none" stroke="#c0c0c0" stroke-dasharray="5,2" d="M1178.1146,-257.235C1187.1803,-276.6109 1198.5059,-300.8166 1206.0918,-317.0295"/>
</g>
<!-- n3 -->
<g id="node5" class="node">
<title>n3</title>
<g id="a_node5"><a xlink:href="http://ib.usp.br/ecologia" xlink:title="ib_usp:ecologia">
<polygon fill="#fed37f" stroke="#000000" points="2702.5567,-449.5623 2600.5,-462 2498.4433,-449.5623 2498.5385,-429.4377 2702.4615,-429.4377 2702.5567,-449.5623"/>
<text text-anchor="middle" x="2600.5" y="-440.3" font-family="Times,serif" font-size="14.00" fill="#000000">ib_usp:ecologia</text>
</a>
</g>
</g>
<!-- ann3 -->
<g id="node6" class="node">
<title>ann3</title>
<polygon fill="none" stroke="#c0c0c0" points="2823,-366 2372,-366 2372,-304 2829,-304 2829,-360 2823,-366"/>
<polyline fill="none" stroke="#c0c0c0" points="2823,-366 2823,-360 "/>
<polyline fill="none" stroke="#c0c0c0" points="2829,-360 2823,-360 "/>
<g id="a_node6_8"><a xlink:href="http://purl.org/dc/terms/created" xlink:title="&lt;TABLE&gt;">
<text text-anchor="start" x="2382.5" y="-352" font-family="Times,serif" font-size="10.00" fill="#000000">dcterms:created</text>
</a>
</g>
<text text-anchor="start" x="2482.5" y="-352" font-family="Times,serif" font-size="10.00" fill="#000000">2021&#45;02&#45;22 21:33:29</text>
<g id="a_node6_9"><a xlink:href="http://purl.org/dc/terms/description" xlink:title="&lt;TABLE&gt;">
<text text-anchor="start" x="2382.5" y="-339" font-family="Times,serif" font-size="10.00" fill="#000000">dcterms:description</text>
</a>
</g>
<text text-anchor="start" x="2482.5" y="-339" font-family="Times,serif" font-size="10.00" fill="#000000">Ecology Department &#45; Bioscience Instituty of University of Sao Paulo</text>
<g id="a_node6_10"><a xlink:href="http://xmlns.com/foaf/0.1/homepage" xlink:title="&lt;TABLE&gt;">
<text text-anchor="start" x="2382.5" y="-326" font-family="Times,serif" font-size="10.00" fill="#000000">foaf:homepage</text>
</a>
</g>
<text text-anchor="start" x="2482.5" y="-326" font-family="Times,serif" font-size="10.00" fill="#000000">http://ib.usp.br/ecologia</text>
<g id="a_node6_11"><a xlink:href="http://xmlns.com/foaf/0.1/name" xlink:title="&lt;TABLE&gt;">
<text text-anchor="start" x="2382.5" y="-313" font-family="Times,serif" font-size="10.00" fill="#000000">foaf:name</text>
</a>
</g>
<text text-anchor="start" x="2482.5" y="-313" font-family="Times,serif" font-size="10.00" fill="#000000">Departamento de Ecologia do Instituto de Biociencias da USP</text>
</g>
<!-- ann3&#45;&gt;n3 -->
<g id="edge3" class="edge">
<title>ann3&#45;&gt;n3</title>
<path fill="none" stroke="#c0c0c0" stroke-dasharray="5,2" d="M2600.5,-366.235C2600.5,-386.9949 2600.5,-413.2992 2600.5,-429.3767"/>
</g>
<!-- n4 -->
<g id="node7" class="node">
<title>n4</title>
<g id="a_node7"><a xlink:href="http://ib.usp.br/activities/processing" xlink:title="ib_usp:activities/processing">
<polygon fill="#9fb1fc" stroke="#0000ff" points="1955.5,-244 1739.5,-244 1739.5,-208 1955.5,-208 1955.5,-244"/>
<text text-anchor="middle" x="1847.5" y="-222.3" font-family="Times,serif" font-size="14.00" fill="#000000">ib_usp:activities/processing</text>
</a>
</g>
</g>
<!-- n4&#45;&gt;n1 -->
<g id="edge19" class="edge">
<title>n4&#45;&gt;n1</title>
<path fill="none" stroke="#8b0000" d="M1793.468,-244.1215C1735.7624,-263.4751 1644.4717,-294.0926 1584.0375,-314.3613"/>
<polygon fill="#8b0000" stroke="#8b0000" points="1582.6105,-311.1482 1574.2424,-317.6464 1584.8364,-317.7849 1582.6105,-311.1482"/>
<text text-anchor="middle" x="1707.5" y="-278" font-family="Times,serif" font-size="10.00" fill="#ff0000">used</text>
</g>
<!-- n4&#45;&gt;n2 -->
<g id="edge17" class="edge">
<title>n4&#45;&gt;n2</title>
<path fill="none" stroke="#8b0000" d="M1785.9437,-244.0778C1768.1707,-248.8149 1748.668,-253.5547 1730.5,-257 1552.8987,-290.6797 1503.913,-269.3423 1326.5,-304 1308.706,-307.4761 1289.6036,-312.3316 1272.304,-317.1698"/>
<polygon fill="#8b0000" stroke="#8b0000" points="1271.0083,-313.8996 1262.3502,-320.0059 1272.9265,-320.6317 1271.0083,-313.8996"/>
<text text-anchor="middle" x="1610.5" y="-278" font-family="Times,serif" font-size="10.00" fill="#ff0000">used</text>
</g>
<!-- n5 -->
<g id="node9" class="node">
<title>n5</title>
<g id="a_node9"><a xlink:href="http://bioprov.org/input_params/acceptErrors" xlink:title="bioprov:input_params/acceptErrors">
<ellipse fill="#fffc87" stroke="#808080" cx="2177.5" cy="-335" rx="176.5689" ry="18"/>
<text text-anchor="middle" x="2177.5" y="-331.3" font-family="Times,serif" font-size="14.00" fill="#000000">bioprov:input_params/acceptErrors</text>
</a>
</g>
</g>
<!-- n4&#45;&gt;n5 -->
<g id="edge13" class="edge">
<title>n4&#45;&gt;n5</title>
<path fill="none" stroke="#8b0000" d="M1902.3632,-244.1215C1961.1645,-263.5437 2054.3097,-294.3099 2115.6674,-314.5765"/>
<polygon fill="#8b0000" stroke="#8b0000" points="2114.6387,-317.9226 2125.2319,-317.7357 2116.8342,-311.2758 2114.6387,-317.9226"/>
<text text-anchor="middle" x="2034.5" y="-278" font-family="Times,serif" font-size="10.00" fill="#ff0000">used</text>
</g>
<!-- n6 -->
<g id="node11" class="node">
<title>n6</title>
<g id="a_node11"><a xlink:href="http://poli.usp.br/datascience/algol/10" xlink:title="poli:datascience/algol/10">
<ellipse fill="#fffc87" stroke="#808080" cx="2973.5" cy="-335" rx="126.1777" ry="18"/>
<text text-anchor="middle" x="2973.5" y="-331.3" font-family="Times,serif" font-size="14.00" fill="#000000">poli:datascience/algol/10</text>
</a>
</g>
</g>
<!-- n4&#45;&gt;n6 -->
<g id="edge18" class="edge">
<title>n4&#45;&gt;n6</title>
<path fill="none" stroke="#8b0000" d="M1906.2175,-244.0788C1924.6994,-249.0862 1945.2997,-253.973 1964.5,-257 2348.7598,-317.5793 2453.2852,-249.8247 2838.5,-304 2860.0853,-307.0357 2883.3101,-311.8082 2904.3071,-316.7069"/>
<polygon fill="#8b0000" stroke="#8b0000" points="2903.5614,-320.1272 2914.1001,-319.0375 2905.1821,-313.3173 2903.5614,-320.1272"/>
<text text-anchor="middle" x="2665.5" y="-278" font-family="Times,serif" font-size="10.00" fill="#ff0000">used</text>
</g>
<!-- n11 -->
<g id="node21" class="node">
<title>n11</title>
<g id="a_node21"><a xlink:href="http://tools.com/software/xyz" xlink:title="tools.com:software/xyz">
<ellipse fill="#fffc87" stroke="#808080" cx="1865.5" cy="-335" rx="117.7793" ry="18"/>
<text text-anchor="middle" x="1865.5" y="-331.3" font-family="Times,serif" font-size="14.00" fill="#000000">tools.com:software/xyz</text>
</a>
</g>
</g>
<!-- n4&#45;&gt;n11 -->
<g id="edge16" class="edge">
<title>n4&#45;&gt;n11</title>
<path fill="none" stroke="#8b0000" d="M1850.5535,-244.4904C1853.3762,-261.5835 1857.6115,-287.2307 1860.8537,-306.8642"/>
<polygon fill="#8b0000" stroke="#8b0000" points="1857.409,-307.4866 1862.4916,-316.7827 1864.3155,-306.346 1857.409,-307.4866"/>
<text text-anchor="middle" x="1869.5" y="-278" font-family="Times,serif" font-size="10.00" fill="#ff0000">used</text>
</g>
<!-- b2 -->
<g id="node26" class="node">
<title>b2</title>
<ellipse fill="#c0c0c0" stroke="#c0c0c0" cx="1728.5" cy="-335" rx="1.8" ry="1.8"/>
</g>
<!-- n4&#45;&gt;b2 -->
<g id="edge22" class="edge">
<title>n4&#45;&gt;b2</title>
<path fill="none" stroke="#fed37f" d="M1803.2676,-244.0201C1787.3254,-251.935 1769.9645,-262.3398 1756.5,-275 1738.076,-292.3235 1730.6395,-324.1837 1728.9124,-332.8019"/>
<text text-anchor="middle" x="1804.5" y="-278" font-family="Times,serif" font-size="10.00" fill="#000000">wasAssociatedWith</text>
</g>
<!-- ann4 -->
<g id="node8" class="node">
<title>ann4</title>
<polygon fill="none" stroke="#c0c0c0" points="2016.5,-148 1672.5,-148 1672.5,-99 2022.5,-99 2022.5,-142 2016.5,-148"/>
<polyline fill="none" stroke="#c0c0c0" points="2016.5,-148 2016.5,-142 "/>
<polyline fill="none" stroke="#c0c0c0" points="2022.5,-142 2016.5,-142 "/>
<g id="a_node8_12"><a xlink:href="http://purl.org/dc/terms/created" xlink:title="&lt;TABLE&gt;">
<text text-anchor="start" x="1682.5" y="-133.5" font-family="Times,serif" font-size="10.00" fill="#000000">dcterms:created</text>
</a>
</g>
<text text-anchor="start" x="1765.5" y="-133.5" font-family="Times,serif" font-size="10.00" fill="#000000">2021&#45;02&#45;22 21:33:30</text>
<g id="a_node8_13"><a xlink:href="http://purl.org/dc/terms/title" xlink:title="&lt;TABLE&gt;">
<text text-anchor="start" x="1682.5" y="-120.5" font-family="Times,serif" font-size="10.00" fill="#000000">dcterms:title</text>
</a>
</g>
<text text-anchor="start" x="1765.5" y="-120.5" font-family="Times,serif" font-size="10.00" fill="#000000">Environment Data Processing using Software Tool</text>
<g id="a_node8_14"><a xlink:href="http://purl.org/dc/terms/type" xlink:title="&lt;TABLE&gt;">
<text text-anchor="start" x="1682.5" y="-107.5" font-family="Times,serif" font-size="10.00" fill="#000000">dcterms:type</text>
</a>
</g>
<text text-anchor="start" x="1765.5" y="-107.5" font-family="Times,serif" font-size="10.00" fill="#000000">DataProcessing</text>
</g>
<!-- ann4&#45;&gt;n4 -->
<g id="edge4" class="edge">
<title>ann4&#45;&gt;n4</title>
<path fill="none" stroke="#c0c0c0" stroke-dasharray="5,2" d="M1847.5,-148.0513C1847.5,-166.4114 1847.5,-191.1139 1847.5,-207.748"/>
</g>
<!-- ann5 -->
<g id="node10" class="node">
<title>ann5</title>
<polygon fill="none" stroke="#c0c0c0" points="2564,-257 2195,-257 2195,-195 2570,-195 2570,-251 2564,-257"/>
<polyline fill="none" stroke="#c0c0c0" points="2564,-257 2564,-251 "/>
<polyline fill="none" stroke="#c0c0c0" points="2570,-251 2564,-251 "/>
<g id="a_node10_15"><a xlink:href="http://purl.org/dc/terms/created" xlink:title="&lt;TABLE&gt;">
<text text-anchor="start" x="2205.5" y="-243" font-family="Times,serif" font-size="10.00" fill="#000000">dcterms:created</text>
</a>
</g>
<text text-anchor="start" x="2305.5" y="-243" font-family="Times,serif" font-size="10.00" fill="#000000">2021&#45;02&#45;22 21:33:29</text>
<g id="a_node10_16"><a xlink:href="http://purl.org/dc/terms/description" xlink:title="&lt;TABLE&gt;">
<text text-anchor="start" x="2205.5" y="-230" font-family="Times,serif" font-size="10.00" fill="#000000">dcterms:description</text>
</a>
</g>
<text text-anchor="start" x="2305.5" y="-230" font-family="Times,serif" font-size="10.00" fill="#000000">Set whether the errors are discarded or maintained</text>
<g id="a_node10_17"><a xlink:href="http://purl.org/dc/terms/type" xlink:title="&lt;TABLE&gt;">
<text text-anchor="start" x="2205.5" y="-217" font-family="Times,serif" font-size="10.00" fill="#000000">dcterms:type</text>
</a>
</g>
<text text-anchor="start" x="2305.5" y="-217" font-family="Times,serif" font-size="10.00" fill="#000000">InputParams</text>
<g id="a_node10_18"><a xlink:href="http://www.w3.org/1999/02/22-rdf-syntax-ns#value" xlink:title="&lt;TABLE&gt;">
<text text-anchor="start" x="2205.5" y="-204" font-family="Times,serif" font-size="10.00" fill="#000000">rdf:value</text>
</a>
</g>
<text text-anchor="start" x="2305.5" y="-204" font-family="Times,serif" font-size="10.00" fill="#000000">FALSE</text>
</g>
<!-- ann5&#45;&gt;n5 -->
<g id="edge5" class="edge">
<title>ann5&#45;&gt;n5</title>
<path fill="none" stroke="#c0c0c0" stroke-dasharray="5,2" d="M2324.0296,-257.0892C2287.3428,-276.5958 2241.3648,-301.0426 2210.7957,-317.2964"/>
</g>
<!-- ann6 -->
<g id="node12" class="node">
<title>ann6</title>
<polygon fill="none" stroke="#c0c0c0" points="3093,-250.5 2800,-250.5 2800,-201.5 3099,-201.5 3099,-244.5 3093,-250.5"/>
<polyline fill="none" stroke="#c0c0c0" points="3093,-250.5 3093,-244.5 "/>
<polyline fill="none" stroke="#c0c0c0" points="3099,-244.5 3093,-244.5 "/>
<g id="a_node12_19"><a xlink:href="http://purl.org/dc/terms/created" xlink:title="&lt;TABLE&gt;">
<text text-anchor="start" x="2810.5" y="-236" font-family="Times,serif" font-size="10.00" fill="#000000">dcterms:created</text>
</a>
</g>
<text text-anchor="start" x="2893.5" y="-236" font-family="Times,serif" font-size="10.00" fill="#000000">2021&#45;02&#45;22 21:33:29</text>
<g id="a_node12_20"><a xlink:href="http://purl.org/dc/terms/source" xlink:title="&lt;TABLE&gt;">
<text text-anchor="start" x="2810.5" y="-223" font-family="Times,serif" font-size="10.00" fill="#000000">dcterms:source</text>
</a>
</g>
<text text-anchor="start" x="2893.5" y="-223" font-family="Times,serif" font-size="10.00" fill="#000000">http://github.com/poli&#45;usp/environAlgol</text>
<g id="a_node12_21"><a xlink:href="http://purl.org/dc/terms/title" xlink:title="&lt;TABLE&gt;">
<text text-anchor="start" x="2810.5" y="-210" font-family="Times,serif" font-size="10.00" fill="#000000">dcterms:title</text>
</a>
</g>
<text text-anchor="start" x="2893.5" y="-210" font-family="Times,serif" font-size="10.00" fill="#000000">Algorithm for environmental processing</text>
</g>
<!-- ann6&#45;&gt;n6 -->
<g id="edge6" class="edge">
<title>ann6&#45;&gt;n6</title>
<path fill="none" stroke="#c0c0c0" stroke-dasharray="5,2" d="M2954.946,-250.7338C2959.3716,-270.8335 2965.5129,-298.7251 2969.4965,-316.8172"/>
</g>
<!-- ann7 -->
<g id="node14" class="node">
<title>ann7</title>
<polygon fill="none" stroke="#c0c0c0" points="375,-597 0,-597 0,-522 381,-522 381,-591 375,-597"/>
<polyline fill="none" stroke="#c0c0c0" points="375,-597 375,-591 "/>
<polyline fill="none" stroke="#c0c0c0" points="381,-591 375,-591 "/>
<g id="a_node14_22"><a xlink:href="http://purl.org/dc/terms/created" xlink:title="&lt;TABLE&gt;">
<text text-anchor="start" x="10.5" y="-582.5" font-family="Times,serif" font-size="10.00" fill="#000000">dcterms:created</text>
</a>
</g>
<text text-anchor="start" x="110.5" y="-582.5" font-family="Times,serif" font-size="10.00" fill="#000000">2021&#45;02&#45;22 21:33:28</text>
<g id="a_node14_23"><a xlink:href="http://purl.org/dc/terms/description" xlink:title="&lt;TABLE&gt;">
<text text-anchor="start" x="10.5" y="-569.5" font-family="Times,serif" font-size="10.00" fill="#000000">dcterms:description</text>
</a>
</g>
<text text-anchor="start" x="110.5" y="-569.5" font-family="Times,serif" font-size="10.00" fill="#000000">Engineering Departament of University of Sao Paulo.</text>
<g id="a_node14_24"><a xlink:href="http://purl.org/dc/terms/type" xlink:title="&lt;TABLE&gt;">
<text text-anchor="start" x="10.5" y="-556.5" font-family="Times,serif" font-size="10.00" fill="#000000">dcterms:type</text>
</a>
</g>
<text text-anchor="start" x="110.5" y="-556.5" font-family="Times,serif" font-size="10.00" fill="#000000">Institution</text>
<g id="a_node14_25"><a xlink:href="http://xmlns.com/foaf/0.1/homepage" xlink:title="&lt;TABLE&gt;">
<text text-anchor="start" x="10.5" y="-543.5" font-family="Times,serif" font-size="10.00" fill="#000000">foaf:homepage</text>
</a>
</g>
<text text-anchor="start" x="110.5" y="-543.5" font-family="Times,serif" font-size="10.00" fill="#000000">http://poli.usp.br/</text>
<g id="a_node14_26"><a xlink:href="http://xmlns.com/foaf/0.1/name" xlink:title="&lt;TABLE&gt;">
<text text-anchor="start" x="10.5" y="-530.5" font-family="Times,serif" font-size="10.00" fill="#000000">foaf:name</text>
</a>
</g>
<text text-anchor="start" x="110.5" y="-530.5" font-family="Times,serif" font-size="10.00" fill="#000000">Escola Politecnica da USP</text>
</g>
<!-- ann7&#45;&gt;n7 -->
<g id="edge7" class="edge">
<title>ann7&#45;&gt;n7</title>
<path fill="none" stroke="#c0c0c0" stroke-dasharray="5,2" d="M381.0771,-595.8684C383.9021,-596.2587 386.7111,-596.6363 389.5,-597 646.1741,-630.4738 955.0578,-645.0691 1081.8455,-649.9644"/>
</g>
<!-- n8 -->
<g id="node15" class="node">
<title>n8</title>
<g id="a_node15"><a xlink:href="http://sensor.com/environmentalsensor/env200" xlink:title="sensor.com:environmentalsensor/env200">
<ellipse fill="#fffc87" stroke="#808080" cx="599.5" cy="-559.5" rx="200.6645" ry="18"/>
<text text-anchor="middle" x="599.5" y="-555.8" font-family="Times,serif" font-size="14.00" fill="#000000">sensor.com:environmentalsensor/env200</text>
</a>
</g>
</g>
<!-- ann8 -->
<g id="node16" class="node">
<title>ann8</title>
<polygon fill="none" stroke="#c0c0c0" points="615.5,-475 289.5,-475 289.5,-413 621.5,-413 621.5,-469 615.5,-475"/>
<polyline fill="none" stroke="#c0c0c0" points="615.5,-475 615.5,-469 "/>
<polyline fill="none" stroke="#c0c0c0" points="621.5,-469 615.5,-469 "/>
<g id="a_node16_27"><a xlink:href="http://purl.org/dc/terms/created" xlink:title="&lt;TABLE&gt;">
<text text-anchor="start" x="299.5" y="-461" font-family="Times,serif" font-size="10.00" fill="#000000">dcterms:created</text>
</a>
</g>
<text text-anchor="start" x="382.5" y="-461" font-family="Times,serif" font-size="10.00" fill="#000000">2021&#45;02&#45;22 21:33:28</text>
<g id="a_node16_28"><a xlink:href="http://purl.org/dc/terms/source" xlink:title="&lt;TABLE&gt;">
<text text-anchor="start" x="299.5" y="-448" font-family="Times,serif" font-size="10.00" fill="#000000">dcterms:source</text>
</a>
</g>
<text text-anchor="start" x="382.5" y="-448" font-family="Times,serif" font-size="10.00" fill="#000000">http://sensor.com/environmentalsensor/env200</text>
<g id="a_node16_29"><a xlink:href="http://purl.org/dc/terms/title" xlink:title="&lt;TABLE&gt;">
<text text-anchor="start" x="299.5" y="-435" font-family="Times,serif" font-size="10.00" fill="#000000">dcterms:title</text>
</a>
</g>
<text text-anchor="start" x="382.5" y="-435" font-family="Times,serif" font-size="10.00" fill="#000000">Environmental Sensor Model ENV 200</text>
<g id="a_node16_30"><a xlink:href="http://purl.org/dc/terms/type" xlink:title="&lt;TABLE&gt;">
<text text-anchor="start" x="299.5" y="-422" font-family="Times,serif" font-size="10.00" fill="#000000">dcterms:type</text>
</a>
</g>
<text text-anchor="start" x="382.5" y="-422" font-family="Times,serif" font-size="10.00" fill="#000000">Sensor</text>
</g>
<!-- ann8&#45;&gt;n8 -->
<g id="edge8" class="edge">
<title>ann8&#45;&gt;n8</title>
<path fill="none" stroke="#c0c0c0" stroke-dasharray="5,2" d="M494.4685,-475.256C520.9558,-496.501 555.0576,-523.8535 577.0976,-541.5314"/>
</g>
<!-- n9&#45;&gt;n8 -->
<g id="edge14" class="edge">
<title>n9&#45;&gt;n8</title>
<path fill="none" stroke="#8b0000" d="M1042.9773,-462.0503C1028.9392,-466.575 1013.7164,-471.2141 999.5,-475 898.2088,-501.9747 780.6648,-525.9483 699.3299,-541.4061"/>
<polygon fill="#8b0000" stroke="#8b0000" points="698.2716,-538.0442 689.0967,-543.3424 699.573,-544.9221 698.2716,-538.0442"/>
<text text-anchor="middle" x="936.5" y="-496" font-family="Times,serif" font-size="10.00" fill="#ff0000">used</text>
</g>
<!-- n12 -->
<g id="node23" class="node">
<title>n12</title>
<g id="a_node23"><a xlink:href="http://bioprov.org/input_params/interval" xlink:title="bioprov:input_params/interval">
<ellipse fill="#fffc87" stroke="#808080" cx="969.5" cy="-559.5" rx="151.3732" ry="18"/>
<text text-anchor="middle" x="969.5" y="-555.8" font-family="Times,serif" font-size="14.00" fill="#000000">bioprov:input_params/interval</text>
</a>
</g>
</g>
<!-- n9&#45;&gt;n12 -->
<g id="edge15" class="edge">
<title>n9&#45;&gt;n12</title>
<path fill="none" stroke="#8b0000" d="M1075.8125,-462.0469C1054.5455,-481.5417 1020.5155,-512.7358 996.7007,-534.566"/>
<polygon fill="#8b0000" stroke="#8b0000" points="994.0558,-532.2425 989.0493,-541.5799 998.7859,-537.4026 994.0558,-532.2425"/>
<text text-anchor="middle" x="1052.5" y="-496" font-family="Times,serif" font-size="10.00" fill="#ff0000">used</text>
</g>
<!-- b1 -->
<g id="node25" class="node">
<title>b1</title>
<ellipse fill="#c0c0c0" stroke="#c0c0c0" cx="1140.5" cy="-559.5" rx="1.8" ry="1.8"/>
</g>
<!-- n9&#45;&gt;b1 -->
<g id="edge20" class="edge">
<title>n9&#45;&gt;b1</title>
<path fill="none" stroke="#fed37f" d="M1091.2796,-462.1067C1089.3591,-474.7462 1088.9504,-491.5205 1096.5,-504 1105.1475,-518.2944 1119.0159,-508.9925 1129.5,-522 1138.5263,-533.1989 1140.1465,-551.5668 1140.4368,-557.5499"/>
<text text-anchor="middle" x="1144.5" y="-496" font-family="Times,serif" font-size="10.00" fill="#000000">wasAssociatedWith</text>
</g>
<!-- ann9 -->
<g id="node18" class="node">
<title>ann9</title>
<polygon fill="none" stroke="#c0c0c0" points="1105.5,-359.5 819.5,-359.5 819.5,-310.5 1111.5,-310.5 1111.5,-353.5 1105.5,-359.5"/>
<polyline fill="none" stroke="#c0c0c0" points="1105.5,-359.5 1105.5,-353.5 "/>
<polyline fill="none" stroke="#c0c0c0" points="1111.5,-353.5 1105.5,-353.5 "/>
<g id="a_node18_31"><a xlink:href="http://purl.org/dc/terms/created" xlink:title="&lt;TABLE&gt;">
<text text-anchor="start" x="829.5" y="-345" font-family="Times,serif" font-size="10.00" fill="#000000">dcterms:created</text>
</a>
</g>
<text text-anchor="start" x="912.5" y="-345" font-family="Times,serif" font-size="10.00" fill="#000000">2021&#45;02&#45;22 21:33:29</text>
<g id="a_node18_32"><a xlink:href="http://purl.org/dc/terms/title" xlink:title="&lt;TABLE&gt;">
<text text-anchor="start" x="829.5" y="-332" font-family="Times,serif" font-size="10.00" fill="#000000">dcterms:title</text>
</a>
</g>
<text text-anchor="start" x="912.5" y="-332" font-family="Times,serif" font-size="10.00" fill="#000000">Environment Data Capture by Sensors</text>
<g id="a_node18_33"><a xlink:href="http://purl.org/dc/terms/type" xlink:title="&lt;TABLE&gt;">
<text text-anchor="start" x="829.5" y="-319" font-family="Times,serif" font-size="10.00" fill="#000000">dcterms:type</text>
</a>
</g>
<text text-anchor="start" x="912.5" y="-319" font-family="Times,serif" font-size="10.00" fill="#000000">DataCapturing</text>
</g>
<!-- ann9&#45;&gt;n9 -->
<g id="edge9" class="edge">
<title>ann9&#45;&gt;n9</title>
<path fill="none" stroke="#c0c0c0" stroke-dasharray="5,2" d="M994.999,-359.7338C1018.9712,-379.8335 1052.2363,-407.7251 1073.8141,-425.8172"/>
</g>
<!-- n10 -->
<g id="node19" class="node">
<title>n10</title>
<g id="a_node19"><a xlink:href="http://ib.usp.br/data_products/150" xlink:title="ib_usp:data_products/150">
<ellipse fill="#fffc87" stroke="#808080" cx="2649.5" cy="-123.5" rx="131.077" ry="18"/>
<text text-anchor="middle" x="2649.5" y="-119.8" font-family="Times,serif" font-size="14.00" fill="#000000">ib_usp:data_products/150</text>
</a>
</g>
</g>
<!-- n10&#45;&gt;n3 -->
<g id="edge25" class="edge">
<title>n10&#45;&gt;n3</title>
<path fill="none" stroke="#fed37f" d="M2760.0056,-133.2244C2888.5225,-145.6736 3086.059,-168.7927 3108.5,-195 3157.9316,-252.7279 3157.9945,-308.3259 3108.5,-366 3083.0347,-395.6738 2854.2594,-421.2816 2712.5422,-434.4786"/>
<polygon fill="#fed37f" stroke="#fed37f" points="2712.1285,-431.0019 2702.493,-435.4073 2712.7727,-437.9722 2712.1285,-431.0019"/>
<text text-anchor="middle" x="3186.5" y="-278" font-family="Times,serif" font-size="10.00" fill="#000000">wasAttributedTo</text>
</g>
<!-- n10&#45;&gt;n4 -->
<g id="edge27" class="edge">
<title>n10&#45;&gt;n4</title>
<path fill="none" stroke="#006400" d="M2528.3574,-130.4506C2390.8301,-139.6567 2160.1662,-159.0905 1964.5,-195 1949.4106,-197.7693 1933.412,-201.4803 1918.25,-205.3707"/>
<polygon fill="#006400" stroke="#006400" points="1917.2115,-202.0246 1908.4252,-207.9451 1918.9858,-208.796 1917.2115,-202.0246"/>
<text text-anchor="middle" x="2194" y="-169" font-family="Times,serif" font-size="10.00" fill="#006400">wasGeneratedBy</text>
</g>
<!-- ann10 -->
<g id="node20" class="node">
<title>ann10</title>
<polygon fill="none" stroke="#c0c0c0" points="2798,-62 2495,-62 2495,0 2804,0 2804,-56 2798,-62"/>
<polyline fill="none" stroke="#c0c0c0" points="2798,-62 2798,-56 "/>
<polyline fill="none" stroke="#c0c0c0" points="2804,-56 2798,-56 "/>
<g id="a_node20_34"><a xlink:href="http://purl.org/dc/terms/created" xlink:title="&lt;TABLE&gt;">
<text text-anchor="start" x="2505.5" y="-48" font-family="Times,serif" font-size="10.00" fill="#000000">dcterms:created</text>
</a>
</g>
<text text-anchor="start" x="2588.5" y="-48" font-family="Times,serif" font-size="10.00" fill="#000000">2021&#45;02&#45;22 21:33:29</text>
<g id="a_node20_35"><a xlink:href="http://purl.org/dc/terms/source" xlink:title="&lt;TABLE&gt;">
<text text-anchor="start" x="2505.5" y="-35" font-family="Times,serif" font-size="10.00" fill="#000000">dcterms:source</text>
</a>
</g>
<text text-anchor="start" x="2588.5" y="-35" font-family="Times,serif" font-size="10.00" fill="#000000">http://ib.usp.br/data_products/150</text>
<g id="a_node20_36"><a xlink:href="http://purl.org/dc/terms/title" xlink:title="&lt;TABLE&gt;">
<text text-anchor="start" x="2505.5" y="-22" font-family="Times,serif" font-size="10.00" fill="#000000">dcterms:title</text>
</a>
</g>
<text text-anchor="start" x="2588.5" y="-22" font-family="Times,serif" font-size="10.00" fill="#000000">Environmental Monitoring Published Data</text>
<g id="a_node20_37"><a xlink:href="http://purl.org/dc/terms/type" xlink:title="&lt;TABLE&gt;">
<text text-anchor="start" x="2505.5" y="-9" font-family="Times,serif" font-size="10.00" fill="#000000">dcterms:type</text>
</a>
</g>
<text text-anchor="start" x="2588.5" y="-9" font-family="Times,serif" font-size="10.00" fill="#000000">Processed Dataset</text>
</g>
<!-- ann10&#45;&gt;n10 -->
<g id="edge10" class="edge">
<title>ann10&#45;&gt;n10</title>
<path fill="none" stroke="#c0c0c0" stroke-dasharray="5,2" d="M2649.5,-62.0585C2649.5,-76.4393 2649.5,-93.0245 2649.5,-105.3362"/>
</g>
<!-- ann11 -->
<g id="node22" class="node">
<title>ann11</title>
<polygon fill="none" stroke="#c0c0c0" points="2171,-250.5 1974,-250.5 1974,-201.5 2177,-201.5 2177,-244.5 2171,-250.5"/>
<polyline fill="none" stroke="#c0c0c0" points="2171,-250.5 2171,-244.5 "/>
<polyline fill="none" stroke="#c0c0c0" points="2177,-244.5 2171,-244.5 "/>
<g id="a_node22_38"><a xlink:href="http://purl.org/dc/terms/created" xlink:title="&lt;TABLE&gt;">
<text text-anchor="start" x="1984.5" y="-236" font-family="Times,serif" font-size="10.00" fill="#000000">dcterms:created</text>
</a>
</g>
<text text-anchor="start" x="2067.5" y="-236" font-family="Times,serif" font-size="10.00" fill="#000000">2021&#45;02&#45;22 21:33:29</text>
<g id="a_node22_39"><a xlink:href="http://purl.org/dc/terms/title" xlink:title="&lt;TABLE&gt;">
<text text-anchor="start" x="1984.5" y="-223" font-family="Times,serif" font-size="10.00" fill="#000000">dcterms:title</text>
</a>
</g>
<text text-anchor="start" x="2067.5" y="-223" font-family="Times,serif" font-size="10.00" fill="#000000">Software Tool XYZ</text>
<g id="a_node22_40"><a xlink:href="http://purl.org/dc/terms/type" xlink:title="&lt;TABLE&gt;">
<text text-anchor="start" x="1984.5" y="-210" font-family="Times,serif" font-size="10.00" fill="#000000">dcterms:type</text>
</a>
</g>
<text text-anchor="start" x="2067.5" y="-210" font-family="Times,serif" font-size="10.00" fill="#000000">SoftwareTool</text>
</g>
<!-- ann11&#45;&gt;n11 -->
<g id="edge11" class="edge">
<title>ann11&#45;&gt;n11</title>
<path fill="none" stroke="#c0c0c0" stroke-dasharray="5,2" d="M2028.1101,-250.5976C1988.7944,-271.0043 1933.8711,-299.5121 1898.996,-317.614"/>
</g>
<!-- ann12 -->
<g id="node24" class="node">
<title>ann12</title>
<polygon fill="none" stroke="#c0c0c0" points="985,-475 640,-475 640,-413 991,-413 991,-469 985,-475"/>
<polyline fill="none" stroke="#c0c0c0" points="985,-475 985,-469 "/>
<polyline fill="none" stroke="#c0c0c0" points="991,-469 985,-469 "/>
<g id="a_node24_41"><a xlink:href="http://purl.org/dc/terms/created" xlink:title="&lt;TABLE&gt;">
<text text-anchor="start" x="650.5" y="-461" font-family="Times,serif" font-size="10.00" fill="#000000">dcterms:created</text>
</a>
</g>
<text text-anchor="start" x="750.5" y="-461" font-family="Times,serif" font-size="10.00" fill="#000000">2021&#45;02&#45;22 21:33:28</text>
<g id="a_node24_42"><a xlink:href="http://purl.org/dc/terms/description" xlink:title="&lt;TABLE&gt;">
<text text-anchor="start" x="650.5" y="-448" font-family="Times,serif" font-size="10.00" fill="#000000">dcterms:description</text>
</a>
</g>
<text text-anchor="start" x="750.5" y="-448" font-family="Times,serif" font-size="10.00" fill="#000000">Parameter of data capture interval, in minutes.</text>
<g id="a_node24_43"><a xlink:href="http://purl.org/dc/terms/type" xlink:title="&lt;TABLE&gt;">
<text text-anchor="start" x="650.5" y="-435" font-family="Times,serif" font-size="10.00" fill="#000000">dcterms:type</text>
</a>
</g>
<text text-anchor="start" x="750.5" y="-435" font-family="Times,serif" font-size="10.00" fill="#000000">InputParams</text>
<g id="a_node24_44"><a xlink:href="http://www.w3.org/1999/02/22-rdf-syntax-ns#value" xlink:title="&lt;TABLE&gt;">
<text text-anchor="start" x="650.5" y="-422" font-family="Times,serif" font-size="10.00" fill="#000000">rdf:value</text>
</a>
</g>
<text text-anchor="start" x="750.5" y="-422" font-family="Times,serif" font-size="10.00" fill="#000000">60</text>
</g>
<!-- ann12&#45;&gt;n12 -->
<g id="edge12" class="edge">
<title>ann12&#45;&gt;n12</title>
<path fill="none" stroke="#c0c0c0" stroke-dasharray="5,2" d="M857.1746,-475.256C885.5013,-496.501 921.9713,-523.8535 945.5418,-541.5314"/>
</g>
<!-- b1&#45;&gt;n7 -->
<g id="edge21" class="edge">
<title>b1&#45;&gt;n7</title>
<path fill="none" stroke="#fed37f" d="M1140.5,-561.432C1140.5,-569.7564 1140.5,-603.2157 1140.5,-627.0378"/>
<polygon fill="#fed37f" stroke="#fed37f" points="1137.0001,-627.1799 1140.5,-637.18 1144.0001,-627.18 1137.0001,-627.1799"/>
</g>
<!-- b2&#45;&gt;n3 -->
<g id="edge23" class="edge">
<title>b2&#45;&gt;n3</title>
<path fill="none" stroke="#fed37f" d="M1728.4539,-337.0861C1728.4534,-342.7805 1729.3133,-358.6543 1738.5,-366 1795.8296,-411.8409 2267.8344,-433.1453 2488.0922,-440.663"/>
<polygon fill="#fed37f" stroke="#fed37f" points="2488.2753,-444.1711 2498.3877,-441.0106 2488.5116,-437.1751 2488.2753,-444.1711"/>
</g>
</g>
</svg>
