<?xml version="1.0" encoding="UTF-8" standalone="no"?>
<!DOCTYPE svg PUBLIC "-//W3C//DTD SVG 1.1//EN"
 "http://www.w3.org/Graphics/SVG/1.1/DTD/svg11.dtd">
<!-- Generated by graphviz version 2.36.0 (20140111.2315)
 -->
<!-- Title: G Pages: 1 -->
<svg width="1525pt" height="734pt"
 viewBox="0.00 0.00 1525.00 734.00" xmlns="http://www.w3.org/2000/svg" xmlns:xlink="http://www.w3.org/1999/xlink">
<g id="graph0" class="graph" transform="scale(1 1) rotate(0) translate(4 730)">
<title>G</title>
<polygon fill="white" stroke="none" points="-4,4 -4,-730 1521,-730 1521,4 -4,4"/>
<!-- n1 -->
<g id="node1" class="node"><title>n1</title>
<g id="a_node1"><a xlink:href="http://www.uc-ciee.org/Grinnellresurvey" xlink:title="uc&#45;ciee:Grinnellresurvey">
<ellipse fill="#fffc87" stroke="#808080" cx="599" cy="-372" rx="98.2828" ry="18"/>
<text text-anchor="middle" x="599" y="-368.3" font-family="Times,serif" font-size="14.00">uc&#45;ciee:Grinnellresurvey</text>
</a>
</g>
</g>
<!-- b1 -->
<g id="node13" class="node"><title>b1</title>
<ellipse fill="gray" stroke="gray" cx="599" cy="-483" rx="1.8" ry="1.8"/>
</g>
<!-- n1&#45;&gt;b1 -->
<g id="edge8" class="edge"><title>n1&#45;&gt;b1</title>
<path fill="none" stroke="black" d="M599,-390.031C599,-418.292 599,-472.607 599,-480.921"/>
<text text-anchor="middle" x="634" y="-411.5" font-family="Times,serif" font-size="10.00">wasDerivedFrom</text>
</g>
<!-- ann1 -->
<g id="node2" class="node"><title>ann1</title>
<polygon fill="none" stroke="gray" points="710,-315.5 182,-315.5 182,-252.5 716,-252.5 716,-309.5 710,-315.5"/>
<polyline fill="none" stroke="gray" points="710,-315.5 710,-309.5 "/>
<polyline fill="none" stroke="gray" points="716,-309.5 710,-309.5 "/>
<g id="a_node2_0"><a xlink:href="http://bioprov.poli.usp.br/entityType" xlink:title="&lt;TABLE&gt;">
<text text-anchor="start" x="192" y="-300.5" font-family="Times,serif" font-size="10.00">bioprov:entityType</text>
</a>
</g>
<text text-anchor="start" x="276" y="-300.5" font-family="Times,serif" font-size="10.00">Publication</text>
<g id="a_node2_1"><a xlink:href="http://purl.org/dc/terms/created" xlink:title="&lt;TABLE&gt;">
<text text-anchor="start" x="192" y="-287" font-family="Times,serif" font-size="10.00">dcterms:created</text>
</a>
</g>
<text text-anchor="start" x="276" y="-287" font-family="Times,serif" font-size="10.00">2011&#45;03&#45;31</text>
<g id="a_node2_2"><a xlink:href="http://purl.org/dc/terms/source" xlink:title="&lt;TABLE&gt;">
<text text-anchor="start" x="192" y="-274" font-family="Times,serif" font-size="10.00">dcterms:source</text>
</a>
</g>
<text text-anchor="start" x="276" y="-274" font-family="Times,serif" font-size="10.00">http://www.uc&#45;ciee.org/downloads/Grinnellresurvey.Smith.pdf</text>
<g id="a_node2_3"><a xlink:href="http://purl.org/dc/terms/title" xlink:title="&lt;TABLE&gt;">
<text text-anchor="start" x="192" y="-261" font-family="Times,serif" font-size="10.00">dcterms:title</text>
</a>
</g>
<text text-anchor="start" x="276" y="-261" font-family="Times,serif" font-size="10.00">Testing methods for predicting mammalian species responses to 20th century climate change in California</text>
</g>
<!-- ann1&#45;&gt;n1 -->
<g id="edge1" class="edge"><title>ann1&#45;&gt;n1</title>
<path fill="none" stroke="gray" stroke-dasharray="5,2" d="M502.307,-315.563C525.211,-328.694 551.069,-343.52 570.278,-354.533"/>
</g>
<!-- n2 -->
<g id="node3" class="node"><title>n2</title>
<g id="a_node3"><a xlink:href="http://orcid.org/0000-0002-6420-1659" xlink:title="orcid:0000&#45;0002&#45;6420&#45;1659">
<polygon fill="#fed37f" stroke="black" points="366.647,-713.562 230,-726 93.3532,-713.562 93.4807,-693.438 366.519,-693.438 366.647,-713.562"/>
<text text-anchor="middle" x="230" y="-704.3" font-family="Times,serif" font-size="14.00">orcid:0000&#45;0002&#45;6420&#45;1659</text>
</a>
</g>
</g>
<!-- ann2 -->
<g id="node4" class="node"><title>ann2</title>
<polygon fill="none" stroke="gray" points="275,-642 61,-642 61,-566 281,-566 281,-636 275,-642"/>
<polyline fill="none" stroke="gray" points="275,-642 275,-636 "/>
<polyline fill="none" stroke="gray" points="281,-636 275,-636 "/>
<g id="a_node4_4"><a xlink:href="http://purl.org/dc/terms/created" xlink:title="&lt;TABLE&gt;">
<text text-anchor="start" x="71" y="-627.5" font-family="Times,serif" font-size="10.00">dcterms:created</text>
</a>
</g>
<text text-anchor="start" x="147" y="-627.5" font-family="Times,serif" font-size="10.00">2017&#45;02&#45;10 02:15:16</text>
<g id="a_node4_5"><a xlink:href="http://purl.org/dc/terms/identifier" xlink:title="&lt;TABLE&gt;">
<text text-anchor="start" x="71" y="-614" font-family="Times,serif" font-size="10.00">dcterms:identifier</text>
</a>
</g>
<text text-anchor="start" x="147" y="-614" font-family="Times,serif" font-size="10.00">Smith</text>
<g id="a_node4_6"><a xlink:href="http://xmlns.com/foaf/0.1/mbox" xlink:title="&lt;TABLE&gt;">
<text text-anchor="start" x="71" y="-601" font-family="Times,serif" font-size="10.00">foaf:mbox</text>
</a>
</g>
<text text-anchor="start" x="147" y="-601" font-family="Times,serif" font-size="10.00">mailto:adam@earthskysea.org</text>
<g id="a_node4_7"><a xlink:href="http://xmlns.com/foaf/0.1/name" xlink:title="&lt;TABLE&gt;">
<text text-anchor="start" x="71" y="-588" font-family="Times,serif" font-size="10.00">foaf:name</text>
</a>
</g>
<text text-anchor="start" x="147" y="-588" font-family="Times,serif" font-size="10.00">Adam B. Smith</text>
<g id="a_node4_8"><a xlink:href="http://www.w3.org/2000/01/rdf-schema#seeAlso" xlink:title="&lt;TABLE&gt;">
<text text-anchor="start" x="71" y="-575" font-family="Times,serif" font-size="10.00">rdfs:seeAlso</text>
</a>
</g>
<text text-anchor="start" x="147" y="-575" font-family="Times,serif" font-size="10.00">http://www.earthskysea.org/</text>
</g>
<!-- ann2&#45;&gt;n2 -->
<g id="edge2" class="edge"><title>ann2&#45;&gt;n2</title>
<path fill="none" stroke="gray" stroke-dasharray="5,2" d="M192.467,-642.113C202.747,-659.885 214.436,-680.092 221.999,-693.168"/>
</g>
<!-- n3 -->
<g id="node5" class="node"><title>n3</title>
<g id="a_node5"><a xlink:href="http://orcid.org/0000-0002-1244-9126" xlink:title="orcid:0000&#45;0002&#45;1244&#45;9126">
<polygon fill="#fed37f" stroke="black" points="1007.65,-289.562 871,-302 734.353,-289.562 734.481,-269.438 1007.52,-269.438 1007.65,-289.562"/>
<text text-anchor="middle" x="871" y="-280.3" font-family="Times,serif" font-size="14.00">orcid:0000&#45;0002&#45;1244&#45;9126</text>
</a>
</g>
</g>
<!-- ann3 -->
<g id="node6" class="node"><title>ann3</title>
<polygon fill="none" stroke="gray" points="911.5,-204 640.5,-204 640.5,-128 917.5,-128 917.5,-198 911.5,-204"/>
<polyline fill="none" stroke="gray" points="911.5,-204 911.5,-198 "/>
<polyline fill="none" stroke="gray" points="917.5,-198 911.5,-198 "/>
<g id="a_node6_9"><a xlink:href="http://purl.org/dc/terms/created" xlink:title="&lt;TABLE&gt;">
<text text-anchor="start" x="651" y="-189.5" font-family="Times,serif" font-size="10.00">dcterms:created</text>
</a>
</g>
<text text-anchor="start" x="727" y="-189.5" font-family="Times,serif" font-size="10.00">2017&#45;02&#45;10 02:15:16</text>
<g id="a_node6_10"><a xlink:href="http://purl.org/dc/terms/identifier" xlink:title="&lt;TABLE&gt;">
<text text-anchor="start" x="651" y="-176" font-family="Times,serif" font-size="10.00">dcterms:identifier</text>
</a>
</g>
<text text-anchor="start" x="727" y="-176" font-family="Times,serif" font-size="10.00">daniellins</text>
<g id="a_node6_11"><a xlink:href="http://xmlns.com/foaf/0.1/mbox" xlink:title="&lt;TABLE&gt;">
<text text-anchor="start" x="651" y="-163" font-family="Times,serif" font-size="10.00">foaf:mbox</text>
</a>
</g>
<text text-anchor="start" x="727" y="-163" font-family="Times,serif" font-size="10.00">mailto:daniellins@usp.br</text>
<g id="a_node6_12"><a xlink:href="http://xmlns.com/foaf/0.1/name" xlink:title="&lt;TABLE&gt;">
<text text-anchor="start" x="651" y="-150" font-family="Times,serif" font-size="10.00">foaf:name</text>
</a>
</g>
<text text-anchor="start" x="727" y="-150" font-family="Times,serif" font-size="10.00">Daniel Lins da Silva</text>
<g id="a_node6_13"><a xlink:href="http://www.w3.org/2000/01/rdf-schema#seeAlso" xlink:title="&lt;TABLE&gt;">
<text text-anchor="start" x="651" y="-137" font-family="Times,serif" font-size="10.00">rdfs:seeAlso</text>
</a>
</g>
<text text-anchor="start" x="727" y="-137" font-family="Times,serif" font-size="10.00">http://bioprov.poli.usp.br/students/6613529</text>
</g>
<!-- ann3&#45;&gt;n3 -->
<g id="edge3" class="edge"><title>ann3&#45;&gt;n3</title>
<path fill="none" stroke="gray" stroke-dasharray="5,2" d="M808.362,-204.022C826.031,-226.301 847.486,-253.351 860.148,-269.316"/>
</g>
<!-- n4 -->
<g id="node7" class="node"><title>n4</title>
<g id="a_node7"><a xlink:href="http://orcid.org/0000-0003-4627-0244" xlink:title="orcid:0000&#45;0003&#45;4627&#45;0244">
<polygon fill="#fed37f" stroke="black" points="1338.65,-289.562 1202,-302 1065.35,-289.562 1065.48,-269.438 1338.52,-269.438 1338.65,-289.562"/>
<text text-anchor="middle" x="1202" y="-280.3" font-family="Times,serif" font-size="14.00">orcid:0000&#45;0003&#45;4627&#45;0244</text>
</a>
</g>
</g>
<!-- ann4 -->
<g id="node8" class="node"><title>ann4</title>
<polygon fill="none" stroke="gray" points="1407.5,-204 1136.5,-204 1136.5,-128 1413.5,-128 1413.5,-198 1407.5,-204"/>
<polyline fill="none" stroke="gray" points="1407.5,-204 1407.5,-198 "/>
<polyline fill="none" stroke="gray" points="1413.5,-198 1407.5,-198 "/>
<g id="a_node8_14"><a xlink:href="http://purl.org/dc/terms/created" xlink:title="&lt;TABLE&gt;">
<text text-anchor="start" x="1147" y="-189.5" font-family="Times,serif" font-size="10.00">dcterms:created</text>
</a>
</g>
<text text-anchor="start" x="1223" y="-189.5" font-family="Times,serif" font-size="10.00">2017&#45;02&#45;10 02:15:16</text>
<g id="a_node8_15"><a xlink:href="http://purl.org/dc/terms/identifier" xlink:title="&lt;TABLE&gt;">
<text text-anchor="start" x="1147" y="-176" font-family="Times,serif" font-size="10.00">dcterms:identifier</text>
</a>
</g>
<text text-anchor="start" x="1223" y="-176" font-family="Times,serif" font-size="10.00">andrefilipe</text>
<g id="a_node8_16"><a xlink:href="http://xmlns.com/foaf/0.1/mbox" xlink:title="&lt;TABLE&gt;">
<text text-anchor="start" x="1147" y="-163" font-family="Times,serif" font-size="10.00">foaf:mbox</text>
</a>
</g>
<text text-anchor="start" x="1223" y="-163" font-family="Times,serif" font-size="10.00">mailto:andrefmb@usp.br</text>
<g id="a_node8_17"><a xlink:href="http://xmlns.com/foaf/0.1/name" xlink:title="&lt;TABLE&gt;">
<text text-anchor="start" x="1147" y="-150" font-family="Times,serif" font-size="10.00">foaf:name</text>
</a>
</g>
<text text-anchor="start" x="1223" y="-150" font-family="Times,serif" font-size="10.00">Andre Filipe de Moraes Batista</text>
<g id="a_node8_18"><a xlink:href="http://www.w3.org/2000/01/rdf-schema#seeAlso" xlink:title="&lt;TABLE&gt;">
<text text-anchor="start" x="1147" y="-137" font-family="Times,serif" font-size="10.00">rdfs:seeAlso</text>
</a>
</g>
<text text-anchor="start" x="1223" y="-137" font-family="Times,serif" font-size="10.00">http://bioprov.poli.usp.br/students/8788438</text>
</g>
<!-- ann4&#45;&gt;n4 -->
<g id="edge4" class="edge"><title>ann4&#45;&gt;n4</title>
<path fill="none" stroke="gray" stroke-dasharray="5,2" d="M1260.71,-204.194C1256.25,-214.188 1250.92,-224.776 1245,-234 1236.69,-246.954 1225.07,-259.973 1216.01,-269.333"/>
</g>
<!-- n5 -->
<g id="node9" class="node"><title>n5</title>
<g id="a_node9"><a xlink:href="http://bioprov.poli.usp.br/projects/5" xlink:title="bioprov:projects/5">
<ellipse fill="#fffc87" stroke="#808080" cx="374" cy="-604" rx="75.2868" ry="18"/>
<text text-anchor="middle" x="374" y="-600.3" font-family="Times,serif" font-size="14.00">bioprov:projects/5</text>
</a>
</g>
</g>
<!-- n5&#45;&gt;n2 -->
<g id="edge10" class="edge"><title>n5&#45;&gt;n2</title>
<path fill="none" stroke="#fed37f" d="M351.183,-621.162C325.85,-639.106 284.959,-668.071 257.782,-687.321"/>
<polygon fill="#fed37f" stroke="#fed37f" points="255.615,-684.567 249.478,-693.203 259.661,-690.279 255.615,-684.567"/>
<text text-anchor="middle" x="328" y="-663.5" font-family="Times,serif" font-size="10.00">wasAttributedTo</text>
</g>
<!-- ann5 -->
<g id="node10" class="node"><title>ann5</title>
<polygon fill="none" stroke="gray" points="573.5,-527.5 0.5,-527.5 0.5,-438.5 579.5,-438.5 579.5,-521.5 573.5,-527.5"/>
<polyline fill="none" stroke="gray" points="573.5,-527.5 573.5,-521.5 "/>
<polyline fill="none" stroke="gray" points="579.5,-521.5 573.5,-521.5 "/>
<g id="a_node10_19"><a xlink:href="http://bioprov.poli.usp.br/entityType" xlink:title="&lt;TABLE&gt;">
<text text-anchor="start" x="11" y="-512.5" font-family="Times,serif" font-size="10.00">bioprov:entityType</text>
</a>
</g>
<text text-anchor="start" x="140" y="-512.5" font-family="Times,serif" font-size="10.00">ResearchProject</text>
<g id="a_node10_20"><a xlink:href="http://bioprov.poli.usp.br/studyAreaDescription" xlink:title="&lt;TABLE&gt;">
<text text-anchor="start" x="11" y="-499" font-family="Times,serif" font-size="10.00">bioprov:studyAreaDescription</text>
</a>
</g>
<text text-anchor="start" x="140" y="-499" font-family="Times,serif" font-size="10.00">Biodiversity</text>
<g id="a_node10_21"><a xlink:href="http://bioprov.poli.usp.br/taxonomicCoverage" xlink:title="&lt;TABLE&gt;">
<text text-anchor="start" x="11" y="-486" font-family="Times,serif" font-size="10.00">bioprov:taxonomicCoverage</text>
</a>
</g>
<text text-anchor="start" x="140" y="-486" font-family="Times,serif" font-size="10.00">Mammalian species</text>
<g id="a_node10_22"><a xlink:href="http://purl.org/dc/terms/created" xlink:title="&lt;TABLE&gt;">
<text text-anchor="start" x="11" y="-473" font-family="Times,serif" font-size="10.00">dcterms:created</text>
</a>
</g>
<text text-anchor="start" x="140" y="-473" font-family="Times,serif" font-size="10.00">2017&#45;02&#45;10 02:15:16</text>
<g id="a_node10_23"><a xlink:href="http://purl.org/dc/terms/spatial" xlink:title="&lt;TABLE&gt;">
<text text-anchor="start" x="11" y="-460" font-family="Times,serif" font-size="10.00">dcterms:spatial</text>
</a>
</g>
<text text-anchor="start" x="140" y="-460" font-family="Times,serif" font-size="10.00">Western United States</text>
<g id="a_node10_24"><a xlink:href="http://purl.org/dc/terms/title" xlink:title="&lt;TABLE&gt;">
<text text-anchor="start" x="11" y="-447" font-family="Times,serif" font-size="10.00">dcterms:title</text>
</a>
</g>
<text text-anchor="start" x="140" y="-447" font-family="Times,serif" font-size="10.00">Testing methods for predicting mammalian species responses to 20th century climate change in California</text>
</g>
<!-- ann5&#45;&gt;n5 -->
<g id="edge5" class="edge"><title>ann5&#45;&gt;n5</title>
<path fill="none" stroke="gray" stroke-dasharray="5,2" d="M320.802,-527.635C335.129,-547.933 351.333,-570.889 362.053,-586.075"/>
</g>
<!-- n6 -->
<g id="node11" class="node"><title>n6</title>
<g id="a_node11"><a xlink:href="http://bioprov.poli.usp.br/experiment/31" xlink:title="bioprov:experiment/31">
<ellipse fill="#fffc87" stroke="#808080" cx="1027" cy="-166" rx="91.784" ry="18"/>
<text text-anchor="middle" x="1027" y="-162.3" font-family="Times,serif" font-size="14.00">bioprov:experiment/31</text>
</a>
</g>
</g>
<!-- n6&#45;&gt;n3 -->
<g id="edge7" class="edge"><title>n6&#45;&gt;n3</title>
<path fill="none" stroke="#fed37f" d="M1004.65,-183.604C989.971,-194.516 970.341,-209.106 953,-222 934.499,-235.757 913.654,-251.264 897.61,-263.2"/>
<polygon fill="#fed37f" stroke="#fed37f" points="895.17,-260.653 889.237,-269.43 899.349,-266.269 895.17,-260.653"/>
<text text-anchor="middle" x="988" y="-225.5" font-family="Times,serif" font-size="10.00">wasAttributedTo</text>
</g>
<!-- n6&#45;&gt;n4 -->
<g id="edge13" class="edge"><title>n6&#45;&gt;n4</title>
<path fill="none" stroke="#fed37f" d="M1051.7,-183.374C1083.62,-204.528 1139.09,-241.298 1172.98,-263.761"/>
<polygon fill="#fed37f" stroke="#fed37f" points="1171.24,-266.812 1181.51,-269.42 1175.11,-260.977 1171.24,-266.812"/>
<text text-anchor="middle" x="1159" y="-225.5" font-family="Times,serif" font-size="10.00">wasAttributedTo</text>
</g>
<!-- b2 -->
<g id="node14" class="node"><title>b2</title>
<ellipse fill="gray" stroke="gray" cx="1027" cy="-284" rx="1.8" ry="1.8"/>
</g>
<!-- n6&#45;&gt;b2 -->
<g id="edge11" class="edge"><title>n6&#45;&gt;b2</title>
<path fill="none" stroke="black" d="M1027,-184.116C1027,-214.115 1027,-273.802 1027,-282.047"/>
<text text-anchor="middle" x="1062" y="-225.5" font-family="Times,serif" font-size="10.00">wasDerivedFrom</text>
</g>
<!-- ann6 -->
<g id="node12" class="node"><title>ann6</title>
<polygon fill="none" stroke="gray" points="1511.5,-89.5 536.5,-89.5 536.5,-0.5 1517.5,-0.5 1517.5,-83.5 1511.5,-89.5"/>
<polyline fill="none" stroke="gray" points="1511.5,-89.5 1511.5,-83.5 "/>
<polyline fill="none" stroke="gray" points="1517.5,-83.5 1511.5,-83.5 "/>
<g id="a_node12_25"><a xlink:href="http://bioprov.poli.usp.br/entityType" xlink:title="&lt;TABLE&gt;">
<text text-anchor="start" x="547" y="-74.5" font-family="Times,serif" font-size="10.00">bioprov:entityType</text>
</a>
</g>
<text text-anchor="start" x="631" y="-74.5" font-family="Times,serif" font-size="10.00">Experiment</text>
<g id="a_node12_26"><a xlink:href="http://purl.org/dc/terms/created" xlink:title="&lt;TABLE&gt;">
<text text-anchor="start" x="547" y="-61" font-family="Times,serif" font-size="10.00">dcterms:created</text>
</a>
</g>
<text text-anchor="start" x="631" y="-61" font-family="Times,serif" font-size="10.00">2017&#45;02&#45;10 02:15:16</text>
<g id="a_node12_27"><a xlink:href="http://purl.org/dc/terms/creator" xlink:title="&lt;TABLE&gt;">
<text text-anchor="start" x="547" y="-48" font-family="Times,serif" font-size="10.00">dcterms:creator</text>
</a>
</g>
<text text-anchor="start" x="631" y="-48" font-family="Times,serif" font-size="10.00">http://orcid.org/0000&#45;0002&#45;1244&#45;9126</text>
<g id="a_node12_28"><a xlink:href="http://purl.org/dc/terms/date" xlink:title="&lt;TABLE&gt;">
<text text-anchor="start" x="547" y="-35" font-family="Times,serif" font-size="10.00">dcterms:date</text>
</a>
</g>
<text text-anchor="start" x="631" y="-35" font-family="Times,serif" font-size="10.00">Fri Feb 10 02:15:16 2017</text>
<g id="a_node12_29"><a xlink:href="http://purl.org/dc/terms/description" xlink:title="&lt;TABLE&gt;">
<text text-anchor="start" x="547" y="-22" font-family="Times,serif" font-size="10.00">dcterms:description</text>
</a>
</g>
<text text-anchor="start" x="631" y="-22" font-family="Times,serif" font-size="10.00">This work aims to show the relationship between physical aspects and the occurrences of Urocitellus beldingi in the Western US. We use the R programming language and DISMO Package to execute this experiment.</text>
<g id="a_node12_30"><a xlink:href="http://purl.org/dc/terms/title" xlink:title="&lt;TABLE&gt;">
<text text-anchor="start" x="547" y="-9" font-family="Times,serif" font-size="10.00">dcterms:title</text>
</a>
</g>
<text text-anchor="start" x="631" y="-9" font-family="Times,serif" font-size="10.00">Species Distribution Modeling of Urocitellus beldingi </text>
</g>
<!-- ann6&#45;&gt;n6 -->
<g id="edge6" class="edge"><title>ann6&#45;&gt;n6</title>
<path fill="none" stroke="gray" stroke-dasharray="5,2" d="M1027,-89.6355C1027,-109.801 1027,-132.589 1027,-147.776"/>
</g>
<!-- b1&#45;&gt;n5 -->
<g id="edge9" class="edge"><title>b1&#45;&gt;n5</title>
<path fill="none" stroke="black" d="M599.084,-485.28C599.393,-491.054 599.884,-514.967 588,-528 553.031,-566.348 497.329,-585.09 451.521,-594.248"/>
<polygon fill="black" stroke="black" points="450.789,-590.825 441.609,-596.114 452.084,-597.704 450.789,-590.825"/>
</g>
<!-- b2&#45;&gt;n1 -->
<g id="edge12" class="edge"><title>b2&#45;&gt;n1</title>
<path fill="none" stroke="black" d="M1026.99,-285.955C1026.91,-290.254 1025.94,-307.952 1016,-316 969.881,-353.331 814.278,-365.43 706.775,-369.288"/>
<polygon fill="black" stroke="black" points="706.402,-365.799 696.527,-369.636 706.64,-372.795 706.402,-365.799"/>
</g>
</g>
</svg>
