<?xml version="1.0" encoding="UTF-8" standalone="no"?>
<!DOCTYPE svg PUBLIC "-//W3C//DTD SVG 1.1//EN"
 "http://www.w3.org/Graphics/SVG/1.1/DTD/svg11.dtd">
<!-- Generated by graphviz version 2.36.0 (20140111.2315)
 -->
<!-- Title: G Pages: 1 -->
<svg width="1223pt" height="582pt"
 viewBox="0.00 0.00 1223.00 582.00" xmlns="http://www.w3.org/2000/svg" xmlns:xlink="http://www.w3.org/1999/xlink">
<g id="graph0" class="graph" transform="scale(1 1) rotate(0) translate(4 578)">
<title>G</title>
<polygon fill="white" stroke="none" points="-4,4 -4,-578 1219,-578 1219,4 -4,4"/>
<!-- n1 -->
<g id="node1" class="node"><title>n1</title>
<g id="a_node1"><a xlink:href="http://orcid.org/0000-0002-1244-9126" xlink:title="orcid:0000&#45;0002&#45;1244&#45;9126">
<polygon fill="#fed37f" stroke="black" points="467.647,-561.562 331,-574 194.353,-561.562 194.481,-541.438 467.519,-541.438 467.647,-561.562"/>
<text text-anchor="middle" x="331" y="-552.3" font-family="Times,serif" font-size="14.00">orcid:0000&#45;0002&#45;1244&#45;9126</text>
</a>
</g>
</g>
<!-- ann1 -->
<g id="node2" class="node"><title>ann1</title>
<polygon fill="none" stroke="gray" points="296.5,-490 25.5,-490 25.5,-414 302.5,-414 302.5,-484 296.5,-490"/>
<polyline fill="none" stroke="gray" points="296.5,-490 296.5,-484 "/>
<polyline fill="none" stroke="gray" points="302.5,-484 296.5,-484 "/>
<g id="a_node2_0"><a xlink:href="http://purl.org/dc/terms/created" xlink:title="&lt;TABLE&gt;">
<text text-anchor="start" x="36" y="-475.5" font-family="Times,serif" font-size="10.00">dcterms:created</text>
</a>
</g>
<text text-anchor="start" x="112" y="-475.5" font-family="Times,serif" font-size="10.00">2017&#45;02&#45;10 01:31:09</text>
<g id="a_node2_1"><a xlink:href="http://purl.org/dc/terms/identifier" xlink:title="&lt;TABLE&gt;">
<text text-anchor="start" x="36" y="-462" font-family="Times,serif" font-size="10.00">dcterms:identifier</text>
</a>
</g>
<text text-anchor="start" x="112" y="-462" font-family="Times,serif" font-size="10.00">daniellins</text>
<g id="a_node2_2"><a xlink:href="http://xmlns.com/foaf/0.1/mbox" xlink:title="&lt;TABLE&gt;">
<text text-anchor="start" x="36" y="-449" font-family="Times,serif" font-size="10.00">foaf:mbox</text>
</a>
</g>
<text text-anchor="start" x="112" y="-449" font-family="Times,serif" font-size="10.00">mailto:daniellins@usp.br</text>
<g id="a_node2_3"><a xlink:href="http://xmlns.com/foaf/0.1/name" xlink:title="&lt;TABLE&gt;">
<text text-anchor="start" x="36" y="-436" font-family="Times,serif" font-size="10.00">foaf:name</text>
</a>
</g>
<text text-anchor="start" x="112" y="-436" font-family="Times,serif" font-size="10.00">Daniel Lins da Silva</text>
<g id="a_node2_4"><a xlink:href="http://www.w3.org/2000/01/rdf-schema#seeAlso" xlink:title="&lt;TABLE&gt;">
<text text-anchor="start" x="36" y="-423" font-family="Times,serif" font-size="10.00">rdfs:seeAlso</text>
</a>
</g>
<text text-anchor="start" x="112" y="-423" font-family="Times,serif" font-size="10.00">http://bioprov.poli.usp.br/students/6613529</text>
</g>
<!-- ann1&#45;&gt;n1 -->
<g id="edge1" class="edge"><title>ann1&#45;&gt;n1</title>
<path fill="none" stroke="gray" stroke-dasharray="5,2" d="M224.763,-490.113C254.047,-507.999 287.37,-528.351 308.763,-541.418"/>
</g>
<!-- n2 -->
<g id="node3" class="node"><title>n2</title>
<g id="a_node3"><a xlink:href="http://orcid.org/0000-0003-4627-0244" xlink:title="orcid:0000&#45;0003&#45;4627&#45;0244">
<polygon fill="#fed37f" stroke="black" points="656.647,-320.562 520,-333 383.353,-320.562 383.481,-300.438 656.519,-300.438 656.647,-320.562"/>
<text text-anchor="middle" x="520" y="-311.3" font-family="Times,serif" font-size="14.00">orcid:0000&#45;0003&#45;4627&#45;0244</text>
</a>
</g>
</g>
<!-- ann2 -->
<g id="node4" class="node"><title>ann2</title>
<polygon fill="none" stroke="gray" points="792.5,-216 521.5,-216 521.5,-140 798.5,-140 798.5,-210 792.5,-216"/>
<polyline fill="none" stroke="gray" points="792.5,-216 792.5,-210 "/>
<polyline fill="none" stroke="gray" points="798.5,-210 792.5,-210 "/>
<g id="a_node4_5"><a xlink:href="http://purl.org/dc/terms/created" xlink:title="&lt;TABLE&gt;">
<text text-anchor="start" x="532" y="-201.5" font-family="Times,serif" font-size="10.00">dcterms:created</text>
</a>
</g>
<text text-anchor="start" x="608" y="-201.5" font-family="Times,serif" font-size="10.00">2017&#45;02&#45;10 01:31:09</text>
<g id="a_node4_6"><a xlink:href="http://purl.org/dc/terms/identifier" xlink:title="&lt;TABLE&gt;">
<text text-anchor="start" x="532" y="-188" font-family="Times,serif" font-size="10.00">dcterms:identifier</text>
</a>
</g>
<text text-anchor="start" x="608" y="-188" font-family="Times,serif" font-size="10.00">andrefilipe</text>
<g id="a_node4_7"><a xlink:href="http://xmlns.com/foaf/0.1/mbox" xlink:title="&lt;TABLE&gt;">
<text text-anchor="start" x="532" y="-175" font-family="Times,serif" font-size="10.00">foaf:mbox</text>
</a>
</g>
<text text-anchor="start" x="608" y="-175" font-family="Times,serif" font-size="10.00">mailto:andrefmb@usp.br</text>
<g id="a_node4_8"><a xlink:href="http://xmlns.com/foaf/0.1/name" xlink:title="&lt;TABLE&gt;">
<text text-anchor="start" x="532" y="-162" font-family="Times,serif" font-size="10.00">foaf:name</text>
</a>
</g>
<text text-anchor="start" x="608" y="-162" font-family="Times,serif" font-size="10.00">Andre Filipe de Moraes Batista</text>
<g id="a_node4_9"><a xlink:href="http://www.w3.org/2000/01/rdf-schema#seeAlso" xlink:title="&lt;TABLE&gt;">
<text text-anchor="start" x="532" y="-149" font-family="Times,serif" font-size="10.00">rdfs:seeAlso</text>
</a>
</g>
<text text-anchor="start" x="608" y="-149" font-family="Times,serif" font-size="10.00">http://bioprov.poli.usp.br/students/8788438</text>
</g>
<!-- ann2&#45;&gt;n2 -->
<g id="edge2" class="edge"><title>ann2&#45;&gt;n2</title>
<path fill="none" stroke="gray" stroke-dasharray="5,2" d="M621.374,-216.247C592.399,-244.187 554.381,-280.847 534.133,-300.372"/>
</g>
<!-- n3 -->
<g id="node5" class="node"><title>n3</title>
<g id="a_node5"><a xlink:href="http://bioprov.poli.usp.br/mapmodels/Urocitellus_beldingi" xlink:title="bioprov:mapmodels/Urocitellus_beldingi">
<ellipse fill="#fffc87" stroke="#808080" cx="347" cy="-178" rx="156.772" ry="18"/>
<text text-anchor="middle" x="347" y="-174.3" font-family="Times,serif" font-size="14.00">bioprov:mapmodels/Urocitellus_beldingi</text>
</a>
</g>
</g>
<!-- n3&#45;&gt;n1 -->
<g id="edge7" class="edge"><title>n3&#45;&gt;n1</title>
<path fill="none" stroke="#fed37f" d="M345.197,-196.252C341.615,-231.483 333.717,-314.262 331,-384 328.954,-436.505 329.737,-498.147 330.415,-531.194"/>
<polygon fill="#fed37f" stroke="#fed37f" points="326.917,-531.33 330.637,-541.25 333.916,-531.176 326.917,-531.33"/>
<text text-anchor="middle" x="366" y="-387.5" font-family="Times,serif" font-size="10.00">wasAttributedTo</text>
</g>
<!-- n3&#45;&gt;n2 -->
<g id="edge8" class="edge"><title>n3&#45;&gt;n2</title>
<path fill="none" stroke="#fed37f" d="M373.457,-195.817C389.559,-206.332 410.356,-220.416 428,-234 452.725,-253.036 479.482,-276.677 497.732,-293.307"/>
<polygon fill="#fed37f" stroke="#fed37f" points="495.745,-296.234 505.481,-300.413 500.476,-291.074 495.745,-296.234"/>
<text text-anchor="middle" x="476" y="-237.5" font-family="Times,serif" font-size="10.00">wasAttributedTo</text>
</g>
<!-- b1 -->
<g id="node9" class="node"><title>b1</title>
<ellipse fill="gray" stroke="gray" cx="364" cy="-315" rx="1.8" ry="1.8"/>
</g>
<!-- n3&#45;&gt;b1 -->
<g id="edge5" class="edge"><title>n3&#45;&gt;b1</title>
<path fill="none" stroke="black" d="M349.153,-196.098C353.442,-230.154 362.738,-303.98 363.884,-313.075"/>
<text text-anchor="middle" x="389" y="-237.5" font-family="Times,serif" font-size="10.00">wasDerivedFrom</text>
</g>
<!-- ann3 -->
<g id="node6" class="node"><title>ann3</title>
<polygon fill="none" stroke="gray" points="688.5,-102 -0.5,-102 -0.5,-7.10543e-15 694.5,-7.10543e-15 694.5,-96 688.5,-102"/>
<polyline fill="none" stroke="gray" points="688.5,-102 688.5,-96 "/>
<polyline fill="none" stroke="gray" points="694.5,-96 688.5,-96 "/>
<g id="a_node6_10"><a xlink:href="http://bioprov.poli.usp.br/entityFormat" xlink:title="&lt;TABLE&gt;">
<text text-anchor="start" x="10" y="-87.5" font-family="Times,serif" font-size="10.00">bioprov:entityFormat</text>
</a>
</g>
<text text-anchor="start" x="101" y="-87.5" font-family="Times,serif" font-size="10.00">RasterFile</text>
<g id="a_node6_11"><a xlink:href="http://bioprov.poli.usp.br/entityType" xlink:title="&lt;TABLE&gt;">
<text text-anchor="start" x="10" y="-74" font-family="Times,serif" font-size="10.00">bioprov:entityType</text>
</a>
</g>
<text text-anchor="start" x="101" y="-74" font-family="Times,serif" font-size="10.00">DataResource</text>
<g id="a_node6_12"><a xlink:href="http://purl.org/dc/terms/created" xlink:title="&lt;TABLE&gt;">
<text text-anchor="start" x="10" y="-61" font-family="Times,serif" font-size="10.00">dcterms:created</text>
</a>
</g>
<text text-anchor="start" x="101" y="-61" font-family="Times,serif" font-size="10.00">2017&#45;02&#45;10 01:33:25</text>
<g id="a_node6_13"><a xlink:href="http://purl.org/dc/terms/identifier" xlink:title="&lt;TABLE&gt;">
<text text-anchor="start" x="10" y="-48" font-family="Times,serif" font-size="10.00">dcterms:identifier</text>
</a>
</g>
<text text-anchor="start" x="101" y="-48" font-family="Times,serif" font-size="10.00">SDM_Map</text>
<g id="a_node6_14"><a xlink:href="http://purl.org/dc/terms/source" xlink:title="&lt;TABLE&gt;">
<text text-anchor="start" x="10" y="-35" font-family="Times,serif" font-size="10.00">dcterms:source</text>
</a>
</g>
<text text-anchor="start" x="101" y="-35" font-family="Times,serif" font-size="10.00">https://gitlab.com/daniellins/SDM_Urocitellus_beldingi/raw/master/ex1_oBeech_modern_randomBg_r/Urocitellus_beldingi_map_modern.tif</text>
<g id="a_node6_15"><a xlink:href="http://purl.org/dc/terms/title" xlink:title="&lt;TABLE&gt;">
<text text-anchor="start" x="10" y="-22" font-family="Times,serif" font-size="10.00">dcterms:title</text>
</a>
</g>
<text text-anchor="start" x="101" y="-22" font-family="Times,serif" font-size="10.00">Raster Map of Species Distribution Modeling</text>
<g id="a_node6_16"><a xlink:href="http://purl.org/dc/terms/type" xlink:title="&lt;TABLE&gt;">
<text text-anchor="start" x="10" y="-9" font-family="Times,serif" font-size="10.00">dcterms:type</text>
</a>
</g>
<text text-anchor="start" x="101" y="-9" font-family="Times,serif" font-size="10.00">StillImage</text>
</g>
<!-- ann3&#45;&gt;n3 -->
<g id="edge3" class="edge"><title>ann3&#45;&gt;n3</title>
<path fill="none" stroke="gray" stroke-dasharray="5,2" d="M347,-102.122C347,-122.634 347,-145 347,-159.896"/>
</g>
<!-- n4 -->
<g id="node7" class="node"><title>n4</title>
<g id="a_node7"><a xlink:href="http://bioprov.poli.usp.br/model/Urocitellus_beldingi" xlink:title="bioprov:model/Urocitellus_beldingi">
<ellipse fill="#fffc87" stroke="#808080" cx="497" cy="-452" rx="137.576" ry="18"/>
<text text-anchor="middle" x="497" y="-448.3" font-family="Times,serif" font-size="14.00">bioprov:model/Urocitellus_beldingi</text>
</a>
</g>
</g>
<!-- n4&#45;&gt;n1 -->
<g id="edge9" class="edge"><title>n4&#45;&gt;n1</title>
<path fill="none" stroke="#fed37f" d="M469.588,-469.843C439.918,-488.074 392.709,-517.082 361.784,-536.084"/>
<polygon fill="#fed37f" stroke="#fed37f" points="359.822,-533.182 353.135,-541.399 363.487,-539.146 359.822,-533.182"/>
<text text-anchor="middle" x="439" y="-511.5" font-family="Times,serif" font-size="10.00">wasAttributedTo</text>
</g>
<!-- ann4 -->
<g id="node8" class="node"><title>ann4</title>
<polygon fill="none" stroke="gray" points="1209,-366 675,-366 675,-264 1215,-264 1215,-360 1209,-366"/>
<polyline fill="none" stroke="gray" points="1209,-366 1209,-360 "/>
<polyline fill="none" stroke="gray" points="1215,-360 1209,-360 "/>
<g id="a_node8_17"><a xlink:href="http://bioprov.poli.usp.br/entityFormat" xlink:title="&lt;TABLE&gt;">
<text text-anchor="start" x="685" y="-351.5" font-family="Times,serif" font-size="10.00">bioprov:entityFormat</text>
</a>
</g>
<text text-anchor="start" x="776" y="-351.5" font-family="Times,serif" font-size="10.00">Archive</text>
<g id="a_node8_18"><a xlink:href="http://bioprov.poli.usp.br/entityType" xlink:title="&lt;TABLE&gt;">
<text text-anchor="start" x="685" y="-338" font-family="Times,serif" font-size="10.00">bioprov:entityType</text>
</a>
</g>
<text text-anchor="start" x="776" y="-338" font-family="Times,serif" font-size="10.00">DataResource</text>
<g id="a_node8_19"><a xlink:href="http://purl.org/dc/terms/created" xlink:title="&lt;TABLE&gt;">
<text text-anchor="start" x="685" y="-325" font-family="Times,serif" font-size="10.00">dcterms:created</text>
</a>
</g>
<text text-anchor="start" x="776" y="-325" font-family="Times,serif" font-size="10.00">2017&#45;02&#45;10 01:33:15</text>
<g id="a_node8_20"><a xlink:href="http://purl.org/dc/terms/identifier" xlink:title="&lt;TABLE&gt;">
<text text-anchor="start" x="685" y="-312" font-family="Times,serif" font-size="10.00">dcterms:identifier</text>
</a>
</g>
<text text-anchor="start" x="776" y="-312" font-family="Times,serif" font-size="10.00">SDMModel</text>
<g id="a_node8_21"><a xlink:href="http://purl.org/dc/terms/source" xlink:title="&lt;TABLE&gt;">
<text text-anchor="start" x="685" y="-299" font-family="Times,serif" font-size="10.00">dcterms:source</text>
</a>
</g>
<text text-anchor="start" x="776" y="-299" font-family="Times,serif" font-size="10.00">https://gitlab.com/daniellins/SDM_Urocitellus_beldingi/tree/master/ex1_oBeech_modern_randomBg_r/</text>
<g id="a_node8_22"><a xlink:href="http://purl.org/dc/terms/subject" xlink:title="&lt;TABLE&gt;">
<text text-anchor="start" x="685" y="-286" font-family="Times,serif" font-size="10.00">dcterms:subject</text>
</a>
</g>
<text text-anchor="start" x="776" y="-286" font-family="Times,serif" font-size="10.00">http://orcid.org/0000&#45;0003&#45;4627&#45;0244</text>
<g id="a_node8_23"><a xlink:href="http://purl.org/dc/terms/title" xlink:title="&lt;TABLE&gt;">
<text text-anchor="start" x="685" y="-273" font-family="Times,serif" font-size="10.00">dcterms:title</text>
</a>
</g>
<text text-anchor="start" x="776" y="-273" font-family="Times,serif" font-size="10.00">Resulting Model from MAXENT</text>
</g>
<!-- ann4&#45;&gt;n4 -->
<g id="edge4" class="edge"><title>ann4&#45;&gt;n4</title>
<path fill="none" stroke="gray" stroke-dasharray="5,2" d="M778.818,-366.077C697.514,-390.577 605.302,-418.364 549.156,-435.283"/>
</g>
<!-- b1&#45;&gt;n4 -->
<g id="edge6" class="edge"><title>b1&#45;&gt;n4</title>
<path fill="none" stroke="black" d="M363.889,-317.393C363.459,-323.687 362.461,-349.873 374,-366 383.271,-378.957 391.654,-375.299 405,-384 426.194,-397.818 449.203,-414.575 466.909,-427.874"/>
<polygon fill="black" stroke="black" points="465.056,-430.86 475.144,-434.097 469.276,-425.276 465.056,-430.86"/>
</g>
</g>
</svg>
