<?xml version="1.0" encoding="UTF-8" standalone="no"?>
<!DOCTYPE svg PUBLIC "-//W3C//DTD SVG 1.1//EN"
 "http://www.w3.org/Graphics/SVG/1.1/DTD/svg11.dtd">
<!-- Generated by graphviz version 2.36.0 (20140111.2315)
 -->
<!-- Title: G Pages: 1 -->
<svg width="1518pt" height="734pt"
 viewBox="0.00 0.00 1518.00 734.00" xmlns="http://www.w3.org/2000/svg" xmlns:xlink="http://www.w3.org/1999/xlink">
<g id="graph0" class="graph" transform="scale(1 1) rotate(0) translate(4 730)">
<title>G</title>
<polygon fill="white" stroke="none" points="-4,4 -4,-730 1514,-730 1514,4 -4,4"/>
<!-- n1 -->
<g id="node1" class="node"><title>n1</title>
<g id="a_node1"><a xlink:href="http://orcid.org/0000-0002-6420-1659" xlink:title="orcid:0000&#45;0002&#45;6420&#45;1659">
<polygon fill="#fed37f" stroke="black" points="366.647,-713.562 230,-726 93.3532,-713.562 93.4807,-693.438 366.519,-693.438 366.647,-713.562"/>
<text text-anchor="middle" x="230" y="-704.3" font-family="Times,serif" font-size="14.00">orcid:0000&#45;0002&#45;6420&#45;1659</text>
</a>
</g>
</g>
<!-- ann1 -->
<g id="node2" class="node"><title>ann1</title>
<polygon fill="none" stroke="gray" points="275,-642 61,-642 61,-566 281,-566 281,-636 275,-642"/>
<polyline fill="none" stroke="gray" points="275,-642 275,-636 "/>
<polyline fill="none" stroke="gray" points="281,-636 275,-636 "/>
<g id="a_node2_0"><a xlink:href="http://purl.org/dc/terms/created" xlink:title="&lt;TABLE&gt;">
<text text-anchor="start" x="71" y="-627.5" font-family="Times,serif" font-size="10.00">dcterms:created</text>
</a>
</g>
<text text-anchor="start" x="147" y="-627.5" font-family="Times,serif" font-size="10.00">2017&#45;02&#45;09 14:57:10</text>
<g id="a_node2_1"><a xlink:href="http://purl.org/dc/terms/identifier" xlink:title="&lt;TABLE&gt;">
<text text-anchor="start" x="71" y="-614" font-family="Times,serif" font-size="10.00">dcterms:identifier</text>
</a>
</g>
<text text-anchor="start" x="147" y="-614" font-family="Times,serif" font-size="10.00">Smith</text>
<g id="a_node2_2"><a xlink:href="http://xmlns.com/foaf/0.1/mbox" xlink:title="&lt;TABLE&gt;">
<text text-anchor="start" x="71" y="-601" font-family="Times,serif" font-size="10.00">foaf:mbox</text>
</a>
</g>
<text text-anchor="start" x="147" y="-601" font-family="Times,serif" font-size="10.00">mailto:adam@earthskysea.org</text>
<g id="a_node2_3"><a xlink:href="http://xmlns.com/foaf/0.1/name" xlink:title="&lt;TABLE&gt;">
<text text-anchor="start" x="71" y="-588" font-family="Times,serif" font-size="10.00">foaf:name</text>
</a>
</g>
<text text-anchor="start" x="147" y="-588" font-family="Times,serif" font-size="10.00">Adam B. Smith</text>
<g id="a_node2_4"><a xlink:href="http://www.w3.org/2000/01/rdf-schema#seeAlso" xlink:title="&lt;TABLE&gt;">
<text text-anchor="start" x="71" y="-575" font-family="Times,serif" font-size="10.00">rdfs:seeAlso</text>
</a>
</g>
<text text-anchor="start" x="147" y="-575" font-family="Times,serif" font-size="10.00">http://www.earthskysea.org/</text>
</g>
<!-- ann1&#45;&gt;n1 -->
<g id="edge1" class="edge"><title>ann1&#45;&gt;n1</title>
<path fill="none" stroke="gray" stroke-dasharray="5,2" d="M192.467,-642.113C202.747,-659.885 214.436,-680.092 221.999,-693.168"/>
</g>
<!-- n2 -->
<g id="node3" class="node"><title>n2</title>
<g id="a_node3"><a xlink:href="http://orcid.org/0000-0002-1244-9126" xlink:title="orcid:0000&#45;0002&#45;1244&#45;9126">
<polygon fill="#fed37f" stroke="black" points="1000.65,-289.562 864,-302 727.353,-289.562 727.481,-269.438 1000.52,-269.438 1000.65,-289.562"/>
<text text-anchor="middle" x="864" y="-280.3" font-family="Times,serif" font-size="14.00">orcid:0000&#45;0002&#45;1244&#45;9126</text>
</a>
</g>
</g>
<!-- ann2 -->
<g id="node4" class="node"><title>ann2</title>
<polygon fill="none" stroke="gray" points="904.5,-204 633.5,-204 633.5,-128 910.5,-128 910.5,-198 904.5,-204"/>
<polyline fill="none" stroke="gray" points="904.5,-204 904.5,-198 "/>
<polyline fill="none" stroke="gray" points="910.5,-198 904.5,-198 "/>
<g id="a_node4_5"><a xlink:href="http://purl.org/dc/terms/created" xlink:title="&lt;TABLE&gt;">
<text text-anchor="start" x="644" y="-189.5" font-family="Times,serif" font-size="10.00">dcterms:created</text>
</a>
</g>
<text text-anchor="start" x="720" y="-189.5" font-family="Times,serif" font-size="10.00">2017&#45;02&#45;09 14:57:11</text>
<g id="a_node4_6"><a xlink:href="http://purl.org/dc/terms/identifier" xlink:title="&lt;TABLE&gt;">
<text text-anchor="start" x="644" y="-176" font-family="Times,serif" font-size="10.00">dcterms:identifier</text>
</a>
</g>
<text text-anchor="start" x="720" y="-176" font-family="Times,serif" font-size="10.00">daniellins</text>
<g id="a_node4_7"><a xlink:href="http://xmlns.com/foaf/0.1/mbox" xlink:title="&lt;TABLE&gt;">
<text text-anchor="start" x="644" y="-163" font-family="Times,serif" font-size="10.00">foaf:mbox</text>
</a>
</g>
<text text-anchor="start" x="720" y="-163" font-family="Times,serif" font-size="10.00">mailto:daniellins@usp.br</text>
<g id="a_node4_8"><a xlink:href="http://xmlns.com/foaf/0.1/name" xlink:title="&lt;TABLE&gt;">
<text text-anchor="start" x="644" y="-150" font-family="Times,serif" font-size="10.00">foaf:name</text>
</a>
</g>
<text text-anchor="start" x="720" y="-150" font-family="Times,serif" font-size="10.00">Daniel Lins da Silva</text>
<g id="a_node4_9"><a xlink:href="http://www.w3.org/2000/01/rdf-schema#seeAlso" xlink:title="&lt;TABLE&gt;">
<text text-anchor="start" x="644" y="-137" font-family="Times,serif" font-size="10.00">rdfs:seeAlso</text>
</a>
</g>
<text text-anchor="start" x="720" y="-137" font-family="Times,serif" font-size="10.00">http://bioprov.poli.usp.br/students/6613529</text>
</g>
<!-- ann2&#45;&gt;n2 -->
<g id="edge2" class="edge"><title>ann2&#45;&gt;n2</title>
<path fill="none" stroke="gray" stroke-dasharray="5,2" d="M801.362,-204.022C819.031,-226.301 840.486,-253.351 853.148,-269.316"/>
</g>
<!-- n3 -->
<g id="node5" class="node"><title>n3</title>
<g id="a_node5"><a xlink:href="http://orcid.org/0000-0003-4627-0244" xlink:title="orcid:0000&#45;0003&#45;4627&#45;0244">
<polygon fill="#fed37f" stroke="black" points="1331.65,-289.562 1195,-302 1058.35,-289.562 1058.48,-269.438 1331.52,-269.438 1331.65,-289.562"/>
<text text-anchor="middle" x="1195" y="-280.3" font-family="Times,serif" font-size="14.00">orcid:0000&#45;0003&#45;4627&#45;0244</text>
</a>
</g>
</g>
<!-- ann3 -->
<g id="node6" class="node"><title>ann3</title>
<polygon fill="none" stroke="gray" points="1400.5,-204 1129.5,-204 1129.5,-128 1406.5,-128 1406.5,-198 1400.5,-204"/>
<polyline fill="none" stroke="gray" points="1400.5,-204 1400.5,-198 "/>
<polyline fill="none" stroke="gray" points="1406.5,-198 1400.5,-198 "/>
<g id="a_node6_10"><a xlink:href="http://purl.org/dc/terms/created" xlink:title="&lt;TABLE&gt;">
<text text-anchor="start" x="1140" y="-189.5" font-family="Times,serif" font-size="10.00">dcterms:created</text>
</a>
</g>
<text text-anchor="start" x="1216" y="-189.5" font-family="Times,serif" font-size="10.00">2017&#45;02&#45;09 14:57:11</text>
<g id="a_node6_11"><a xlink:href="http://purl.org/dc/terms/identifier" xlink:title="&lt;TABLE&gt;">
<text text-anchor="start" x="1140" y="-176" font-family="Times,serif" font-size="10.00">dcterms:identifier</text>
</a>
</g>
<text text-anchor="start" x="1216" y="-176" font-family="Times,serif" font-size="10.00">andrefilipe</text>
<g id="a_node6_12"><a xlink:href="http://xmlns.com/foaf/0.1/mbox" xlink:title="&lt;TABLE&gt;">
<text text-anchor="start" x="1140" y="-163" font-family="Times,serif" font-size="10.00">foaf:mbox</text>
</a>
</g>
<text text-anchor="start" x="1216" y="-163" font-family="Times,serif" font-size="10.00">mailto:andrefmb@usp.br</text>
<g id="a_node6_13"><a xlink:href="http://xmlns.com/foaf/0.1/name" xlink:title="&lt;TABLE&gt;">
<text text-anchor="start" x="1140" y="-150" font-family="Times,serif" font-size="10.00">foaf:name</text>
</a>
</g>
<text text-anchor="start" x="1216" y="-150" font-family="Times,serif" font-size="10.00">Andre Filipe de Moraes Batista</text>
<g id="a_node6_14"><a xlink:href="http://www.w3.org/2000/01/rdf-schema#seeAlso" xlink:title="&lt;TABLE&gt;">
<text text-anchor="start" x="1140" y="-137" font-family="Times,serif" font-size="10.00">rdfs:seeAlso</text>
</a>
</g>
<text text-anchor="start" x="1216" y="-137" font-family="Times,serif" font-size="10.00">http://bioprov.poli.usp.br/students/8788438</text>
</g>
<!-- ann3&#45;&gt;n3 -->
<g id="edge3" class="edge"><title>ann3&#45;&gt;n3</title>
<path fill="none" stroke="gray" stroke-dasharray="5,2" d="M1253.71,-204.194C1249.25,-214.188 1243.92,-224.776 1238,-234 1229.69,-246.954 1218.07,-259.973 1209.01,-269.333"/>
</g>
<!-- n4 -->
<g id="node7" class="node"><title>n4</title>
<g id="a_node7"><a xlink:href="http://www.uc-ciee.org/report/5232" xlink:title="www.uc&#45;ciee.org:">
<ellipse fill="#fffc87" stroke="#808080" cx="599" cy="-372" rx="74.187" ry="18"/>
<text text-anchor="middle" x="599" y="-368.3" font-family="Times,serif" font-size="14.00">www.uc&#45;ciee.org:</text>
</a>
</g>
</g>
<!-- b2 -->
<g id="node14" class="node"><title>b2</title>
<ellipse fill="gray" stroke="gray" cx="599" cy="-483" rx="1.8" ry="1.8"/>
</g>
<!-- n4&#45;&gt;b2 -->
<g id="edge11" class="edge"><title>n4&#45;&gt;b2</title>
<path fill="none" stroke="black" d="M599,-390.031C599,-418.292 599,-472.607 599,-480.921"/>
<text text-anchor="middle" x="634" y="-411.5" font-family="Times,serif" font-size="10.00">wasDerivedFrom</text>
</g>
<!-- ann4 -->
<g id="node8" class="node"><title>ann4</title>
<polygon fill="none" stroke="gray" points="703.5,-315.5 192.5,-315.5 192.5,-252.5 709.5,-252.5 709.5,-309.5 703.5,-315.5"/>
<polyline fill="none" stroke="gray" points="703.5,-315.5 703.5,-309.5 "/>
<polyline fill="none" stroke="gray" points="709.5,-309.5 703.5,-309.5 "/>
<g id="a_node8_15"><a xlink:href="http://purl.org/dc/terms/created" xlink:title="&lt;TABLE&gt;">
<text text-anchor="start" x="203" y="-300.5" font-family="Times,serif" font-size="10.00">dcterms:created</text>
</a>
</g>
<text text-anchor="start" x="270" y="-300.5" font-family="Times,serif" font-size="10.00">2017&#45;02&#45;09 14:57:10</text>
<g id="a_node8_16"><a xlink:href="http://purl.org/dc/terms/source" xlink:title="&lt;TABLE&gt;">
<text text-anchor="start" x="203" y="-287" font-family="Times,serif" font-size="10.00">dcterms:source</text>
</a>
</g>
<text text-anchor="start" x="270" y="-287" font-family="Times,serif" font-size="10.00">http://www.uc&#45;ciee.org/downloads/Grinnellresurvey.Smith.pdf</text>
<g id="a_node8_17"><a xlink:href="http://purl.org/dc/terms/title" xlink:title="&lt;TABLE&gt;">
<text text-anchor="start" x="203" y="-274" font-family="Times,serif" font-size="10.00">dcterms:title</text>
</a>
</g>
<text text-anchor="start" x="270" y="-274" font-family="Times,serif" font-size="10.00">Testing methods for predicting mammalian species responses to 20th century climate change in California</text>
<g id="a_node8_18"><a xlink:href="http://purl.org/dc/terms/type" xlink:title="&lt;TABLE&gt;">
<text text-anchor="start" x="203" y="-261" font-family="Times,serif" font-size="10.00">dcterms:type</text>
</a>
</g>
<text text-anchor="start" x="270" y="-261" font-family="Times,serif" font-size="10.00">DataResource</text>
</g>
<!-- ann4&#45;&gt;n4 -->
<g id="edge4" class="edge"><title>ann4&#45;&gt;n4</title>
<path fill="none" stroke="gray" stroke-dasharray="5,2" d="M503.596,-315.563C526.527,-328.888 552.459,-343.956 571.493,-355.016"/>
</g>
<!-- n5 -->
<g id="node9" class="node"><title>n5</title>
<g id="a_node9"><a xlink:href="http://bioprov.poli.usp.br/projects/5" xlink:title="bioprov:projects/5">
<ellipse fill="#fffc87" stroke="#808080" cx="374" cy="-604" rx="75.2868" ry="18"/>
<text text-anchor="middle" x="374" y="-600.3" font-family="Times,serif" font-size="14.00">bioprov:projects/5</text>
</a>
</g>
</g>
<!-- n5&#45;&gt;n1 -->
<g id="edge13" class="edge"><title>n5&#45;&gt;n1</title>
<path fill="none" stroke="#fed37f" d="M351.183,-621.162C325.85,-639.106 284.959,-668.071 257.782,-687.321"/>
<polygon fill="#fed37f" stroke="#fed37f" points="255.615,-684.567 249.478,-693.203 259.661,-690.279 255.615,-684.567"/>
<text text-anchor="middle" x="328" y="-663.5" font-family="Times,serif" font-size="10.00">wasAttributedTo</text>
</g>
<!-- ann5 -->
<g id="node10" class="node"><title>ann5</title>
<polygon fill="none" stroke="gray" points="573.5,-527.5 0.5,-527.5 0.5,-438.5 579.5,-438.5 579.5,-521.5 573.5,-527.5"/>
<polyline fill="none" stroke="gray" points="573.5,-527.5 573.5,-521.5 "/>
<polyline fill="none" stroke="gray" points="579.5,-521.5 573.5,-521.5 "/>
<g id="a_node10_19"><a xlink:href="http://bioprov.poli.usp.br/studyAreaDescription" xlink:title="&lt;TABLE&gt;">
<text text-anchor="start" x="11" y="-512.5" font-family="Times,serif" font-size="10.00">bioprov:studyAreaDescription</text>
</a>
</g>
<text text-anchor="start" x="140" y="-512.5" font-family="Times,serif" font-size="10.00">Biodiversity</text>
<g id="a_node10_20"><a xlink:href="http://bioprov.poli.usp.br/taxonomicCoverage" xlink:title="&lt;TABLE&gt;">
<text text-anchor="start" x="11" y="-499" font-family="Times,serif" font-size="10.00">bioprov:taxonomicCoverage</text>
</a>
</g>
<text text-anchor="start" x="140" y="-499" font-family="Times,serif" font-size="10.00">Mammalian species</text>
<g id="a_node10_21"><a xlink:href="http://purl.org/dc/terms/created" xlink:title="&lt;TABLE&gt;">
<text text-anchor="start" x="11" y="-486" font-family="Times,serif" font-size="10.00">dcterms:created</text>
</a>
</g>
<text text-anchor="start" x="140" y="-486" font-family="Times,serif" font-size="10.00">2017&#45;02&#45;09 14:57:10</text>
<g id="a_node10_22"><a xlink:href="http://purl.org/dc/terms/spatial" xlink:title="&lt;TABLE&gt;">
<text text-anchor="start" x="11" y="-473" font-family="Times,serif" font-size="10.00">dcterms:spatial</text>
</a>
</g>
<text text-anchor="start" x="140" y="-473" font-family="Times,serif" font-size="10.00">Western United States</text>
<g id="a_node10_23"><a xlink:href="http://purl.org/dc/terms/title" xlink:title="&lt;TABLE&gt;">
<text text-anchor="start" x="11" y="-460" font-family="Times,serif" font-size="10.00">dcterms:title</text>
</a>
</g>
<text text-anchor="start" x="140" y="-460" font-family="Times,serif" font-size="10.00">Testing methods for predicting mammalian species responses to 20th century climate change in California</text>
<g id="a_node10_24"><a xlink:href="http://purl.org/dc/terms/type" xlink:title="&lt;TABLE&gt;">
<text text-anchor="start" x="11" y="-447" font-family="Times,serif" font-size="10.00">dcterms:type</text>
</a>
</g>
<text text-anchor="start" x="140" y="-447" font-family="Times,serif" font-size="10.00">Project</text>
</g>
<!-- ann5&#45;&gt;n5 -->
<g id="edge5" class="edge"><title>ann5&#45;&gt;n5</title>
<path fill="none" stroke="gray" stroke-dasharray="5,2" d="M320.802,-527.635C335.129,-547.933 351.333,-570.889 362.053,-586.075"/>
</g>
<!-- n6 -->
<g id="node11" class="node"><title>n6</title>
<g id="a_node11"><a xlink:href="http://bioprov.poli.usp.br/experiment/31" xlink:title="bioprov:experiment/31">
<ellipse fill="#fffc87" stroke="#808080" cx="1020" cy="-166" rx="91.784" ry="18"/>
<text text-anchor="middle" x="1020" y="-162.3" font-family="Times,serif" font-size="14.00">bioprov:experiment/31</text>
</a>
</g>
</g>
<!-- n6&#45;&gt;n2 -->
<g id="edge7" class="edge"><title>n6&#45;&gt;n2</title>
<path fill="none" stroke="#fed37f" d="M997.654,-183.604C982.971,-194.516 963.341,-209.106 946,-222 927.499,-235.757 906.654,-251.264 890.61,-263.2"/>
<polygon fill="#fed37f" stroke="#fed37f" points="888.17,-260.653 882.237,-269.43 892.349,-266.269 888.17,-260.653"/>
<text text-anchor="middle" x="981" y="-225.5" font-family="Times,serif" font-size="10.00">wasAttributedTo</text>
</g>
<!-- n6&#45;&gt;n3 -->
<g id="edge8" class="edge"><title>n6&#45;&gt;n3</title>
<path fill="none" stroke="#fed37f" d="M1044.7,-183.374C1076.62,-204.528 1132.09,-241.298 1165.98,-263.761"/>
<polygon fill="#fed37f" stroke="#fed37f" points="1164.24,-266.812 1174.51,-269.42 1168.11,-260.977 1164.24,-266.812"/>
<text text-anchor="middle" x="1152" y="-225.5" font-family="Times,serif" font-size="10.00">wasAttributedTo</text>
</g>
<!-- b1 -->
<g id="node13" class="node"><title>b1</title>
<ellipse fill="gray" stroke="gray" cx="1020" cy="-284" rx="1.8" ry="1.8"/>
</g>
<!-- n6&#45;&gt;b1 -->
<g id="edge9" class="edge"><title>n6&#45;&gt;b1</title>
<path fill="none" stroke="black" d="M1020,-184.116C1020,-214.115 1020,-273.802 1020,-282.047"/>
<text text-anchor="middle" x="1055" y="-225.5" font-family="Times,serif" font-size="10.00">wasDerivedFrom</text>
</g>
<!-- ann6 -->
<g id="node12" class="node"><title>ann6</title>
<polygon fill="none" stroke="gray" points="1504.5,-89.5 529.5,-89.5 529.5,-0.5 1510.5,-0.5 1510.5,-83.5 1504.5,-89.5"/>
<polyline fill="none" stroke="gray" points="1504.5,-89.5 1504.5,-83.5 "/>
<polyline fill="none" stroke="gray" points="1510.5,-83.5 1504.5,-83.5 "/>
<g id="a_node12_25"><a xlink:href="http://purl.org/dc/terms/created" xlink:title="&lt;TABLE&gt;">
<text text-anchor="start" x="540" y="-74.5" font-family="Times,serif" font-size="10.00">dcterms:created</text>
</a>
</g>
<text text-anchor="start" x="624" y="-74.5" font-family="Times,serif" font-size="10.00">2017&#45;02&#45;09 14:57:11</text>
<g id="a_node12_26"><a xlink:href="http://purl.org/dc/terms/creator" xlink:title="&lt;TABLE&gt;">
<text text-anchor="start" x="540" y="-61" font-family="Times,serif" font-size="10.00">dcterms:creator</text>
</a>
</g>
<text text-anchor="start" x="624" y="-61" font-family="Times,serif" font-size="10.00">http://orcid.org/0000&#45;0002&#45;1244&#45;9126</text>
<g id="a_node12_27"><a xlink:href="http://purl.org/dc/terms/date" xlink:title="&lt;TABLE&gt;">
<text text-anchor="start" x="540" y="-48" font-family="Times,serif" font-size="10.00">dcterms:date</text>
</a>
</g>
<text text-anchor="start" x="624" y="-48" font-family="Times,serif" font-size="10.00">Thu Feb &#160;9 14:57:11 2017</text>
<g id="a_node12_28"><a xlink:href="http://purl.org/dc/terms/description" xlink:title="&lt;TABLE&gt;">
<text text-anchor="start" x="540" y="-35" font-family="Times,serif" font-size="10.00">dcterms:description</text>
</a>
</g>
<text text-anchor="start" x="624" y="-35" font-family="Times,serif" font-size="10.00">This work aims to show the relationship between physical aspects and the occurrences of Urocitellus beldingi in the Western US. We use the R programming language and DISMO Package to execute this experiment.</text>
<g id="a_node12_29"><a xlink:href="http://purl.org/dc/terms/title" xlink:title="&lt;TABLE&gt;">
<text text-anchor="start" x="540" y="-22" font-family="Times,serif" font-size="10.00">dcterms:title</text>
</a>
</g>
<text text-anchor="start" x="624" y="-22" font-family="Times,serif" font-size="10.00">Species Distribution Modeling of Urocitellus beldingi </text>
<g id="a_node12_30"><a xlink:href="http://purl.org/dc/terms/type" xlink:title="&lt;TABLE&gt;">
<text text-anchor="start" x="540" y="-9" font-family="Times,serif" font-size="10.00">dcterms:type</text>
</a>
</g>
<text text-anchor="start" x="624" y="-9" font-family="Times,serif" font-size="10.00">Experiment</text>
</g>
<!-- ann6&#45;&gt;n6 -->
<g id="edge6" class="edge"><title>ann6&#45;&gt;n6</title>
<path fill="none" stroke="gray" stroke-dasharray="5,2" d="M1020,-89.6355C1020,-109.801 1020,-132.589 1020,-147.776"/>
</g>
<!-- b1&#45;&gt;n4 -->
<g id="edge10" class="edge"><title>b1&#45;&gt;n4</title>
<path fill="none" stroke="black" d="M1019.99,-285.954C1019.91,-290.251 1018.93,-307.941 1009,-316 960.423,-355.41 788.112,-366.653 682.953,-369.813"/>
<polygon fill="black" stroke="black" points="682.576,-366.323 672.679,-370.103 682.773,-373.32 682.576,-366.323"/>
</g>
<!-- b2&#45;&gt;n5 -->
<g id="edge12" class="edge"><title>b2&#45;&gt;n5</title>
<path fill="none" stroke="black" d="M599.084,-485.28C599.393,-491.054 599.884,-514.967 588,-528 553.031,-566.348 497.329,-585.09 451.521,-594.248"/>
<polygon fill="black" stroke="black" points="450.789,-590.825 441.609,-596.114 452.084,-597.704 450.789,-590.825"/>
</g>
</g>
</svg>
