<?xml version="1.0" encoding="UTF-8" standalone="no"?>
<!DOCTYPE svg PUBLIC "-//W3C//DTD SVG 1.1//EN"
 "http://www.w3.org/Graphics/SVG/1.1/DTD/svg11.dtd">
<!-- Generated by graphviz version 2.40.1 (20161225.0304)
 -->
<!-- Title: G Pages: 1 -->
<svg width="1578pt" height="504pt"
 viewBox="0.00 0.00 1578.00 504.00" xmlns="http://www.w3.org/2000/svg" xmlns:xlink="http://www.w3.org/1999/xlink">
<g id="graph0" class="graph" transform="scale(1 1) rotate(0) translate(4 500)">
<title>G</title>
<polygon fill="#ffffff" stroke="transparent" points="-4,4 -4,-500 1574,-500 1574,4 -4,4"/>
<!-- n1 -->
<g id="node1" class="node">
<title>n1</title>
<g id="a_node1"><a xlink:href="http://bioprov.poli.usp.br/projects/5" xlink:title="bioprov.poli.usp.br1:">
<ellipse fill="#fffc87" stroke="#808080" cx="325" cy="-382" rx="106.6812" ry="18"/>
<text text-anchor="middle" x="325" y="-378.3" font-family="Times,serif" font-size="14.00" fill="#000000">bioprov.poli.usp.br1:</text>
</a>
</g>
</g>
<!-- n2 -->
<g id="node3" class="node">
<title>n2</title>
<g id="a_node3"><a xlink:href="http://orcid.org/0000-0002-6420-1659" xlink:title="orcid.org1:">
<polygon fill="#fed37f" stroke="#000000" points="527.1413,-483.5623 451,-496 374.8587,-483.5623 374.9298,-463.4377 527.0702,-463.4377 527.1413,-483.5623"/>
<text text-anchor="middle" x="451" y="-474.3" font-family="Times,serif" font-size="14.00" fill="#000000">orcid.org1:</text>
</a>
</g>
</g>
<!-- n1&#45;&gt;n2 -->
<g id="edge8" class="edge">
<title>n1&#45;&gt;n2</title>
<path fill="none" stroke="#fed37f" d="M348.1103,-399.6079C369.4034,-415.8311 401.024,-439.923 423.5849,-457.1123"/>
<polygon fill="#fed37f" stroke="#fed37f" points="421.6721,-460.0551 431.7476,-463.3315 425.9144,-454.487 421.6721,-460.0551"/>
<text text-anchor="middle" x="444" y="-434" font-family="Times,serif" font-size="10.00" fill="#000000">wasAttributedTo</text>
</g>
<!-- ann1 -->
<g id="node2" class="node">
<title>ann1</title>
<polygon fill="none" stroke="#c0c0c0" points="620,-314 0,-314 0,-278 626,-278 626,-308 620,-314"/>
<polyline fill="none" stroke="#c0c0c0" points="620,-314 620,-308 "/>
<polyline fill="none" stroke="#c0c0c0" points="626,-308 620,-308 "/>
<g id="a_node2_0"><a xlink:href="http://purl.org/dc/terms/created" xlink:title="&lt;TABLE&gt;">
<text text-anchor="start" x="10" y="-300" font-family="Times,serif" font-size="10.00" fill="#000000">dcterms:created</text>
</a>
</g>
<text text-anchor="start" x="93" y="-300" font-family="Times,serif" font-size="10.00" fill="#000000">2021&#45;02&#45;23 08:29:59</text>
<g id="a_node2_1"><a xlink:href="http://purl.org/dc/terms/title" xlink:title="&lt;TABLE&gt;">
<text text-anchor="start" x="10" y="-287" font-family="Times,serif" font-size="10.00" fill="#000000">dcterms:title</text>
</a>
</g>
<text text-anchor="start" x="93" y="-287" font-family="Times,serif" font-size="10.00" fill="#000000">Testing methods for predicting mammalian species responses to 20th century climate change in California</text>
</g>
<!-- ann1&#45;&gt;n1 -->
<g id="edge1" class="edge">
<title>ann1&#45;&gt;n1</title>
<path fill="none" stroke="#c0c0c0" stroke-dasharray="5,2" d="M315.5449,-314.2384C317.5813,-328.8329 320.4233,-349.2004 322.4588,-363.7879"/>
</g>
<!-- ann2 -->
<g id="node4" class="node">
<title>ann2</title>
<polygon fill="none" stroke="#c0c0c0" points="698,-413 450,-413 450,-351 704,-351 704,-407 698,-413"/>
<polyline fill="none" stroke="#c0c0c0" points="698,-413 698,-407 "/>
<polyline fill="none" stroke="#c0c0c0" points="704,-407 698,-407 "/>
<g id="a_node4_2"><a xlink:href="http://purl.org/dc/terms/created" xlink:title="&lt;TABLE&gt;">
<text text-anchor="start" x="460" y="-399" font-family="Times,serif" font-size="10.00" fill="#000000">dcterms:created</text>
</a>
</g>
<text text-anchor="start" x="543" y="-399" font-family="Times,serif" font-size="10.00" fill="#000000">2021&#45;02&#45;23 08:29:59</text>
<g id="a_node4_3"><a xlink:href="http://xmlns.com/foaf/0.1/mbox" xlink:title="&lt;TABLE&gt;">
<text text-anchor="start" x="460" y="-386" font-family="Times,serif" font-size="10.00" fill="#000000">foaf:mbox</text>
</a>
</g>
<text text-anchor="start" x="543" y="-386" font-family="Times,serif" font-size="10.00" fill="#000000">mailto:adam@earthskysea.org</text>
<g id="a_node4_4"><a xlink:href="http://xmlns.com/foaf/0.1/name" xlink:title="&lt;TABLE&gt;">
<text text-anchor="start" x="460" y="-373" font-family="Times,serif" font-size="10.00" fill="#000000">foaf:name</text>
</a>
</g>
<text text-anchor="start" x="543" y="-373" font-family="Times,serif" font-size="10.00" fill="#000000">Adam B. Smith</text>
<g id="a_node4_5"><a xlink:href="http://www.w3.org/2000/01/rdf-schema#seeAlso" xlink:title="&lt;TABLE&gt;">
<text text-anchor="start" x="460" y="-360" font-family="Times,serif" font-size="10.00" fill="#000000">rdfs:seeAlso</text>
</a>
</g>
<text text-anchor="start" x="543" y="-360" font-family="Times,serif" font-size="10.00" fill="#000000">http://www.earthskysea.org/</text>
</g>
<!-- ann2&#45;&gt;n2 -->
<g id="edge2" class="edge">
<title>ann2&#45;&gt;n2</title>
<path fill="none" stroke="#c0c0c0" stroke-dasharray="5,2" d="M536.0914,-413.1684C513.9592,-430.0311 487.6622,-450.0669 470.2202,-463.356"/>
</g>
<!-- n3 -->
<g id="node5" class="node">
<title>n3</title>
<g id="a_node5"><a xlink:href="http://www.uc-ciee.org/Grinnellresurvey" xlink:title="www.uc&#45;ciee.org:">
<ellipse fill="#fffc87" stroke="#808080" cx="646" cy="-213" rx="90.9839" ry="18"/>
<text text-anchor="middle" x="646" y="-209.3" font-family="Times,serif" font-size="14.00" fill="#000000">www.uc&#45;ciee.org:</text>
</a>
</g>
</g>
<!-- b1 -->
<g id="node12" class="node">
<title>b1</title>
<ellipse fill="#c0c0c0" stroke="#c0c0c0" cx="646" cy="-296" rx="1.8" ry="1.8"/>
</g>
<!-- n3&#45;&gt;b1 -->
<g id="edge9" class="edge">
<title>n3&#45;&gt;b1</title>
<path fill="none" stroke="#000000" d="M646,-231.0098C646,-252.1786 646,-285.5063 646,-293.9856"/>
<text text-anchor="middle" x="688.5" y="-252" font-family="Times,serif" font-size="10.00" fill="#000000">wasDerivedFrom</text>
</g>
<!-- ann3 -->
<g id="node6" class="node">
<title>ann3</title>
<polygon fill="none" stroke="#c0c0c0" points="941,-158 321,-158 321,-109 947,-109 947,-152 941,-158"/>
<polyline fill="none" stroke="#c0c0c0" points="941,-158 941,-152 "/>
<polyline fill="none" stroke="#c0c0c0" points="947,-152 941,-152 "/>
<g id="a_node6_6"><a xlink:href="http://purl.org/dc/terms/created" xlink:title="&lt;TABLE&gt;">
<text text-anchor="start" x="331" y="-143.5" font-family="Times,serif" font-size="10.00" fill="#000000">dcterms:created</text>
</a>
</g>
<text text-anchor="start" x="414" y="-143.5" font-family="Times,serif" font-size="10.00" fill="#000000">2011&#45;03&#45;31</text>
<g id="a_node6_7"><a xlink:href="http://purl.org/dc/terms/source" xlink:title="&lt;TABLE&gt;">
<text text-anchor="start" x="331" y="-130.5" font-family="Times,serif" font-size="10.00" fill="#000000">dcterms:source</text>
</a>
</g>
<text text-anchor="start" x="414" y="-130.5" font-family="Times,serif" font-size="10.00" fill="#000000">http://www.uc&#45;ciee.org/downloads/Grinnellresurvey.Smith.pdf</text>
<g id="a_node6_8"><a xlink:href="http://purl.org/dc/terms/title" xlink:title="&lt;TABLE&gt;">
<text text-anchor="start" x="331" y="-117.5" font-family="Times,serif" font-size="10.00" fill="#000000">dcterms:title</text>
</a>
</g>
<text text-anchor="start" x="414" y="-117.5" font-family="Times,serif" font-size="10.00" fill="#000000">Testing methods for predicting mammalian species responses to 20th century climate change in California</text>
</g>
<!-- ann3&#45;&gt;n3 -->
<g id="edge3" class="edge">
<title>ann3&#45;&gt;n3</title>
<path fill="none" stroke="#c0c0c0" stroke-dasharray="5,2" d="M637.7311,-158.2185C639.5199,-170.0695 641.6243,-184.0111 643.2625,-194.8639"/>
</g>
<!-- n4 -->
<g id="node7" class="node">
<title>n4</title>
<g id="a_node7"><a xlink:href="http://orcid.org/0000-0002-1244-9126" xlink:title="orcid.org:">
<polygon fill="#fed37f" stroke="#000000" points="1103.1803,-139.0623 1034,-151.5 964.8197,-139.0623 964.8843,-118.9377 1103.1157,-118.9377 1103.1803,-139.0623"/>
<text text-anchor="middle" x="1034" y="-129.8" font-family="Times,serif" font-size="14.00" fill="#000000">orcid.org:</text>
</a>
</g>
</g>
<!-- ann4 -->
<g id="node8" class="node">
<title>ann4</title>
<polygon fill="none" stroke="#c0c0c0" points="1014,-62 708,-62 708,0 1020,0 1020,-56 1014,-62"/>
<polyline fill="none" stroke="#c0c0c0" points="1014,-62 1014,-56 "/>
<polyline fill="none" stroke="#c0c0c0" points="1020,-56 1014,-56 "/>
<g id="a_node8_9"><a xlink:href="http://purl.org/dc/terms/created" xlink:title="&lt;TABLE&gt;">
<text text-anchor="start" x="718" y="-48" font-family="Times,serif" font-size="10.00" fill="#000000">dcterms:created</text>
</a>
</g>
<text text-anchor="start" x="801" y="-48" font-family="Times,serif" font-size="10.00" fill="#000000">2021&#45;02&#45;23 08:29:59</text>
<g id="a_node8_10"><a xlink:href="http://xmlns.com/foaf/0.1/mbox" xlink:title="&lt;TABLE&gt;">
<text text-anchor="start" x="718" y="-35" font-family="Times,serif" font-size="10.00" fill="#000000">foaf:mbox</text>
</a>
</g>
<text text-anchor="start" x="801" y="-35" font-family="Times,serif" font-size="10.00" fill="#000000">mailto:daniellins@usp.br</text>
<g id="a_node8_11"><a xlink:href="http://xmlns.com/foaf/0.1/name" xlink:title="&lt;TABLE&gt;">
<text text-anchor="start" x="718" y="-22" font-family="Times,serif" font-size="10.00" fill="#000000">foaf:name</text>
</a>
</g>
<text text-anchor="start" x="801" y="-22" font-family="Times,serif" font-size="10.00" fill="#000000">Daniel Lins da Silva</text>
<g id="a_node8_12"><a xlink:href="http://www.w3.org/2000/01/rdf-schema#seeAlso" xlink:title="&lt;TABLE&gt;">
<text text-anchor="start" x="718" y="-9" font-family="Times,serif" font-size="10.00" fill="#000000">rdfs:seeAlso</text>
</a>
</g>
<text text-anchor="start" x="801" y="-9" font-family="Times,serif" font-size="10.00" fill="#000000">http://bioprov.poli.usp.br/students/6613529</text>
</g>
<!-- ann4&#45;&gt;n4 -->
<g id="edge4" class="edge">
<title>ann4&#45;&gt;n4</title>
<path fill="none" stroke="#c0c0c0" stroke-dasharray="5,2" d="M915.4669,-62.0315C946.7391,-80.8868 985.223,-104.0903 1009.6883,-118.8415"/>
</g>
<!-- n5 -->
<g id="node9" class="node">
<title>n5</title>
<g id="a_node9"><a xlink:href="http://orcid.org/0000-0003-4627-0244" xlink:title="orcid.org2:">
<polygon fill="#fed37f" stroke="#000000" points="1424.1413,-139.0623 1348,-151.5 1271.8587,-139.0623 1271.9298,-118.9377 1424.0702,-118.9377 1424.1413,-139.0623"/>
<text text-anchor="middle" x="1348" y="-129.8" font-family="Times,serif" font-size="14.00" fill="#000000">orcid.org2:</text>
</a>
</g>
</g>
<!-- ann5 -->
<g id="node10" class="node">
<title>ann5</title>
<polygon fill="none" stroke="#c0c0c0" points="1564,-62 1258,-62 1258,0 1570,0 1570,-56 1564,-62"/>
<polyline fill="none" stroke="#c0c0c0" points="1564,-62 1564,-56 "/>
<polyline fill="none" stroke="#c0c0c0" points="1570,-56 1564,-56 "/>
<g id="a_node10_13"><a xlink:href="http://purl.org/dc/terms/created" xlink:title="&lt;TABLE&gt;">
<text text-anchor="start" x="1268" y="-48" font-family="Times,serif" font-size="10.00" fill="#000000">dcterms:created</text>
</a>
</g>
<text text-anchor="start" x="1351" y="-48" font-family="Times,serif" font-size="10.00" fill="#000000">2021&#45;02&#45;23 08:29:59</text>
<g id="a_node10_14"><a xlink:href="http://xmlns.com/foaf/0.1/mbox" xlink:title="&lt;TABLE&gt;">
<text text-anchor="start" x="1268" y="-35" font-family="Times,serif" font-size="10.00" fill="#000000">foaf:mbox</text>
</a>
</g>
<text text-anchor="start" x="1351" y="-35" font-family="Times,serif" font-size="10.00" fill="#000000">mailto:andrefmb@usp.br</text>
<g id="a_node10_15"><a xlink:href="http://xmlns.com/foaf/0.1/name" xlink:title="&lt;TABLE&gt;">
<text text-anchor="start" x="1268" y="-22" font-family="Times,serif" font-size="10.00" fill="#000000">foaf:name</text>
</a>
</g>
<text text-anchor="start" x="1351" y="-22" font-family="Times,serif" font-size="10.00" fill="#000000">Andre Filipe de Moraes Batista</text>
<g id="a_node10_16"><a xlink:href="http://www.w3.org/2000/01/rdf-schema#seeAlso" xlink:title="&lt;TABLE&gt;">
<text text-anchor="start" x="1268" y="-9" font-family="Times,serif" font-size="10.00" fill="#000000">rdfs:seeAlso</text>
</a>
</g>
<text text-anchor="start" x="1351" y="-9" font-family="Times,serif" font-size="10.00" fill="#000000">http://bioprov.poli.usp.br/students/8788438</text>
</g>
<!-- ann5&#45;&gt;n5 -->
<g id="edge5" class="edge">
<title>ann5&#45;&gt;n5</title>
<path fill="none" stroke="#c0c0c0" stroke-dasharray="5,2" d="M1394.0187,-62.0315C1381.8778,-80.8868 1366.9369,-104.0903 1357.4386,-118.8415"/>
</g>
<!-- n6 -->
<g id="node11" class="node">
<title>n6</title>
<g id="a_node11"><a xlink:href="http://bioprov.poli.usp.br/bundle/31" xlink:title="bioprov.poli.usp.br:">
<ellipse fill="#d3d3d3" stroke="#696969" cx="1139" cy="-31" rx="100.9827" ry="18"/>
<text text-anchor="middle" x="1139" y="-27.3" font-family="Times,serif" font-size="14.00" fill="#000000">bioprov.poli.usp.br:</text>
</a>
</g>
</g>
<!-- n6&#45;&gt;n4 -->
<g id="edge6" class="edge">
<title>n6&#45;&gt;n4</title>
<path fill="none" stroke="#fed37f" d="M1093.2207,-47.2294C1077.2188,-54.9375 1060.4193,-65.6688 1049,-80 1042.4664,-88.1997 1038.7769,-99.0803 1036.6941,-108.8874"/>
<polygon fill="#fed37f" stroke="#fed37f" points="1033.2122,-108.4883 1035.0062,-118.9302 1040.1153,-109.6486 1033.2122,-108.4883"/>
<text text-anchor="middle" x="1090" y="-83" font-family="Times,serif" font-size="10.00" fill="#000000">wasAttributedTo</text>
</g>
<!-- n6&#45;&gt;n5 -->
<g id="edge7" class="edge">
<title>n6&#45;&gt;n5</title>
<path fill="none" stroke="#fed37f" d="M1173.5121,-47.9258C1210.7075,-66.1675 1269.7965,-95.1466 1308.7393,-114.2453"/>
<polygon fill="#fed37f" stroke="#fed37f" points="1307.6608,-117.6146 1318.1803,-118.8755 1310.7431,-111.3298 1307.6608,-117.6146"/>
<text text-anchor="middle" x="1297" y="-83" font-family="Times,serif" font-size="10.00" fill="#000000">wasAttributedTo</text>
</g>
<!-- b2 -->
<g id="node13" class="node">
<title>b2</title>
<ellipse fill="#c0c0c0" stroke="#c0c0c0" cx="1131" cy="-133.5" rx="1.8" ry="1.8"/>
</g>
<!-- n6&#45;&gt;b2 -->
<g id="edge11" class="edge">
<title>n6&#45;&gt;b2</title>
<path fill="none" stroke="#000000" d="M1137.5698,-49.3249C1135.5204,-75.5829 1131.9102,-121.8376 1131.145,-131.6417"/>
<text text-anchor="middle" x="1177.5" y="-83" font-family="Times,serif" font-size="10.00" fill="#000000">wasDerivedFrom</text>
</g>
<!-- b1&#45;&gt;n1 -->
<g id="edge10" class="edge">
<title>b1&#45;&gt;n1</title>
<path fill="none" stroke="#000000" d="M645.3654,-298.0622C644.0786,-301.8743 640.7822,-309.9986 635,-314 562.8214,-363.9493 526.5678,-331.4338 441,-351 424.1827,-354.8455 406.1159,-359.4444 389.365,-363.9077"/>
<polygon fill="#000000" stroke="#000000" points="388.4221,-360.5368 379.6738,-366.5132 390.2396,-367.2967 388.4221,-360.5368"/>
</g>
<!-- b2&#45;&gt;n3 -->
<g id="edge12" class="edge">
<title>b2&#45;&gt;n3</title>
<path fill="none" stroke="#000000" d="M1130.2746,-135.1801C1128.1983,-139.7607 1121.7474,-152.4922 1112,-158 1051.4398,-192.2196 864.3082,-205.2595 746.4209,-210.1493"/>
<polygon fill="#000000" stroke="#000000" points="746.1458,-206.6574 736.2945,-210.5564 746.4271,-213.6518 746.1458,-206.6574"/>
</g>
</g>
</svg>
