<?xml version="1.0" encoding="UTF-8" standalone="no"?>
<!DOCTYPE svg PUBLIC "-//W3C//DTD SVG 1.1//EN"
 "http://www.w3.org/Graphics/SVG/1.1/DTD/svg11.dtd">
<!-- Generated by graphviz version 2.36.0 (20140111.2315)
 -->
<!-- Title: G Pages: 1 -->
<svg width="1288pt" height="734pt"
 viewBox="0.00 0.00 1288.00 734.00" xmlns="http://www.w3.org/2000/svg" xmlns:xlink="http://www.w3.org/1999/xlink">
<g id="graph0" class="graph" transform="scale(1 1) rotate(0) translate(4 730)">
<title>G</title>
<polygon fill="white" stroke="none" points="-4,4 -4,-730 1284,-730 1284,4 -4,4"/>
<!-- n1 -->
<g id="node1" class="node"><title>n1</title>
<g id="a_node1"><a xlink:href="http://orcid.org/0000-0002-1244-9126" xlink:title="orcid:0000&#45;0002&#45;1244&#45;9126">
<polygon fill="#fed37f" stroke="black" points="402.647,-289.562 266,-302 129.353,-289.562 129.481,-269.438 402.519,-269.438 402.647,-289.562"/>
<text text-anchor="middle" x="266" y="-280.3" font-family="Times,serif" font-size="14.00">orcid:0000&#45;0002&#45;1244&#45;9126</text>
</a>
</g>
</g>
<!-- ann1 -->
<g id="node2" class="node"><title>ann1</title>
<polygon fill="none" stroke="gray" points="375.5,-204 104.5,-204 104.5,-128 381.5,-128 381.5,-198 375.5,-204"/>
<polyline fill="none" stroke="gray" points="375.5,-204 375.5,-198 "/>
<polyline fill="none" stroke="gray" points="381.5,-198 375.5,-198 "/>
<g id="a_node2_0"><a xlink:href="http://purl.org/dc/terms/created" xlink:title="&lt;TABLE&gt;">
<text text-anchor="start" x="115" y="-189.5" font-family="Times,serif" font-size="10.00">dcterms:created</text>
</a>
</g>
<text text-anchor="start" x="191" y="-189.5" font-family="Times,serif" font-size="10.00">2017&#45;02&#45;10 02:20:24</text>
<g id="a_node2_1"><a xlink:href="http://purl.org/dc/terms/identifier" xlink:title="&lt;TABLE&gt;">
<text text-anchor="start" x="115" y="-176" font-family="Times,serif" font-size="10.00">dcterms:identifier</text>
</a>
</g>
<text text-anchor="start" x="191" y="-176" font-family="Times,serif" font-size="10.00">daniellins</text>
<g id="a_node2_2"><a xlink:href="http://xmlns.com/foaf/0.1/mbox" xlink:title="&lt;TABLE&gt;">
<text text-anchor="start" x="115" y="-163" font-family="Times,serif" font-size="10.00">foaf:mbox</text>
</a>
</g>
<text text-anchor="start" x="191" y="-163" font-family="Times,serif" font-size="10.00">mailto:daniellins@usp.br</text>
<g id="a_node2_3"><a xlink:href="http://xmlns.com/foaf/0.1/name" xlink:title="&lt;TABLE&gt;">
<text text-anchor="start" x="115" y="-150" font-family="Times,serif" font-size="10.00">foaf:name</text>
</a>
</g>
<text text-anchor="start" x="191" y="-150" font-family="Times,serif" font-size="10.00">Daniel Lins da Silva</text>
<g id="a_node2_4"><a xlink:href="http://www.w3.org/2000/01/rdf-schema#seeAlso" xlink:title="&lt;TABLE&gt;">
<text text-anchor="start" x="115" y="-137" font-family="Times,serif" font-size="10.00">rdfs:seeAlso</text>
</a>
</g>
<text text-anchor="start" x="191" y="-137" font-family="Times,serif" font-size="10.00">http://bioprov.poli.usp.br/students/6613529</text>
</g>
<!-- ann1&#45;&gt;n1 -->
<g id="edge1" class="edge"><title>ann1&#45;&gt;n1</title>
<path fill="none" stroke="gray" stroke-dasharray="5,2" d="M250.341,-204.022C254.758,-226.301 260.121,-253.351 263.287,-269.316"/>
</g>
<!-- n2 -->
<g id="node3" class="node"><title>n2</title>
<g id="a_node3"><a xlink:href="http://orcid.org/0000-0002-6420-1659" xlink:title="orcid:0000&#45;0002&#45;6420&#45;1659">
<polygon fill="#fed37f" stroke="black" points="409.647,-713.562 273,-726 136.353,-713.562 136.481,-693.438 409.519,-693.438 409.647,-713.562"/>
<text text-anchor="middle" x="273" y="-704.3" font-family="Times,serif" font-size="14.00">orcid:0000&#45;0002&#45;6420&#45;1659</text>
</a>
</g>
</g>
<!-- ann2 -->
<g id="node4" class="node"><title>ann2</title>
<polygon fill="none" stroke="gray" points="318,-642 104,-642 104,-566 324,-566 324,-636 318,-642"/>
<polyline fill="none" stroke="gray" points="318,-642 318,-636 "/>
<polyline fill="none" stroke="gray" points="324,-636 318,-636 "/>
<g id="a_node4_5"><a xlink:href="http://purl.org/dc/terms/created" xlink:title="&lt;TABLE&gt;">
<text text-anchor="start" x="114" y="-627.5" font-family="Times,serif" font-size="10.00">dcterms:created</text>
</a>
</g>
<text text-anchor="start" x="190" y="-627.5" font-family="Times,serif" font-size="10.00">2017&#45;02&#45;10 02:20:24</text>
<g id="a_node4_6"><a xlink:href="http://purl.org/dc/terms/identifier" xlink:title="&lt;TABLE&gt;">
<text text-anchor="start" x="114" y="-614" font-family="Times,serif" font-size="10.00">dcterms:identifier</text>
</a>
</g>
<text text-anchor="start" x="190" y="-614" font-family="Times,serif" font-size="10.00">Smith</text>
<g id="a_node4_7"><a xlink:href="http://xmlns.com/foaf/0.1/mbox" xlink:title="&lt;TABLE&gt;">
<text text-anchor="start" x="114" y="-601" font-family="Times,serif" font-size="10.00">foaf:mbox</text>
</a>
</g>
<text text-anchor="start" x="190" y="-601" font-family="Times,serif" font-size="10.00">mailto:adam@earthskysea.org</text>
<g id="a_node4_8"><a xlink:href="http://xmlns.com/foaf/0.1/name" xlink:title="&lt;TABLE&gt;">
<text text-anchor="start" x="114" y="-588" font-family="Times,serif" font-size="10.00">foaf:name</text>
</a>
</g>
<text text-anchor="start" x="190" y="-588" font-family="Times,serif" font-size="10.00">Adam B. Smith</text>
<g id="a_node4_9"><a xlink:href="http://www.w3.org/2000/01/rdf-schema#seeAlso" xlink:title="&lt;TABLE&gt;">
<text text-anchor="start" x="114" y="-575" font-family="Times,serif" font-size="10.00">rdfs:seeAlso</text>
</a>
</g>
<text text-anchor="start" x="190" y="-575" font-family="Times,serif" font-size="10.00">http://www.earthskysea.org/</text>
</g>
<!-- ann2&#45;&gt;n2 -->
<g id="edge2" class="edge"><title>ann2&#45;&gt;n2</title>
<path fill="none" stroke="gray" stroke-dasharray="5,2" d="M235.467,-642.113C245.747,-659.885 257.436,-680.092 264.999,-693.168"/>
</g>
<!-- n3 -->
<g id="node5" class="node"><title>n3</title>
<g id="a_node5"><a xlink:href="http://www.uc-ciee.org/Grinnellresurvey" xlink:title="uc&#45;ciee:Grinnellresurvey">
<ellipse fill="#fffc87" stroke="#808080" cx="642" cy="-372" rx="98.2828" ry="18"/>
<text text-anchor="middle" x="642" y="-368.3" font-family="Times,serif" font-size="14.00">uc&#45;ciee:Grinnellresurvey</text>
</a>
</g>
</g>
<!-- b2 -->
<g id="node14" class="node"><title>b2</title>
<ellipse fill="gray" stroke="gray" cx="642" cy="-483" rx="1.8" ry="1.8"/>
</g>
<!-- n3&#45;&gt;b2 -->
<g id="edge11" class="edge"><title>n3&#45;&gt;b2</title>
<path fill="none" stroke="black" d="M642,-390.031C642,-418.292 642,-472.607 642,-480.921"/>
<text text-anchor="middle" x="677" y="-411.5" font-family="Times,serif" font-size="10.00">wasDerivedFrom</text>
</g>
<!-- ann3 -->
<g id="node6" class="node"><title>ann3</title>
<polygon fill="none" stroke="gray" points="981,-315.5 453,-315.5 453,-252.5 987,-252.5 987,-309.5 981,-315.5"/>
<polyline fill="none" stroke="gray" points="981,-315.5 981,-309.5 "/>
<polyline fill="none" stroke="gray" points="987,-309.5 981,-309.5 "/>
<g id="a_node6_10"><a xlink:href="http://bioprov.poli.usp.br/entityType" xlink:title="&lt;TABLE&gt;">
<text text-anchor="start" x="463" y="-300.5" font-family="Times,serif" font-size="10.00">bioprov:entityType</text>
</a>
</g>
<text text-anchor="start" x="547" y="-300.5" font-family="Times,serif" font-size="10.00">Publication</text>
<g id="a_node6_11"><a xlink:href="http://purl.org/dc/terms/created" xlink:title="&lt;TABLE&gt;">
<text text-anchor="start" x="463" y="-287" font-family="Times,serif" font-size="10.00">dcterms:created</text>
</a>
</g>
<text text-anchor="start" x="547" y="-287" font-family="Times,serif" font-size="10.00">2011&#45;03&#45;31</text>
<g id="a_node6_12"><a xlink:href="http://purl.org/dc/terms/source" xlink:title="&lt;TABLE&gt;">
<text text-anchor="start" x="463" y="-274" font-family="Times,serif" font-size="10.00">dcterms:source</text>
</a>
</g>
<text text-anchor="start" x="547" y="-274" font-family="Times,serif" font-size="10.00">http://www.uc&#45;ciee.org/downloads/Grinnellresurvey.Smith.pdf</text>
<g id="a_node6_13"><a xlink:href="http://purl.org/dc/terms/title" xlink:title="&lt;TABLE&gt;">
<text text-anchor="start" x="463" y="-261" font-family="Times,serif" font-size="10.00">dcterms:title</text>
</a>
</g>
<text text-anchor="start" x="547" y="-261" font-family="Times,serif" font-size="10.00">Testing methods for predicting mammalian species responses to 20th century climate change in California</text>
</g>
<!-- ann3&#45;&gt;n3 -->
<g id="edge3" class="edge"><title>ann3&#45;&gt;n3</title>
<path fill="none" stroke="gray" stroke-dasharray="5,2" d="M692.28,-315.563C680.545,-328.501 667.319,-343.084 657.378,-354.044"/>
</g>
<!-- n4 -->
<g id="node7" class="node"><title>n4</title>
<g id="a_node7"><a xlink:href="http://orcid.org/0000-0003-4627-0244" xlink:title="orcid:0000&#45;0003&#45;4627&#45;0244">
<polygon fill="#fed37f" stroke="black" points="1278.65,-289.562 1142,-302 1005.35,-289.562 1005.48,-269.438 1278.52,-269.438 1278.65,-289.562"/>
<text text-anchor="middle" x="1142" y="-280.3" font-family="Times,serif" font-size="14.00">orcid:0000&#45;0003&#45;4627&#45;0244</text>
</a>
</g>
</g>
<!-- ann4 -->
<g id="node8" class="node"><title>ann4</title>
<polygon fill="none" stroke="gray" points="1274.5,-204 1003.5,-204 1003.5,-128 1280.5,-128 1280.5,-198 1274.5,-204"/>
<polyline fill="none" stroke="gray" points="1274.5,-204 1274.5,-198 "/>
<polyline fill="none" stroke="gray" points="1280.5,-198 1274.5,-198 "/>
<g id="a_node8_14"><a xlink:href="http://purl.org/dc/terms/created" xlink:title="&lt;TABLE&gt;">
<text text-anchor="start" x="1014" y="-189.5" font-family="Times,serif" font-size="10.00">dcterms:created</text>
</a>
</g>
<text text-anchor="start" x="1090" y="-189.5" font-family="Times,serif" font-size="10.00">2017&#45;02&#45;10 02:20:24</text>
<g id="a_node8_15"><a xlink:href="http://purl.org/dc/terms/identifier" xlink:title="&lt;TABLE&gt;">
<text text-anchor="start" x="1014" y="-176" font-family="Times,serif" font-size="10.00">dcterms:identifier</text>
</a>
</g>
<text text-anchor="start" x="1090" y="-176" font-family="Times,serif" font-size="10.00">andrefilipe</text>
<g id="a_node8_16"><a xlink:href="http://xmlns.com/foaf/0.1/mbox" xlink:title="&lt;TABLE&gt;">
<text text-anchor="start" x="1014" y="-163" font-family="Times,serif" font-size="10.00">foaf:mbox</text>
</a>
</g>
<text text-anchor="start" x="1090" y="-163" font-family="Times,serif" font-size="10.00">mailto:andrefmb@usp.br</text>
<g id="a_node8_17"><a xlink:href="http://xmlns.com/foaf/0.1/name" xlink:title="&lt;TABLE&gt;">
<text text-anchor="start" x="1014" y="-150" font-family="Times,serif" font-size="10.00">foaf:name</text>
</a>
</g>
<text text-anchor="start" x="1090" y="-150" font-family="Times,serif" font-size="10.00">Andre Filipe de Moraes Batista</text>
<g id="a_node8_18"><a xlink:href="http://www.w3.org/2000/01/rdf-schema#seeAlso" xlink:title="&lt;TABLE&gt;">
<text text-anchor="start" x="1014" y="-137" font-family="Times,serif" font-size="10.00">rdfs:seeAlso</text>
</a>
</g>
<text text-anchor="start" x="1090" y="-137" font-family="Times,serif" font-size="10.00">http://bioprov.poli.usp.br/students/8788438</text>
</g>
<!-- ann4&#45;&gt;n4 -->
<g id="edge4" class="edge"><title>ann4&#45;&gt;n4</title>
<path fill="none" stroke="gray" stroke-dasharray="5,2" d="M1142,-204.022C1142,-226.301 1142,-253.351 1142,-269.316"/>
</g>
<!-- n5 -->
<g id="node9" class="node"><title>n5</title>
<g id="a_node9"><a xlink:href="http://bioprov.poli.usp.br/projects/5" xlink:title="bioprov:projects/5">
<ellipse fill="#fffc87" stroke="#808080" cx="417" cy="-604" rx="75.2868" ry="18"/>
<text text-anchor="middle" x="417" y="-600.3" font-family="Times,serif" font-size="14.00">bioprov:projects/5</text>
</a>
</g>
</g>
<!-- n5&#45;&gt;n2 -->
<g id="edge7" class="edge"><title>n5&#45;&gt;n2</title>
<path fill="none" stroke="#fed37f" d="M394.183,-621.162C368.85,-639.106 327.959,-668.071 300.782,-687.321"/>
<polygon fill="#fed37f" stroke="#fed37f" points="298.615,-684.567 292.478,-693.203 302.661,-690.279 298.615,-684.567"/>
<text text-anchor="middle" x="371" y="-663.5" font-family="Times,serif" font-size="10.00">wasAttributedTo</text>
</g>
<!-- ann5 -->
<g id="node10" class="node"><title>ann5</title>
<polygon fill="none" stroke="gray" points="616.5,-527.5 43.5,-527.5 43.5,-438.5 622.5,-438.5 622.5,-521.5 616.5,-527.5"/>
<polyline fill="none" stroke="gray" points="616.5,-527.5 616.5,-521.5 "/>
<polyline fill="none" stroke="gray" points="622.5,-521.5 616.5,-521.5 "/>
<g id="a_node10_19"><a xlink:href="http://bioprov.poli.usp.br/entityType" xlink:title="&lt;TABLE&gt;">
<text text-anchor="start" x="54" y="-512.5" font-family="Times,serif" font-size="10.00">bioprov:entityType</text>
</a>
</g>
<text text-anchor="start" x="183" y="-512.5" font-family="Times,serif" font-size="10.00">ResearchProject</text>
<g id="a_node10_20"><a xlink:href="http://bioprov.poli.usp.br/studyAreaDescription" xlink:title="&lt;TABLE&gt;">
<text text-anchor="start" x="54" y="-499" font-family="Times,serif" font-size="10.00">bioprov:studyAreaDescription</text>
</a>
</g>
<text text-anchor="start" x="183" y="-499" font-family="Times,serif" font-size="10.00">Biodiversity</text>
<g id="a_node10_21"><a xlink:href="http://bioprov.poli.usp.br/taxonomicCoverage" xlink:title="&lt;TABLE&gt;">
<text text-anchor="start" x="54" y="-486" font-family="Times,serif" font-size="10.00">bioprov:taxonomicCoverage</text>
</a>
</g>
<text text-anchor="start" x="183" y="-486" font-family="Times,serif" font-size="10.00">Mammalian species</text>
<g id="a_node10_22"><a xlink:href="http://purl.org/dc/terms/created" xlink:title="&lt;TABLE&gt;">
<text text-anchor="start" x="54" y="-473" font-family="Times,serif" font-size="10.00">dcterms:created</text>
</a>
</g>
<text text-anchor="start" x="183" y="-473" font-family="Times,serif" font-size="10.00">2017&#45;02&#45;10 02:20:24</text>
<g id="a_node10_23"><a xlink:href="http://purl.org/dc/terms/spatial" xlink:title="&lt;TABLE&gt;">
<text text-anchor="start" x="54" y="-460" font-family="Times,serif" font-size="10.00">dcterms:spatial</text>
</a>
</g>
<text text-anchor="start" x="183" y="-460" font-family="Times,serif" font-size="10.00">Western United States</text>
<g id="a_node10_24"><a xlink:href="http://purl.org/dc/terms/title" xlink:title="&lt;TABLE&gt;">
<text text-anchor="start" x="54" y="-447" font-family="Times,serif" font-size="10.00">dcterms:title</text>
</a>
</g>
<text text-anchor="start" x="183" y="-447" font-family="Times,serif" font-size="10.00">Testing methods for predicting mammalian species responses to 20th century climate change in California</text>
</g>
<!-- ann5&#45;&gt;n5 -->
<g id="edge5" class="edge"><title>ann5&#45;&gt;n5</title>
<path fill="none" stroke="gray" stroke-dasharray="5,2" d="M363.802,-527.635C378.129,-547.933 394.333,-570.889 405.053,-586.075"/>
</g>
<!-- n6 -->
<g id="node11" class="node"><title>n6</title>
<g id="a_node11"><a xlink:href="http://bioprov.poli.usp.br/experiment/31" xlink:title="bioprov:experiment/31">
<ellipse fill="#fffc87" stroke="#808080" cx="491" cy="-166" rx="91.784" ry="18"/>
<text text-anchor="middle" x="491" y="-162.3" font-family="Times,serif" font-size="14.00">bioprov:experiment/31</text>
</a>
</g>
</g>
<!-- n6&#45;&gt;n1 -->
<g id="edge13" class="edge"><title>n6&#45;&gt;n1</title>
<path fill="none" stroke="#fed37f" d="M457.998,-182.793C435.603,-193.612 405.382,-208.408 379,-222 352.001,-235.91 321.738,-252.29 299.329,-264.572"/>
<polygon fill="#fed37f" stroke="#fed37f" points="297.623,-261.515 290.544,-269.398 300.994,-267.651 297.623,-261.515"/>
<text text-anchor="middle" x="414" y="-225.5" font-family="Times,serif" font-size="10.00">wasAttributedTo</text>
</g>
<!-- n6&#45;&gt;n4 -->
<g id="edge10" class="edge"><title>n6&#45;&gt;n4</title>
<path fill="none" stroke="#fed37f" d="M560.6,-177.756C658.146,-193.05 840.971,-222.508 996,-252 1020.39,-256.64 1046.97,-262.149 1070.69,-267.227"/>
<polygon fill="#fed37f" stroke="#fed37f" points="1070.16,-270.691 1080.67,-269.373 1071.63,-263.848 1070.16,-270.691"/>
<text text-anchor="middle" x="920" y="-225.5" font-family="Times,serif" font-size="10.00">wasAttributedTo</text>
</g>
<!-- b1 -->
<g id="node13" class="node"><title>b1</title>
<ellipse fill="gray" stroke="gray" cx="433" cy="-284" rx="1.8" ry="1.8"/>
</g>
<!-- n6&#45;&gt;b1 -->
<g id="edge8" class="edge"><title>n6&#45;&gt;b1</title>
<path fill="none" stroke="black" d="M480.419,-184.152C470.278,-201.021 454.938,-227.706 444,-252 438.842,-263.456 434.426,-278.116 433.285,-282.013"/>
<text text-anchor="middle" x="493" y="-225.5" font-family="Times,serif" font-size="10.00">wasDerivedFrom</text>
</g>
<!-- ann6 -->
<g id="node12" class="node"><title>ann6</title>
<polygon fill="none" stroke="gray" points="975.5,-89.5 0.5,-89.5 0.5,-0.5 981.5,-0.5 981.5,-83.5 975.5,-89.5"/>
<polyline fill="none" stroke="gray" points="975.5,-89.5 975.5,-83.5 "/>
<polyline fill="none" stroke="gray" points="981.5,-83.5 975.5,-83.5 "/>
<g id="a_node12_25"><a xlink:href="http://bioprov.poli.usp.br/entityType" xlink:title="&lt;TABLE&gt;">
<text text-anchor="start" x="11" y="-74.5" font-family="Times,serif" font-size="10.00">bioprov:entityType</text>
</a>
</g>
<text text-anchor="start" x="95" y="-74.5" font-family="Times,serif" font-size="10.00">Experiment</text>
<g id="a_node12_26"><a xlink:href="http://purl.org/dc/terms/created" xlink:title="&lt;TABLE&gt;">
<text text-anchor="start" x="11" y="-61" font-family="Times,serif" font-size="10.00">dcterms:created</text>
</a>
</g>
<text text-anchor="start" x="95" y="-61" font-family="Times,serif" font-size="10.00">2017&#45;02&#45;10 02:20:25</text>
<g id="a_node12_27"><a xlink:href="http://purl.org/dc/terms/creator" xlink:title="&lt;TABLE&gt;">
<text text-anchor="start" x="11" y="-48" font-family="Times,serif" font-size="10.00">dcterms:creator</text>
</a>
</g>
<text text-anchor="start" x="95" y="-48" font-family="Times,serif" font-size="10.00">http://orcid.org/0000&#45;0002&#45;1244&#45;9126</text>
<g id="a_node12_28"><a xlink:href="http://purl.org/dc/terms/date" xlink:title="&lt;TABLE&gt;">
<text text-anchor="start" x="11" y="-35" font-family="Times,serif" font-size="10.00">dcterms:date</text>
</a>
</g>
<text text-anchor="start" x="95" y="-35" font-family="Times,serif" font-size="10.00">Fri Feb 10 02:20:25 2017</text>
<g id="a_node12_29"><a xlink:href="http://purl.org/dc/terms/description" xlink:title="&lt;TABLE&gt;">
<text text-anchor="start" x="11" y="-22" font-family="Times,serif" font-size="10.00">dcterms:description</text>
</a>
</g>
<text text-anchor="start" x="95" y="-22" font-family="Times,serif" font-size="10.00">This work aims to show the relationship between physical aspects and the occurrences of Urocitellus beldingi in the Western US. We use the R programming language and DISMO Package to execute this experiment.</text>
<g id="a_node12_30"><a xlink:href="http://purl.org/dc/terms/title" xlink:title="&lt;TABLE&gt;">
<text text-anchor="start" x="11" y="-9" font-family="Times,serif" font-size="10.00">dcterms:title</text>
</a>
</g>
<text text-anchor="start" x="95" y="-9" font-family="Times,serif" font-size="10.00">Species Distribution Modeling of Urocitellus beldingi </text>
</g>
<!-- ann6&#45;&gt;n6 -->
<g id="edge6" class="edge"><title>ann6&#45;&gt;n6</title>
<path fill="none" stroke="gray" stroke-dasharray="5,2" d="M491,-89.6355C491,-109.801 491,-132.589 491,-147.776"/>
</g>
<!-- b1&#45;&gt;n3 -->
<g id="edge9" class="edge"><title>b1&#45;&gt;n3</title>
<path fill="none" stroke="black" d="M433.034,-285.923C433.239,-290.085 434.644,-307.277 444,-316 470.779,-340.966 507.905,-354.754 542.779,-362.314"/>
<polygon fill="black" stroke="black" points="542.535,-365.835 553.029,-364.376 543.916,-358.972 542.535,-365.835"/>
</g>
<!-- b2&#45;&gt;n5 -->
<g id="edge12" class="edge"><title>b2&#45;&gt;n5</title>
<path fill="none" stroke="black" d="M642.084,-485.28C642.393,-491.054 642.884,-514.967 631,-528 596.031,-566.348 540.329,-585.09 494.521,-594.248"/>
<polygon fill="black" stroke="black" points="493.789,-590.825 484.609,-596.114 495.084,-597.704 493.789,-590.825"/>
</g>
</g>
</svg>
