<?xml version="1.0" encoding="UTF-8" standalone="no"?>
<!DOCTYPE svg PUBLIC "-//W3C//DTD SVG 1.1//EN"
 "http://www.w3.org/Graphics/SVG/1.1/DTD/svg11.dtd">
<!-- Generated by graphviz version 12.1.0 (20240811.2233)
 -->
<!-- Title: G Pages: 1 -->
<svg width="726pt" height="166pt"
 viewBox="0.00 0.00 726.00 166.25" xmlns="http://www.w3.org/2000/svg" xmlns:xlink="http://www.w3.org/1999/xlink">
<g id="graph0" class="graph" transform="scale(1 1) rotate(0) translate(4 162.25)">
<title>G</title>
<polygon fill="white" stroke="none" points="-4,4 -4,-162.25 722,-162.25 722,4 -4,4"/>
<!-- n1 -->
<g id="node1" class="node">
<title>n1</title>
<g id="a_node1"><a xlink:href="http://bioprov.poli.usp.br/agents/6613529" xlink:title="bioprov.poli.usp.br:">
<polygon fill="#fed37f" stroke="black" points="320.96,-145.81 217,-158.25 113.04,-145.81 113.13,-125.69 320.87,-125.69 320.96,-145.81"/>
<text text-anchor="middle" x="217" y="-135.2" font-family="Times New Roman,serif" font-size="14.00">bioprov.poli.usp.br:</text>
</a>
</g>
</g>
<!-- ann1 -->
<g id="node2" class="node">
<title>ann1</title>
<polygon fill="none" stroke="gray" points="246,-75 0,-75 0,0 252,0 252,-69 246,-75"/>
<polyline fill="none" stroke="gray" points="246,-75 246,-69"/>
<polyline fill="none" stroke="gray" points="252,-69 246,-69"/>
<g id="a_node2_0"><a xlink:href="http://purl.org/dc/terms/created" xlink:title="&lt;TABLE&gt;">
<text text-anchor="start" x="9.62" y="-59.5" font-family="Times New Roman,serif" font-size="10.00">dcterms:created</text>
</a>
</g>
<text text-anchor="start" x="75" y="-59.5" font-family="Times New Roman,serif" font-size="10.00">2024&#45;09&#45;05 14:58:32</text>
<g id="a_node2_1"><a xlink:href="http://purl.org/dc/terms/type" xlink:title="&lt;TABLE&gt;">
<text text-anchor="start" x="10" y="-46.5" font-family="Times New Roman,serif" font-size="10.00">dcterms:type</text>
</a>
</g>
<text text-anchor="start" x="75" y="-46.5" font-family="Times New Roman,serif" font-size="10.00">Researcher</text>
<g id="a_node2_2"><a xlink:href="http://xmlns.com/foaf/0.1/mbox" xlink:title="&lt;TABLE&gt;">
<text text-anchor="start" x="10" y="-33.5" font-family="Times New Roman,serif" font-size="10.00">foaf:mbox</text>
</a>
</g>
<text text-anchor="start" x="75" y="-33.5" font-family="Times New Roman,serif" font-size="10.00">mailto:daniellins@usp.br</text>
<g id="a_node2_3"><a xlink:href="http://xmlns.com/foaf/0.1/name" xlink:title="&lt;TABLE&gt;">
<text text-anchor="start" x="10" y="-20.5" font-family="Times New Roman,serif" font-size="10.00">foaf:name</text>
</a>
</g>
<text text-anchor="start" x="75" y="-20.5" font-family="Times New Roman,serif" font-size="10.00">Daniel Lins da Silva</text>
<g id="a_node2_4"><a xlink:href="http://www.w3.org/2000/01/rdf-schema#seeAlso" xlink:title="&lt;TABLE&gt;">
<text text-anchor="start" x="10" y="-7.5" font-family="Times New Roman,serif" font-size="10.00">rdfs:seeAlso</text>
</a>
</g>
<text text-anchor="start" x="74.88" y="-7.5" font-family="Times New Roman,serif" font-size="10.00">http://lattes.cnpq.br/6502450550040226</text>
</g>
<!-- ann1&#45;&gt;n1 -->
<g id="edge1" class="edge">
<title>ann1&#45;&gt;n1</title>
<path fill="none" stroke="gray" stroke-dasharray="5,2" d="M159.37,-75.44C175.19,-92.97 193.13,-112.83 204.73,-125.67"/>
</g>
<!-- n2 -->
<g id="node3" class="node">
<title>n2</title>
<g id="a_node3"><a xlink:href="http://bioprov.poli.usp.br/agents/8788438" xlink:title="bioprov.poli.usp.br1:">
<polygon fill="#fed37f" stroke="black" points="606.66,-145.81 497,-158.25 387.34,-145.81 387.45,-125.69 606.55,-125.69 606.66,-145.81"/>
<text text-anchor="middle" x="497" y="-135.2" font-family="Times New Roman,serif" font-size="14.00">bioprov.poli.usp.br1:</text>
</a>
</g>
</g>
<!-- ann2 -->
<g id="node4" class="node">
<title>ann2</title>
<polygon fill="none" stroke="gray" points="712,-75 466,-75 466,0 718,0 718,-69 712,-75"/>
<polyline fill="none" stroke="gray" points="712,-75 712,-69"/>
<polyline fill="none" stroke="gray" points="718,-69 712,-69"/>
<g id="a_node4_5"><a xlink:href="http://purl.org/dc/terms/created" xlink:title="&lt;TABLE&gt;">
<text text-anchor="start" x="475.62" y="-59.5" font-family="Times New Roman,serif" font-size="10.00">dcterms:created</text>
</a>
</g>
<text text-anchor="start" x="541" y="-59.5" font-family="Times New Roman,serif" font-size="10.00">2024&#45;09&#45;05 14:58:35</text>
<g id="a_node4_6"><a xlink:href="http://purl.org/dc/terms/type" xlink:title="&lt;TABLE&gt;">
<text text-anchor="start" x="476" y="-46.5" font-family="Times New Roman,serif" font-size="10.00">dcterms:type</text>
</a>
</g>
<text text-anchor="start" x="541" y="-46.5" font-family="Times New Roman,serif" font-size="10.00">Researcher</text>
<g id="a_node4_7"><a xlink:href="http://xmlns.com/foaf/0.1/mbox" xlink:title="&lt;TABLE&gt;">
<text text-anchor="start" x="476" y="-33.5" font-family="Times New Roman,serif" font-size="10.00">foaf:mbox</text>
</a>
</g>
<text text-anchor="start" x="541" y="-33.5" font-family="Times New Roman,serif" font-size="10.00">mailto:andrefmb@usp.br</text>
<g id="a_node4_8"><a xlink:href="http://xmlns.com/foaf/0.1/name" xlink:title="&lt;TABLE&gt;">
<text text-anchor="start" x="476" y="-20.5" font-family="Times New Roman,serif" font-size="10.00">foaf:name</text>
</a>
</g>
<text text-anchor="start" x="541" y="-20.5" font-family="Times New Roman,serif" font-size="10.00">Andre Filipe de Moraes Batista</text>
<g id="a_node4_9"><a xlink:href="http://www.w3.org/2000/01/rdf-schema#seeAlso" xlink:title="&lt;TABLE&gt;">
<text text-anchor="start" x="476" y="-7.5" font-family="Times New Roman,serif" font-size="10.00">rdfs:seeAlso</text>
</a>
</g>
<text text-anchor="start" x="540.88" y="-7.5" font-family="Times New Roman,serif" font-size="10.00">http://lattes.cnpq.br/2015345575533420</text>
</g>
<!-- ann2&#45;&gt;n2 -->
<g id="edge2" class="edge">
<title>ann2&#45;&gt;n2</title>
<path fill="none" stroke="gray" stroke-dasharray="5,2" d="M557.16,-75.44C540.64,-92.97 521.92,-112.83 509.81,-125.67"/>
</g>
<!-- n3 -->
<g id="node5" class="node">
<title>n3</title>
<g id="a_node5"><a xlink:href="http://bioprov.poli.usp.br/bundle/2" xlink:title="bioprov.poli.usp.br2:">
<ellipse fill="lightgray" stroke="dimgray" cx="359" cy="-37.5" rx="88.71" ry="18"/>
<text text-anchor="middle" x="359" y="-32.45" font-family="Times New Roman,serif" font-size="14.00">bioprov.poli.usp.br2:</text>
</a>
</g>
</g>
<!-- n3&#45;&gt;n1 -->
<g id="edge3" class="edge">
<title>n3&#45;&gt;n1</title>
<path fill="none" stroke="#fed37f" d="M335.55,-55.14C311,-72.56 272.4,-99.95 245.96,-118.7"/>
<polygon fill="#fed37f" stroke="#fed37f" points="244.18,-115.67 238.05,-124.32 248.23,-121.38 244.18,-115.67"/>
<text text-anchor="middle" x="314" y="-94.75" font-family="Times New Roman,serif" font-size="10.00">wasAttributedTo</text>
</g>
<!-- n3&#45;&gt;n2 -->
<g id="edge4" class="edge">
<title>n3&#45;&gt;n2</title>
<path fill="none" stroke="#fed37f" d="M382.1,-55.36C405.91,-72.75 443.07,-99.88 468.65,-118.55"/>
<polygon fill="#fed37f" stroke="#fed37f" points="466.47,-121.3 476.61,-124.37 470.6,-115.64 466.47,-121.3"/>
<text text-anchor="middle" x="482.92" y="-94.75" font-family="Times New Roman,serif" font-size="10.00">wasAttributedTo</text>
</g>
</g>
</svg>
